<?xml version="1.0" standalone="no"?>
<!DOCTYPE svg PUBLIC "-//W3C//DTD SVG 20010904//EN"
 "http://www.w3.org/TR/2001/REC-SVG-20010904/DTD/svg10.dtd">
<svg version="1.0" xmlns="http://www.w3.org/2000/svg"
 width="1280.000000pt" height="1280.000000pt" viewBox="0 0 1280.000000 1056.000000"
 preserveAspectRatio="xMidYMid meet">
<metadata>
Created by potrace 1.15, written by Peter Selinger 2001-2017
</metadata>
<g transform="translate(0.000000,1056.000000) scale(0.100000,-0.100000)"
fill="#000000" stroke="none">
<path d="M2185 10542 c-11 -2 -27 -10 -36 -18 -9 -8 -18 -12 -20 -9 -10 9 -68
-61 -98 -119 -17 -32 -31 -54 -31 -50 0 5 -7 -4 -15 -20 -8 -15 -15 -37 -15
-47 0 -11 -4 -19 -9 -19 -5 0 -12 -12 -16 -27 -3 -15 -15 -45 -26 -67 -10 -22
-19 -46 -19 -53 0 -8 -5 -11 -12 -7 -8 5 -9 -2 -5 -24 4 -18 3 -32 -2 -32 -4
0 -11 -27 -14 -60 -3 -34 -12 -71 -20 -83 -7 -12 -17 -38 -21 -58 -10 -57 -72
-103 -103 -78 -9 9 -11 4 -8 -22 11 -86 -26 -134 -104 -134 -46 0 -48 1 -39
20 11 20 11 20 -11 1 -11 -11 -24 -16 -27 -13 -4 3 -15 2 -25 -4 -13 -7 -19
-6 -19 1 0 7 -6 8 -19 0 -14 -7 -28 -7 -47 0 -15 6 -33 9 -41 6 -7 -3 -12 -2
-11 2 3 12 -13 52 -22 52 -4 0 -11 16 -14 35 -4 20 -11 33 -16 30 -5 -3 -16
10 -24 30 -8 19 -20 35 -26 35 -6 0 -14 10 -19 23 -5 13 -20 36 -33 53 -35 43
-78 112 -78 125 0 6 -11 29 -24 52 -13 23 -34 71 -47 107 -13 36 -31 72 -40
80 -9 8 -22 35 -28 58 -9 31 -29 61 -68 100 -32 32 -58 51 -61 44 -2 -7 -8
-10 -13 -6 -5 3 -9 -1 -9 -8 0 -10 -2 -10 -8 -1 -12 18 -57 -45 -66 -91 -4
-21 -12 -47 -17 -57 -5 -11 -14 -28 -19 -40 -6 -11 -8 -29 -5 -40 4 -10 2 -19
-4 -19 -6 0 -8 -6 -5 -14 3 -8 -2 -26 -11 -40 -9 -14 -14 -30 -10 -35 3 -6 1
-19 -4 -30 -16 -30 -17 -156 -2 -175 9 -10 9 -16 3 -16 -6 0 -9 -6 -6 -13 3
-8 6 -36 8 -63 1 -27 8 -60 15 -73 11 -19 11 -22 -1 -15 -11 6 -11 5 1 -9 7
-9 10 -17 6 -17 -5 0 0 -8 9 -19 14 -15 14 -19 3 -24 -8 -3 -20 0 -27 6 -7 7
-1 -5 13 -27 19 -29 23 -44 17 -61 -6 -15 -4 -27 3 -35 7 -7 -3 -5 -20 4 -38
19 -40 16 -15 -21 9 -15 17 -37 17 -50 1 -18 -2 -20 -14 -10 -12 10 -13 9 -2
-10 8 -16 8 -23 1 -23 -6 0 -8 -5 -3 -12 4 -7 9 -21 10 -32 3 -16 1 -17 -12
-6 -12 10 -15 10 -15 0 0 -7 -7 -10 -15 -6 -17 6 -20 -5 -6 -19 6 -6 12 -27
14 -48 4 -37 4 -37 -16 -20 -20 18 -20 18 -7 -7 l13 -25 -23 20 -22 20 22 -37
c20 -34 20 -38 5 -38 -14 0 -15 -3 -5 -15 11 -13 10 -15 -6 -12 -11 1 -26 7
-34 12 -9 5 -8 0 4 -13 11 -12 16 -22 11 -22 -4 0 -2 -7 5 -15 19 -23 -1 -18
-27 7 -43 40 -55 29 -22 -19 17 -24 28 -47 24 -51 -3 -4 -25 4 -48 17 l-42 24
33 -35 c36 -38 32 -57 -7 -31 l-26 16 19 -22 c20 -22 20 -22 0 -15 -15 6 -13
1 9 -23 l28 -30 -36 2 -36 1 38 -33 38 -32 -35 -2 -35 -1 35 -10 c19 -5 37
-12 39 -14 5 -5 -42 -74 -51 -74 -5 0 -8 -7 -8 -15 0 -8 -5 -15 -11 -15 -8 0
-8 -5 1 -15 10 -12 10 -15 0 -15 -8 0 -10 -3 -7 -7 4 -3 1 -16 -6 -27 -17 -28
-21 -126 -4 -126 9 0 9 -2 0 -8 -9 -6 -12 -28 -9 -73 2 -35 5 -73 5 -84 1 -11
5 -26 10 -34 8 -12 13 -12 35 2 14 9 38 24 54 33 26 16 26 16 -3 -9 -16 -14
-47 -36 -68 -49 -57 -35 -200 -140 -217 -159 -8 -9 -40 -33 -70 -53 -178 -118
-240 -226 -175 -304 14 -17 25 -41 25 -55 0 -16 18 -46 52 -84 29 -32 43 -50
32 -40 -29 24 -45 22 -35 -5 7 -19 1 -28 -45 -61 -30 -21 -54 -40 -54 -43 0
-6 8 -1 69 39 35 24 45 27 52 16 14 -23 10 -35 -13 -47 -21 -10 -21 -10 7 -6
28 5 32 2 55 -48 22 -46 30 -54 60 -58 19 -3 47 -1 62 4 21 8 31 6 45 -5 21
-19 95 -18 118 1 8 7 15 9 15 4 0 -5 53 -10 118 -12 64 -1 131 -4 147 -5 17
-1 40 1 52 5 12 4 25 3 28 -2 3 -6 16 -5 31 0 31 12 44 13 44 2 0 -13 -48 -32
-63 -26 -8 3 -31 1 -53 -4 -22 -5 -48 -6 -59 -2 -11 4 -26 3 -32 -2 -9 -7 -13
-7 -13 1 0 7 -5 9 -12 4 -16 -10 -98 -11 -98 -2 0 4 -13 4 -28 -1 -16 -4 -36
-4 -44 1 -10 6 -20 4 -28 -6 -6 -7 -18 -11 -26 -8 -8 3 -21 0 -29 -7 -11 -9
-15 -9 -15 -1 0 7 -5 9 -11 5 -6 -3 -15 0 -20 7 -7 11 -9 11 -9 1 0 -13 15
-22 45 -26 9 -1 20 -7 23 -13 4 -6 14 -13 22 -15 8 -2 20 -10 27 -18 10 -12
12 -13 13 -1 0 12 3 11 18 -2 10 -9 36 -15 67 -16 65 0 131 -7 144 -15 5 -4
12 -2 15 3 4 5 19 8 34 6 15 -1 32 1 37 5 6 5 30 11 55 14 25 3 59 10 76 15
43 12 69 -4 30 -19 -16 -6 -37 -12 -47 -13 -10 -2 -22 -6 -26 -10 -10 -11 -11
-47 -1 -47 5 0 6 -4 3 -10 -3 -5 -1 -10 4 -10 13 0 10 -22 -4 -32 -6 -5 -5 -8
3 -8 7 0 10 -4 7 -10 -3 -5 -1 -10 6 -10 7 0 4 -7 -7 -15 -23 -17 -16 -19 23
-5 26 9 27 9 9 -5 -11 -8 -26 -15 -33 -15 -10 0 -11 -5 -4 -19 8 -15 6 -22
-12 -35 -22 -17 -22 -17 13 -11 33 5 33 5 15 -11 -19 -15 -19 -15 5 -10 l25 5
-24 -20 c-18 -15 -20 -19 -7 -19 10 0 14 -5 10 -11 -5 -9 1 -10 20 -5 34 8 31
-14 -4 -30 -24 -10 -24 -11 15 -18 l40 -8 -25 -14 c-15 -8 -19 -14 -10 -14 8
0 -1 -9 -20 -20 -19 -11 -31 -19 -27 -20 5 0 17 4 27 10 12 7 27 5 49 -6 17
-8 36 -12 42 -8 7 4 10 1 7 -7 -2 -8 -22 -24 -44 -37 -25 -15 -30 -21 -14 -16
14 4 35 8 47 10 11 1 32 5 45 9 23 7 12 -3 -59 -53 -19 -14 -16 -13 35 4 9 3
-1 -10 -23 -30 -40 -37 -40 -37 -7 -21 17 8 32 13 32 10 0 -3 -15 -15 -32 -26
l-33 -21 28 6 c19 5 26 3 22 -4 -3 -6 3 -10 17 -10 19 0 20 -2 8 -11 -11 -8
-6 -9 20 -5 24 4 30 3 20 -4 -8 -5 -32 -12 -52 -15 -53 -9 -57 -24 -6 -18 32
3 39 2 28 -6 -12 -9 -9 -11 15 -12 29 -1 30 -1 5 -9 -14 -4 -19 -8 -11 -9 11
-1 11 -4 0 -18 -10 -11 -10 -14 -2 -9 8 4 13 2 13 -6 0 -8 -6 -20 -13 -27 -10
-12 -8 -13 8 -6 32 12 50 11 48 -2 -2 -7 4 -13 13 -13 12 0 11 -5 -7 -20 -17
-14 -20 -19 -9 -20 9 0 4 -9 -15 -24 -28 -23 -29 -24 -7 -30 21 -7 21 -8 5
-34 -17 -26 -17 -27 2 -11 11 9 27 20 35 24 13 8 13 7 0 -10 -14 -17 -13 -17
10 -10 23 7 23 5 -9 -29 -41 -42 -36 -46 15 -11 44 30 66 33 33 5 -21 -18 -22
-19 -4 -14 15 5 12 0 -10 -20 l-30 -26 30 10 c31 11 28 7 -22 -28 -16 -11 -16
-12 7 -6 14 4 31 9 38 12 17 6 11 -20 -8 -35 -12 -9 -6 -11 28 -9 l43 2 -28
-23 -28 -22 34 9 c26 7 32 7 23 -2 -7 -7 -8 -17 -2 -29 7 -11 7 -20 0 -24 -5
-3 -15 -16 -21 -28 -12 -21 -11 -21 8 -4 30 26 35 21 17 -15 l-16 -33 29 28
c27 25 30 26 28 7 -1 -11 -5 -23 -10 -27 -4 -5 -5 -1 0 7 5 8 4 12 0 7 -5 -4
-10 -14 -11 -22 -2 -13 2 -12 29 1 l32 15 -35 -31 c-34 -30 -34 -31 -7 -21 43
17 52 13 26 -10 -13 -11 -18 -18 -11 -14 19 10 82 14 82 5 0 -4 -10 -12 -22
-19 -22 -11 -22 -11 5 -8 15 3 27 2 27 0 0 -2 -12 -15 -27 -29 l-28 -25 28 17
c26 16 27 16 20 -2 -6 -17 -5 -18 12 -4 17 14 18 13 12 -3 -6 -17 -4 -16 22 2
44 32 49 25 10 -16 -18 -20 -27 -32 -19 -28 13 8 13 7 1 -8 -11 -14 -11 -17 0
-17 8 0 6 -6 -7 -16 -20 -16 -21 -17 34 2 9 3 0 -10 -20 -30 -42 -40 -41 -43
3 -21 32 17 38 2 9 -22 -12 -10 -9 -12 20 -7 19 4 39 11 44 15 6 5 15 9 20 9
6 0 -2 -12 -19 -26 l-30 -25 35 16 35 16 -25 -21 c-20 -17 -21 -19 -5 -14 19
7 18 6 -3 -18 -12 -13 -19 -28 -15 -32 5 -4 -1 -14 -11 -22 -15 -10 -16 -14
-5 -14 8 0 21 6 29 13 8 6 6 2 -4 -10 -19 -23 -19 -23 5 -23 17 0 20 -3 11 -9
-18 -11 -17 -22 3 -33 10 -6 22 -5 33 2 9 7 5 1 -10 -13 -15 -14 -24 -28 -21
-31 4 -3 2 -6 -3 -6 -6 0 -19 -7 -30 -15 -10 -9 1 -6 26 6 l45 22 -19 -22
c-20 -22 -20 -22 0 -16 14 5 12 0 -9 -19 -33 -30 -29 -32 16 -10 l32 16 -30
-31 c-19 -20 -23 -30 -12 -26 27 11 20 -1 -13 -22 l-31 -20 46 2 c25 1 45 1
45 -1 0 -2 -19 -17 -41 -34 l-42 -30 34 4 34 4 -25 -21 -25 -20 30 6 c17 3 24
4 17 1 -6 -3 -10 -10 -7 -14 3 -5 -8 -16 -26 -25 -17 -9 -29 -19 -26 -22 3 -2
14 0 26 6 14 8 22 8 26 0 4 -6 14 -8 23 -4 12 4 12 1 -4 -16 -10 -12 -13 -19
-6 -15 6 4 17 4 23 0 7 -4 -5 -22 -32 -46 -24 -22 -37 -36 -29 -30 8 5 29 12
45 16 28 5 29 5 10 -9 -11 -8 -29 -21 -40 -30 -19 -14 -19 -15 8 -5 16 5 37
14 47 20 14 8 18 6 16 -6 -1 -9 -18 -25 -37 -35 -19 -10 -29 -18 -24 -18 6 0
21 6 35 14 33 19 50 18 26 0 -14 -10 -15 -15 -6 -15 16 0 -19 -27 -60 -47 -19
-10 -20 -12 -4 -8 12 3 34 0 48 -7 l27 -12 -38 -23 c-37 -23 -37 -24 -8 -17
17 4 40 11 53 15 35 13 48 11 27 -5 -18 -13 -18 -14 10 -10 25 3 21 0 -20 -21
l-50 -24 60 4 60 5 -55 -20 -55 -20 45 4 c25 3 39 2 31 -1 -10 -4 -8 -9 10
-18 23 -13 22 -14 -26 -29 l-50 -16 75 4 c41 2 84 7 95 10 15 5 14 4 -3 -5
-13 -7 -21 -18 -18 -25 3 -7 -13 -24 -35 -39 -21 -15 -39 -29 -39 -30 0 -5 50
4 62 11 9 5 8 1 -2 -11 -14 -17 -14 -18 8 -6 43 23 34 3 -10 -23 -52 -31 -46
-33 18 -6 53 23 70 20 27 -5 -26 -15 -16 -14 24 2 27 11 5 -16 -31 -38 -37
-23 -29 -25 20 -4 49 20 32 0 -24 -30 -48 -25 -45 -33 5 -15 27 10 27 9 -7
-20 l-35 -31 32 15 c28 14 31 14 29 -1 -2 -9 -16 -27 -32 -41 -16 -13 -21 -22
-11 -18 9 3 24 3 33 -1 12 -4 10 -9 -13 -24 -30 -20 -25 -26 8 -9 13 7 25 8
37 1 15 -9 14 -11 -8 -19 -14 -6 -45 -20 -70 -32 l-45 -21 40 6 c22 4 51 8 65
11 18 3 15 0 -10 -11 l-35 -15 40 5 c28 3 35 2 25 -5 -13 -9 -13 -10 0 -10 9
-1 6 -6 -10 -16 -24 -15 -24 -15 19 -10 l44 4 -39 -39 -39 -40 30 10 30 11
-28 -25 -28 -25 28 4 c15 2 42 7 58 11 l30 8 -29 -32 c-26 -27 -26 -43 0 -23
5 4 -1 -3 -14 -16 -26 -25 -17 -30 14 -7 35 27 39 15 4 -15 -19 -16 -30 -29
-23 -30 6 0 15 5 18 10 3 5 11 10 17 10 6 0 1 -11 -12 -25 -13 -14 -18 -25
-12 -25 6 0 14 5 17 10 3 6 11 10 17 10 6 0 5 -6 -2 -16 -8 -8 -9 -14 -4 -13
5 1 16 1 23 0 12 -1 12 -4 3 -13 -17 -17 -15 -31 4 -24 12 5 14 1 9 -15 -6
-16 -4 -20 6 -14 8 5 3 -4 -10 -18 -14 -15 -20 -27 -15 -27 5 0 0 -7 -10 -15
-26 -19 -8 -19 39 1 41 17 55 13 35 -11 -11 -14 -10 -14 14 -6 28 11 34 3 14
-19 -7 -7 0 -5 17 5 l30 18 -18 -26 c-9 -15 -25 -39 -34 -54 -17 -28 -17 -28
2 -12 11 9 25 14 32 12 6 -2 14 1 18 6 3 6 11 11 17 11 6 0 3 -9 -7 -20 -11
-12 -13 -20 -6 -20 7 0 10 -4 7 -9 -4 -5 0 -12 6 -14 10 -4 9 -8 -2 -17 -12
-9 -9 -10 15 -5 34 7 31 4 -43 -49 -62 -45 -70 -59 -9 -18 23 16 55 32 72 36
29 7 29 7 10 -14 -10 -11 -19 -30 -20 -41 -2 -19 -1 -19 21 2 16 15 22 17 20
6 -1 -8 -8 -22 -15 -31 -13 -15 -11 -16 15 -6 27 9 28 9 10 -5 -23 -18 -14
-20 16 -4 15 8 19 8 14 0 -9 -15 39 -14 67 0 16 8 12 1 -13 -26 -33 -35 -33
-37 -10 -30 14 4 31 12 38 18 10 8 9 0 -3 -28 -9 -22 -19 -46 -22 -53 -4 -8 0
-10 13 -5 12 4 15 3 10 -6 -6 -9 2 -8 22 3 31 16 37 8 18 -22 -6 -10 0 -9 22
2 43 22 49 20 22 -9 -13 -14 -20 -25 -15 -25 5 0 -2 -12 -16 -26 l-24 -27 25
13 c23 12 24 12 11 -3 -12 -15 -11 -17 7 -17 15 0 19 -5 15 -20 -4 -15 -2 -19
10 -14 27 10 8 -34 -27 -61 l-31 -25 33 4 c18 2 42 12 53 22 18 16 19 16 13 1
-4 -10 -1 -17 6 -17 9 0 6 -8 -6 -21 l-19 -22 25 13 c24 13 25 12 8 -7 -10
-11 -18 -26 -18 -34 0 -8 -5 -20 -10 -25 -7 -7 -4 -10 12 -10 23 1 23 -1 10
-48 -4 -14 -2 -17 9 -11 11 7 12 6 2 -6 -8 -10 -9 -19 -3 -25 6 -6 0 -24 -16
-48 -27 -39 -23 -39 30 -3 l29 20 -19 -29 c-18 -29 -18 -29 1 -14 15 11 15 8
-3 -12 -16 -17 -20 -28 -12 -33 8 -5 7 -11 -2 -23 -10 -12 -10 -14 0 -8 19 11
14 -5 -8 -29 -19 -20 -19 -21 0 -21 10 0 17 4 14 7 -2 4 -1 10 4 13 15 9 10
-28 -7 -48 -16 -19 -15 -19 14 0 24 15 28 16 17 2 -9 -12 -10 -18 -2 -23 6 -4
8 -14 5 -24 -13 -30 -23 -81 -16 -76 9 5 7 -92 -2 -102 -4 -3 3 -14 14 -24 19
-16 19 -19 5 -48 -12 -22 -13 -32 -4 -37 7 -5 8 -2 3 7 -6 11 -5 11 5 2 10 -9
10 -19 1 -45 l-11 -33 21 25 21 25 -5 -44 c-3 -24 0 -71 6 -105 15 -84 15
-147 0 -173 -11 -19 -11 -23 1 -23 10 0 13 -8 10 -27 -3 -15 -7 -30 -9 -33 -2
-4 2 -30 10 -59 7 -29 11 -60 8 -69 -4 -10 -2 -13 5 -8 9 5 12 -13 13 -66 1
-40 3 -91 4 -113 1 -22 -3 -58 -7 -80 -15 -67 -17 -106 -6 -99 6 4 8 -1 4 -12
-3 -11 -8 -37 -12 -59 -3 -22 -9 -44 -12 -49 -3 -5 -6 -98 -8 -207 -1 -122 -7
-205 -13 -218 -8 -15 -9 -21 -1 -21 11 0 9 -74 -2 -86 -4 -3 -4 -22 -1 -42 8
-59 5 -77 -20 -115 -19 -29 -68 -77 -79 -77 -3 0 -35 -13 -70 -29 -35 -16 -83
-32 -108 -36 -59 -9 -122 -26 -137 -38 -7 -5 -28 -9 -48 -9 -28 0 -35 -4 -35
-19 0 -10 -7 -19 -15 -19 -8 0 -15 -7 -15 -15 0 -8 -5 -15 -11 -15 -6 0 -9 -7
-6 -15 4 -8 2 -17 -2 -20 -10 -6 -9 -80 1 -91 9 -8 28 37 30 73 2 14 11 29 21
35 15 8 18 7 11 -4 -5 -7 -9 -22 -10 -33 -1 -11 -4 -27 -8 -36 -7 -16 -11 -94
-8 -152 1 -16 6 -25 12 -22 6 3 10 1 10 -6 0 -8 6 -6 18 4 21 19 37 23 26 6
-4 -7 1 -10 12 -7 11 2 20 12 21 23 1 11 4 30 7 42 3 14 0 23 -7 23 -7 0 -1 9
12 19 25 19 37 51 19 51 -6 0 -4 7 3 17 8 9 13 19 12 22 -5 11 8 41 17 41 6 0
6 -10 1 -23 -4 -12 -7 -30 -6 -39 2 -10 0 -20 -5 -23 -4 -2 -6 -17 -4 -32 1
-15 -4 -36 -13 -45 -9 -10 -12 -18 -6 -18 5 0 9 -17 9 -37 -1 -21 3 -38 7 -38
5 0 12 -7 17 -15 8 -15 85 -22 85 -9 0 4 8 15 17 25 13 15 15 28 9 61 -5 23
-4 48 0 55 13 19 11 30 -3 22 -7 -5 0 9 15 29 15 20 25 37 21 37 -4 0 1 9 10
19 13 15 14 20 4 24 -8 4 -7 6 5 6 9 1 17 5 17 9 0 5 23 14 50 21 32 8 48 17
44 24 -5 8 -2 7 7 -1 16 -14 43 -16 34 -2 -4 6 11 10 36 10 40 0 41 1 23 15
-18 14 -17 14 15 15 67 0 193 42 176 58 -3 3 0 12 7 19 9 11 9 16 -1 22 -10 6
-9 10 3 14 16 6 23 28 9 26 -20 -3 -24 2 -14 15 6 8 13 27 15 42 3 16 8 38 12
48 5 14 4 17 -4 12 -9 -5 -9 0 -1 21 6 15 13 64 15 108 6 119 14 224 20 275 8
62 13 116 18 175 2 28 14 72 25 98 12 27 19 53 16 58 -9 14 26 170 45 201 l18
29 6 -24 c3 -14 -3 -75 -14 -137 -12 -62 -19 -115 -16 -117 2 -3 -4 -28 -14
-57 -10 -29 -21 -91 -25 -137 -4 -46 -9 -102 -11 -124 -8 -72 -12 -149 -14
-242 0 -50 -5 -106 -10 -124 -6 -20 -6 -35 0 -39 5 -3 5 -11 0 -20 -6 -8 -10
-26 -10 -41 0 -14 -5 -30 -12 -37 -9 -9 -7 -13 6 -18 16 -6 16 -8 0 -25 -12
-13 -13 -19 -4 -19 9 0 9 -4 2 -12 -6 -7 -10 -17 -10 -23 1 -17 -51 -37 -130
-49 -68 -10 -73 -13 -51 -23 23 -11 22 -12 -13 -12 -21 -1 -38 -6 -38 -12 0
-6 -6 -9 -13 -6 -16 6 -93 -13 -126 -32 -17 -9 -20 -15 -12 -21 9 -5 8 -9 -4
-14 -9 -3 -14 -10 -10 -16 3 -5 -3 -20 -14 -32 -23 -24 -28 -44 -8 -31 6 4 4
-5 -6 -20 -9 -15 -14 -27 -9 -27 5 0 6 -14 4 -31 -3 -22 -1 -30 7 -25 16 11
13 -10 -4 -24 -8 -7 -15 -18 -15 -25 0 -8 -6 -16 -12 -18 -7 -3 -5 -6 6 -6 18
-1 18 -2 1 -21 -17 -18 -17 -20 -1 -20 14 0 15 -4 6 -20 -7 -14 -7 -20 0 -20
5 0 10 -7 10 -16 0 -8 4 -12 10 -9 6 3 10 -3 10 -14 0 -14 5 -19 20 -16 11 2
20 0 20 -5 0 -5 7 -7 15 -4 11 5 14 1 9 -12 -4 -12 3 -8 20 11 14 17 25 26 26
20 0 -5 8 5 18 24 9 19 24 37 32 39 11 4 11 0 -3 -21 -16 -25 -16 -27 -1 -27
13 0 11 -4 -7 -20 -14 -11 -18 -19 -11 -20 7 0 10 -4 7 -10 -3 -5 -2 -10 4
-10 6 0 7 -7 4 -17 -4 -11 -3 -14 5 -9 7 4 12 3 12 -3 0 -7 8 -7 25 -1 20 7
25 6 25 -5 0 -8 3 -15 6 -15 22 0 92 26 109 41 26 23 92 59 108 59 6 0 0 -7
-13 -16 -51 -34 -61 -74 -19 -74 10 0 19 -5 19 -11 0 -5 5 -7 11 -3 6 3 14 1
18 -5 6 -8 15 -9 33 -2 53 20 143 22 245 7 134 -21 212 -21 242 0 19 14 25 14
32 3 6 -11 9 -10 15 4 3 9 3 24 0 33 -4 10 -2 13 6 8 7 -5 9 1 4 20 -4 15 -2
26 4 26 5 0 10 7 10 16 0 13 7 15 32 12 l32 -5 -30 24 -29 25 28 -5 c15 -2 27
-1 27 2 0 4 -12 14 -27 23 l-28 17 40 1 c22 0 67 -7 99 -14 l59 -14 -40 36
c-22 21 -32 32 -24 26 40 -28 44 -25 15 11 -46 60 -50 70 -20 50 15 -10 28
-16 31 -14 2 3 -10 26 -26 52 -35 57 -64 127 -73 182 l-8 40 31 -29 c17 -17
31 -27 31 -25 0 3 -13 33 -30 67 -34 70 -49 128 -50 185 0 37 0 38 22 23 39
-28 49 -19 26 21 -12 20 -16 33 -9 29 10 -7 11 -3 6 14 -6 20 -4 22 19 18 l26
-5 -30 52 c-17 29 -30 55 -30 58 0 3 15 1 32 -4 46 -13 55 -11 32 6 -18 13
-18 14 6 9 19 -3 17 0 -10 13 l-35 17 45 6 c41 5 43 6 18 13 -16 4 -28 12 -28
18 0 6 5 7 11 4 6 -4 27 -4 47 0 l37 8 -40 12 c-33 11 -36 13 -15 15 24 1 24
2 4 10 -36 14 -35 26 1 22 43 -5 53 13 24 44 -22 24 -14 35 9 12 21 -21 22 -3
1 36 -20 37 -20 38 0 31 26 -8 37 12 17 34 -24 26 -20 30 22 25 33 -5 35 -4
20 9 -22 17 -23 28 -3 21 8 -4 15 -3 15 0 0 4 -10 10 -22 15 -21 8 -19 9 16
16 39 8 39 8 15 21 -22 12 -22 13 -4 14 19 1 19 1 2 14 -16 12 -16 14 -1 20 8
3 25 6 37 7 17 0 13 5 -18 20 -35 17 -36 19 -12 15 21 -2 27 0 23 10 -7 17 6
18 22 2 8 -8 12 -9 12 -1 0 6 -11 20 -25 31 -31 25 -31 32 -2 33 21 0 21 1 2
10 -14 6 -2 8 40 4 l60 -5 -65 24 c-46 17 -58 25 -40 26 22 1 23 2 6 9 -20 8
-18 9 59 36 15 6 17 8 5 12 -43 13 -45 16 -20 23 23 7 21 8 -17 15 -24 4 -43
11 -43 14 0 4 15 15 32 24 25 12 28 16 13 16 -16 1 -13 6 15 22 19 12 53 28
75 35 l40 13 -72 -2 c-75 -2 -82 3 -33 23 16 7 30 16 30 21 0 5 12 9 26 9 14
0 23 4 19 10 -3 6 -30 10 -58 11 -36 0 -46 3 -32 8 l20 8 -20 5 c-18 4 -17 6
7 16 14 6 29 16 33 21 3 6 21 12 38 12 21 1 9 5 -33 13 l-65 11 35 22 c19 12
47 25 63 28 15 4 27 11 27 16 0 5 24 10 53 10 l52 1 -45 11 c-25 6 -47 13 -50
17 -3 4 -14 10 -25 15 -18 7 -17 9 10 15 17 3 29 11 27 18 -1 8 14 12 46 12
46 0 49 2 66 36 9 20 15 39 12 42 -3 3 -8 -3 -12 -12 -3 -9 -10 -16 -16 -16
-5 0 -6 5 -2 11 5 8 -1 10 -17 6 -13 -3 -42 0 -64 7 l-40 12 28 7 c16 5 38 5
49 1 14 -4 18 -2 14 5 -4 6 -14 11 -22 11 -8 0 -13 4 -10 9 3 5 -9 12 -27 15
-27 6 -30 8 -14 17 12 7 35 5 78 -5 33 -9 63 -16 65 -16 3 0 0 -9 -6 -20 -8
-16 -8 -20 4 -20 10 0 12 -7 8 -22 -4 -15 -2 -19 7 -13 10 6 11 3 1 -16 -18
-35 -23 -38 -16 -9 6 22 5 23 -5 7 -8 -14 -8 -22 1 -30 8 -9 13 -8 20 3 30 51
36 45 10 -10 -16 -36 -24 -57 -18 -46 7 10 21 28 31 40 17 20 18 20 13 1 -2
-11 -7 -36 -11 -55 -6 -35 -6 -35 9 -10 9 14 15 35 16 48 0 13 4 20 10 17 6
-4 17 10 25 29 9 20 18 36 20 36 8 0 -5 -50 -26 -99 -17 -38 -17 -42 -2 -30 9
8 29 34 45 58 38 60 36 32 -3 -37 -16 -30 -26 -51 -20 -47 6 3 23 26 37 51 15
25 29 43 31 40 9 -9 -18 -74 -48 -115 -16 -23 -25 -41 -21 -41 16 0 61 55 80
98 19 43 19 43 25 15 3 -15 -1 -44 -9 -63 l-14 -35 20 25 c25 32 25 20 0 -33
-27 -55 0 -22 43 52 32 57 47 55 27 -4 -6 -19 -8 -40 -4 -46 5 -8 3 -9 -6 -4
-9 6 -10 2 -5 -15 4 -13 3 -20 -2 -17 -5 3 -9 -3 -9 -14 0 -22 3 -19 40 36 31
48 34 27 6 -47 -13 -35 -15 -47 -6 -34 8 10 19 15 24 12 6 -3 31 18 57 46 52
59 53 58 9 -27 -29 -57 -60 -153 -51 -161 2 -3 12 16 21 41 10 25 22 42 28 39
5 -4 28 11 51 32 23 22 33 29 23 17 -27 -33 -7 -28 43 9 36 26 42 28 32 11 -6
-12 -30 -39 -53 -60 -24 -21 -39 -35 -33 -30 13 10 27 9 20 -3 -3 -6 1 -7 9
-4 28 11 17 -4 -20 -26 -19 -12 -33 -24 -30 -27 5 -6 83 42 114 70 12 11 22
16 22 10 0 -5 -9 -18 -20 -28 -11 -10 -18 -20 -16 -22 6 -6 47 16 74 40 28 26
29 11 0 -20 -25 -27 -34 -71 -11 -51 8 6 11 18 8 27 -3 8 -3 12 1 8 4 -4 21 5
38 20 17 16 23 19 13 7 -26 -32 -20 -40 10 -13 l26 24 -23 -33 c-14 -19 -27
-28 -30 -21 -7 10 -24 -12 -57 -71 l-15 -25 19 24 c10 14 26 34 36 45 18 20
18 20 12 2 -5 -19 -5 -19 12 -4 10 9 21 16 25 15 3 -1 10 2 15 7 5 5 2 6 -6 1
-10 -6 -12 -4 -7 4 5 7 11 10 14 7 3 -3 14 1 24 11 31 28 20 5 -19 -39 l-38
-42 34 24 c81 60 76 59 56 20 l-17 -35 42 40 c28 26 38 32 31 18 -6 -12 -16
-25 -21 -28 -6 -4 -8 -16 -5 -28 5 -16 4 -18 -3 -8 -8 11 -12 9 -23 -10 -11
-22 -11 -23 4 -10 10 7 17 10 17 6 0 -4 21 11 47 32 76 62 79 60 19 -13 -62
-77 -74 -105 -22 -55 21 21 39 30 47 26 7 -5 10 -4 7 1 -3 5 6 18 20 28 25 19
24 18 -8 -40 -19 -33 -27 -53 -17 -45 9 7 17 10 17 5 0 -5 25 16 56 46 52 51
55 53 39 21 -10 -19 -40 -59 -68 -88 -53 -56 -54 -68 -3 -30 56 42 61 42 26
-3 -19 -24 -29 -41 -23 -37 48 30 70 6 58 -65 -4 -23 -8 -69 -10 -103 -1 -34
-5 -66 -8 -71 -3 -6 -2 -16 3 -24 5 -8 4 -22 -2 -33 -9 -17 -8 -19 7 -13 15 5
16 4 5 -9 -11 -13 -10 -14 5 -9 17 7 17 6 0 -20 -15 -22 -15 -25 -2 -20 12 4
15 -1 13 -21 -2 -14 -6 -28 -9 -31 -3 -3 -1 -17 4 -31 5 -14 6 -30 2 -36 -4
-7 -8 -18 -10 -26 -6 -43 -87 -66 -258 -74 -66 -3 -133 -11 -148 -16 -41 -16
-244 -18 -259 -3 -14 14 -32 16 -23 2 9 -15 -8 -12 -34 7 -15 10 -21 11 -16 3
9 -15 -1 -10 -47 22 -17 11 -28 15 -28 8 0 -7 -6 -5 -16 4 -20 21 -30 21 -13
0 12 -15 11 -16 -9 -10 -12 4 -40 9 -62 11 -23 3 -45 7 -50 10 -6 3 -7 -1 -4
-9 5 -13 -1 -16 -28 -16 -19 0 -52 -8 -74 -19 -21 -10 -55 -22 -74 -26 -19 -5
-29 -10 -21 -13 10 -3 8 -10 -10 -24 -20 -17 -21 -19 -4 -13 15 5 12 -2 -13
-28 -28 -28 -34 -43 -37 -88 -2 -30 -8 -67 -14 -82 -6 -16 -8 -34 -4 -39 3 -6
6 -39 5 -72 l-1 -61 20 40 c17 35 18 36 13 10 -8 -36 -8 -35 -6 -105 2 -46 4
-52 16 -40 7 8 21 37 29 64 14 42 14 46 1 36 -13 -11 -13 -10 -5 13 6 15 8 33
5 40 -2 7 7 30 20 50 14 20 20 37 14 37 -6 0 -3 9 7 20 19 21 33 20 19 -2 -5
-7 -9 -17 -9 -23 -1 -5 -6 -22 -12 -36 -6 -14 -10 -45 -8 -70 1 -24 -1 -63 -5
-86 -4 -24 -3 -40 1 -37 5 3 9 -14 9 -38 0 -29 3 -39 9 -29 7 11 10 7 13 -15
2 -23 8 -29 28 -29 14 0 30 -6 36 -14 7 -8 13 -10 17 -4 9 14 165 7 212 -10
26 -9 50 -11 69 -6 17 5 37 4 48 -2 10 -6 28 -7 38 -4 12 4 20 2 20 -5 0 -8
11 -11 30 -8 16 2 31 0 33 -6 3 -8 16 -8 45 0 23 6 39 7 36 3 -10 -16 14 -9
96 26 44 20 84 34 89 31 5 -3 24 0 42 8 58 24 82 29 75 17 -4 -6 10 -4 35 4
22 8 45 13 50 10 4 -3 13 3 18 14 14 26 14 34 -1 25 -7 -4 -2 5 11 19 14 15
20 27 15 27 -4 0 19 26 52 59 34 32 64 66 67 75 7 16 47 23 47 7 0 -5 -11 -16
-25 -25 -14 -9 -25 -22 -25 -29 0 -6 -16 -23 -36 -36 -19 -13 -33 -30 -30 -37
3 -7 -2 -18 -10 -25 -8 -6 -12 -14 -10 -17 3 -2 1 -13 -5 -24 -13 -24 -21
-108 -11 -108 4 0 6 -19 4 -41 -3 -29 -1 -40 7 -35 7 5 11 -4 11 -26 0 -25 3
-29 10 -18 8 13 10 12 10 -4 0 -16 3 -17 13 -8 13 14 18 43 17 104 0 25 7 45
24 65 14 15 26 23 26 16 0 -6 -4 -14 -8 -17 -5 -3 -8 -52 -6 -108 2 -57 3
-109 4 -116 0 -7 4 -10 10 -7 6 3 10 1 10 -5 0 -6 4 -8 10 -5 6 3 10 -1 10 -9
0 -44 45 -22 54 26 2 15 8 33 11 38 4 6 8 21 10 33 7 45 11 54 32 80 26 34 39
35 17 2 -9 -14 -14 -25 -10 -25 3 0 1 -11 -4 -25 -6 -16 -6 -25 1 -25 6 0 6
-6 -1 -19 -5 -11 -10 -36 -10 -56 0 -29 3 -36 15 -31 13 4 13 2 5 -14 -14 -26
-13 -33 5 -26 9 3 15 0 15 -10 0 -10 6 -14 15 -10 9 3 15 0 15 -10 0 -10 5
-12 12 -7 15 9 58 6 113 -9 22 -5 49 -12 60 -15 30 -6 37 -9 70 -22 23 -9 35
-9 55 0 14 6 63 13 110 15 85 3 104 5 170 19 19 4 42 7 50 7 8 1 22 6 30 13
26 21 50 26 43 8 -5 -13 -3 -13 23 0 29 15 81 30 143 41 29 5 32 4 21 -9 -15
-19 -6 -19 53 -1 26 8 47 10 47 5 0 -5 13 -3 30 6 16 8 42 20 56 26 25 9 26 8
13 -7 -13 -16 -11 -17 13 -11 15 4 55 10 89 14 50 5 61 4 54 -7 -6 -10 0 -12
31 -8 21 4 48 10 59 14 17 7 18 6 7 -8 -18 -23 9 -27 94 -16 44 7 108 7 179 0
61 -5 146 -9 190 -8 44 1 88 -2 97 -6 14 -7 16 -5 11 7 -6 18 20 16 128 -11
68 -17 72 -17 64 -4 -9 14 19 12 34 -2 10 -11 11 -9 5 5 -6 18 -4 17 34 -2 51
-26 55 -26 42 -1 -11 21 -5 22 144 4 41 -5 57 -4 52 4 -4 7 4 8 29 1 19 -6 40
-7 45 -4 5 3 28 -6 51 -21 31 -19 40 -22 36 -10 -7 19 17 21 56 7 19 -8 27 -6
31 5 8 21 75 18 114 -6 18 -11 32 -15 32 -9 0 8 5 7 15 -1 12 -10 15 -10 15 1
1 8 7 3 14 -10 10 -19 14 -20 19 -8 5 14 15 13 79 -7 40 -13 82 -27 93 -32 18
-7 18 -6 6 9 -14 17 -3 24 14 9 6 -5 27 -19 49 -32 l38 -23 -7 22 c-6 20 -5
22 13 12 36 -19 95 -13 135 14 20 14 37 27 37 29 0 2 -12 1 -27 -1 -18 -2 -2
9 40 30 66 33 127 81 127 101 0 6 -5 5 -12 -2 -7 -7 -17 -12 -22 -12 -6 1 7
17 29 36 24 21 32 33 20 29 -17 -5 -16 -3 5 21 21 22 22 26 6 20 -16 -5 -17
-4 -6 9 10 12 10 15 -1 15 -7 0 5 15 27 34 39 34 82 96 67 96 -5 0 -14 -5 -21
-12 -15 -15 -15 -8 -2 27 7 17 7 24 0 20 -16 -10 -12 7 11 49 18 34 18 38 4
32 -13 -5 -16 -2 -11 10 3 9 9 34 13 56 4 30 3 39 -5 34 -8 -5 -12 5 -13 31
-1 38 -15 97 -19 78 -1 -5 -8 10 -14 35 -7 25 -18 44 -24 42 -7 -1 -12 7 -12
19 0 24 -26 53 -40 44 -5 -3 -10 -2 -10 4 0 5 -16 15 -35 22 -27 10 -32 16
-23 26 8 10 6 13 -6 13 -9 0 -16 7 -16 15 0 8 -5 15 -11 15 -5 0 -7 5 -4 10 4
6 -7 15 -24 21 -27 10 -37 25 -32 52 1 4 -10 13 -24 19 -14 6 -25 17 -25 25 0
7 -5 13 -11 13 -16 0 -72 60 -57 60 7 0 5 5 -5 11 -9 6 -15 14 -12 19 3 5 -6
12 -21 16 -19 5 -22 9 -12 15 17 11 31 11 24 0 -4 -5 8 -12 25 -16 20 -5 27
-10 19 -15 -8 -5 -7 -9 5 -14 9 -3 13 -10 10 -16 -3 -5 -2 -10 4 -10 5 0 12
-9 16 -19 3 -10 17 -22 31 -25 14 -4 22 -11 19 -16 -4 -6 7 -16 24 -23 17 -7
29 -16 25 -19 -11 -12 16 -46 41 -52 14 -4 23 -11 20 -15 -3 -5 9 -21 27 -35
18 -14 27 -26 20 -26 -7 0 -10 -4 -7 -10 3 -5 15 -10 25 -10 10 0 26 -7 35
-16 9 -9 19 -14 22 -10 10 9 43 -35 43 -58 0 -17 2 -18 10 -6 7 11 12 3 21
-32 7 -26 16 -45 20 -42 12 7 42 -147 36 -187 -4 -31 -2 -37 10 -32 14 5 14 4
0 -18 -22 -36 -32 -73 -16 -64 9 6 10 4 6 -8 -22 -54 -22 -53 -4 -38 22 18 32
8 18 -17 -15 -27 -14 -32 5 -32 8 0 12 5 9 10 -4 6 9 10 32 10 26 0 33 3 24 9
-9 6 3 11 38 16 28 4 54 13 59 20 4 8 55 17 142 25 84 8 127 16 115 20 -15 6
-6 10 35 16 45 6 50 9 30 14 l-25 7 30 9 c17 5 65 9 107 9 43 0 78 1 78 3 0 1
-10 6 -22 11 -18 7 -9 10 42 16 41 5 58 10 46 14 -20 8 152 48 251 59 50 5 54
7 28 13 -68 15 105 7 203 -9 56 -10 102 -16 102 -14 0 1 -14 8 -31 14 -48 17
-28 19 31 3 30 -8 64 -15 75 -14 19 0 18 1 -4 17 -13 9 -38 23 -55 30 l-31 12
35 -6 c19 -4 49 -7 65 -9 17 -1 46 -10 65 -20 l35 -18 -24 27 c-14 14 -21 29
-17 33 5 6 89 -16 161 -41 13 -5 7 4 -15 23 -20 18 -28 31 -20 31 21 0 82 -38
102 -63 24 -30 22 -9 -2 31 -11 17 -17 32 -13 32 3 0 37 -22 75 -50 70 -51 83
-49 48 8 -11 17 -18 32 -15 32 3 0 44 -18 91 -40 92 -42 119 -47 60 -10 -20
12 -36 23 -36 26 0 4 43 -12 72 -27 18 -10 20 -9 15 5 -6 15 -4 15 19 0 14 -9
29 -26 35 -36 6 -11 13 -17 16 -15 2 3 0 15 -7 26 -6 12 -8 21 -5 21 10 0 65
-43 65 -52 0 -16 -42 -28 -132 -38 -51 -5 -122 -19 -158 -30 -60 -19 -62 -20
-20 -15 l45 5 -68 -29 c-84 -36 -169 -90 -161 -102 3 -5 -1 -6 -9 -3 -8 3 -18
0 -22 -6 -3 -6 -3 -10 2 -9 46 8 37 -7 -22 -36 -78 -37 -81 -43 -11 -19 59 20
72 12 14 -10 l-43 -16 55 5 55 4 -55 -18 -55 -19 58 -1 c31 -1 57 -5 57 -11 0
-5 17 -10 38 -11 20 0 46 -4 57 -9 15 -6 6 -9 -35 -10 l-55 -2 60 -13 c33 -8
94 -17 135 -21 41 -4 82 -10 90 -15 9 -5 -8 -6 -40 -3 -42 4 -51 3 -38 -6 10
-6 73 -10 160 -9 193 1 222 0 453 -12 350 -20 362 -21 340 -30 -12 -5 16 -6
68 -2 64 4 87 3 87 -6 0 -12 55 -10 160 5 23 3 30 2 21 -4 -9 -7 0 -11 30 -16
40 -6 131 12 203 40 15 6 17 4 11 -7 -5 -8 8 -1 28 14 35 26 52 26 25 -1 -8
-8 -8 -12 -1 -12 6 0 27 18 46 39 27 30 37 36 39 24 2 -11 19 7 47 48 23 35
41 56 38 47 -4 -12 -1 -16 14 -13 10 2 19 -2 19 -8 1 -20 52 84 66 133 11 41
12 42 14 15 2 -30 2 -30 10 -5 4 14 9 45 9 70 1 33 4 41 11 30 11 -18 13 -11
11 55 l-1 40 16 -28 c24 -44 27 -26 5 32 -18 49 -13 70 8 34 24 -42 8 14 -24
84 -27 58 -31 74 -18 69 14 -6 14 -4 -2 14 -18 20 -18 20 -1 14 16 -6 17 -4 8
12 -6 10 -22 30 -36 43 -29 27 -35 50 -8 31 9 -7 2 2 -17 20 l-35 33 30 -7
c35 -9 32 -5 -26 29 -39 23 -31 26 19 7 32 -12 -1 16 -38 33 -22 10 -38 21
-35 26 2 4 -8 15 -23 23 -16 9 -21 16 -13 16 8 1 -3 10 -25 21 -22 12 -44 26
-50 33 -5 6 -26 21 -45 34 l-35 22 45 0 45 1 -70 19 c-38 10 -74 19 -80 20 -5
0 -3 5 5 10 13 8 12 10 -3 10 -10 0 -16 4 -13 9 4 5 -17 15 -46 22 -43 11 -47
15 -27 20 21 5 18 9 -32 31 -64 29 -82 48 -47 49 23 1 23 1 -2 9 l-25 8 25 2
c29 3 22 4 -80 21 -64 11 -71 14 -45 20 l30 7 -27 1 c-16 0 -28 5 -28 10 0 5
-19 12 -42 16 l-43 8 38 7 c65 12 53 20 -29 20 -50 0 -74 4 -65 9 10 6 -3 13
-43 21 -31 6 -56 13 -56 16 0 3 10 9 23 14 17 7 11 8 -23 5 -42 -5 -44 -4 -21
9 23 13 20 14 -40 14 -36 0 -80 3 -99 8 l-35 8 30 7 c30 7 30 7 -7 8 -23 1
-40 7 -46 18 -5 9 -22 17 -38 18 -16 1 -49 8 -74 15 -43 11 -44 13 -25 27 21
16 16 16 -32 -4 -11 -4 -14 -3 -9 5 5 9 -9 12 -51 12 l-58 0 30 25 30 25 -37
-15 c-50 -20 -83 -20 -48 0 25 14 25 14 -10 9 -34 -6 -34 -6 -15 10 19 16 17
17 -45 11 -68 -6 -68 -5 -13 33 17 12 17 12 -2 3 -27 -12 -95 -30 -95 -25 0 2
18 13 39 24 22 11 43 25 47 31 5 8 1 8 -13 0 -11 -6 -23 -8 -26 -4 -4 3 -29
-4 -56 -16 -62 -26 -86 -27 -43 -1 34 21 43 34 15 23 -11 -4 -14 -3 -9 5 5 8
2 10 -9 5 -12 -4 -13 -8 -5 -13 8 -5 7 -9 -5 -13 -9 -4 -13 -3 -10 3 9 15 -8
12 -31 -5 -10 -8 -23 -15 -28 -15 -5 0 12 16 38 35 25 20 46 37 46 39 0 2 -31
-11 -68 -30 -65 -32 -138 -51 -126 -33 7 12 -3 11 -29 -2 -19 -9 -18 -7 3 10
26 22 45 28 35 11 -4 -6 1 -7 11 -3 13 5 15 3 9 -7 -5 -9 -4 -11 3 -6 16 10
15 14 -8 26 -15 8 -29 6 -62 -11 -38 -19 -41 -20 -28 -4 13 17 13 18 0 10 -8
-4 -27 -17 -42 -27 -48 -33 -43 -19 13 32 49 47 51 49 19 34 -19 -9 -52 -28
-72 -41 -47 -29 -56 -29 -32 0 10 12 -1 4 -25 -18 -35 -32 -41 -35 -31 -15 7
14 33 50 59 80 50 60 40 54 -71 -40 -48 -41 -50 -42 -30 -13 13 18 27 35 32
38 6 4 10 11 10 16 0 6 -30 -16 -67 -48 -63 -56 -65 -57 -48 -23 l17 35 -39
-42 c-38 -41 -63 -57 -46 -30 4 6 -5 4 -20 -6 -28 -18 -36 -11 -14 13 6 8 0 5
-14 -8 -33 -29 -48 -29 -23 1 48 54 43 58 -10 7 -33 -32 -54 -47 -50 -35 l7
20 -23 -20 -24 -20 18 29 c10 16 27 45 38 65 l20 36 -22 -25 c-12 -14 -34 -38
-47 -55 -14 -16 -22 -23 -18 -15 5 8 -12 -4 -37 -28 -45 -43 -66 -47 -47 -8 6
11 -7 1 -28 -23 -22 -24 -46 -46 -54 -47 -8 -2 -45 -14 -84 -28 -38 -14 -88
-27 -110 -30 -22 -2 -49 -7 -60 -11 l-20 -7 20 17 c20 17 20 17 -4 10 -18 -5
-22 -4 -16 6 5 7 -7 1 -26 -13 -48 -35 -64 -44 -55 -29 6 9 -2 8 -26 -2 -22
-9 -63 -12 -128 -10 -111 4 -120 4 -140 1 -51 -5 -110 3 -110 16 0 7 -13 16
-30 19 -21 5 -28 11 -24 21 4 10 -6 20 -30 30 -20 8 -36 21 -36 27 0 7 -15 26
-32 42 -24 20 -27 27 -13 22 14 -4 9 4 -15 25 -23 21 -28 29 -15 25 17 -5 17
-3 -4 19 -16 17 -20 26 -11 26 9 0 7 5 -6 15 -12 9 -14 14 -6 15 19 0 5 18
-32 42 l-31 20 33 -6 c20 -3 31 -2 27 4 -3 6 -12 10 -20 10 -8 0 -17 5 -21 12
-5 8 -1 9 12 5 15 -6 14 -3 -5 13 -14 12 -18 20 -10 20 8 1 3 7 -10 14 -23 13
-23 14 -5 19 17 4 17 5 1 6 -10 0 -15 6 -12 11 3 6 -6 15 -22 22 l-28 12 32 4
c31 3 32 3 12 23 -10 10 -19 25 -19 33 0 8 -7 17 -16 20 -8 3 -13 10 -9 15 3
6 -7 17 -22 26 -24 14 -25 15 -5 12 35 -8 26 9 -15 26 -21 9 -30 16 -20 16 23
1 22 16 -3 41 -21 21 -27 35 -10 25 17 -11 11 5 -17 42 l-27 36 24 -7 c24 -7
24 -6 -5 18 -16 14 -26 26 -22 26 5 0 -21 42 -56 94 -36 52 -57 92 -49 88 9
-3 -3 17 -26 44 -41 49 -53 72 -30 58 6 -4 -2 13 -19 37 -35 52 -93 154 -93
163 0 4 5 4 10 1 17 -11 11 4 -25 57 -24 36 -31 55 -25 64 7 8 5 15 -5 24 -8
7 -15 17 -15 22 0 5 -13 26 -29 46 -34 44 -90 142 -71 125 29 -27 29 -11 -2
40 -17 28 -45 67 -62 85 -33 35 -31 37 10 22 25 -10 24 -8 -13 33 -23 24 -46
54 -53 67 -12 22 -11 22 22 -4 42 -32 63 -35 27 -3 -15 12 -48 46 -75 76 -40
45 -44 51 -19 35 l30 -18 -20 23 -20 24 23 -12 c36 -19 26 -4 -20 30 -41 30
-42 31 -13 25 25 -5 28 -4 14 6 -9 7 -15 20 -14 29 2 11 -11 23 -35 34 -22 10
-49 29 -62 42 l-23 25 29 -8 c21 -5 27 -4 22 5 -4 6 -1 11 6 11 7 0 -9 20 -37
45 -27 24 -44 44 -37 45 7 0 10 5 7 10 -3 6 -1 10 5 10 6 0 -5 14 -25 31 -38
33 -41 48 -6 29 35 -18 24 -3 -25 35 -47 35 -51 44 -11 24 12 -6 1 10 -26 36
-35 34 -41 45 -25 40 21 -7 21 -5 -7 25 -21 24 -25 31 -12 27 11 -4 31 -9 45
-12 18 -4 13 1 -15 14 -40 19 -61 37 -28 25 31 -12 13 5 -35 35 -28 17 -49 35
-46 40 3 5 -12 21 -34 36 -48 34 -47 41 5 20 54 -23 53 -13 -5 30 -27 20 -50
39 -50 42 0 3 17 -7 38 -23 l37 -29 -39 48 c-22 27 -60 67 -85 89 -26 23 -37
38 -26 34 16 -5 15 -3 -5 13 l-25 20 25 -6 c14 -3 -12 18 -58 47 -46 28 -81
54 -78 57 2 3 15 -2 28 -11 30 -21 44 -20 27 1 -12 16 -11 16 16 -1 43 -27
-96 108 -145 140 -45 30 -47 40 -6 24 54 -20 60 -9 11 20 -27 16 -63 41 -80
55 l-30 26 45 -6 c25 -4 54 -9 65 -12 45 -12 3 10 -52 27 -55 18 -56 19 -23
21 30 1 24 4 -35 19 -38 10 -60 19 -47 19 36 1 17 17 -30 27 l-43 8 60 6 60 5
-100 24 c-118 29 -112 38 12 17 48 -8 89 -13 91 -11 2 2 -49 20 -114 40 -159
49 -158 48 -86 55 75 8 85 15 41 29 l-34 11 38 -4 c67 -8 51 1 -93 55 -61 23
-70 28 -45 30 17 1 -5 7 -47 13 -88 14 -110 26 -52 27 21 1 50 5 64 9 17 6 9
7 -25 3 -59 -7 -56 1 11 28 l49 20 -40 -6 -40 -6 28 19 c16 11 28 23 27 28 -1
4 7 11 17 15 12 5 2 8 -27 8 -30 1 -40 4 -31 10 9 6 -16 11 -72 16 -47 4 -101
11 -119 15 -33 8 -33 8 10 9 45 1 51 21 7 21 -13 0 -31 3 -41 7 -17 6 -17 7 1
13 15 5 12 9 -16 23 -38 19 -30 22 20 7 68 -19 15 11 -60 35 -72 23 -73 23
-34 25 l40 2 -44 9 c-70 13 -72 19 -6 14 l60 -4 -68 18 c-38 11 -72 22 -75 26
-7 7 10 4 112 -21 32 -8 61 -12 63 -10 5 4 -98 45 -120 47 -7 1 6 5 28 8 38 6
35 8 -65 32 l-105 26 43 18 c31 13 40 20 30 26 -7 5 -20 8 -28 8 -10 0 -9 -3
5 -10 17 -8 17 -9 -5 -4 -14 2 -32 5 -40 5 -8 1 1 10 20 21 19 11 27 18 18 15
-9 -3 -34 -7 -55 -10 l-38 -6 40 19 40 20 -49 0 c-53 1 -54 16 -1 24 17 2 -1
5 -39 6 -68 1 -81 14 -26 24 15 2 5 5 -25 7 l-50 2 50 13 50 13 -55 2 c-30 1
-49 4 -42 7 26 10 10 23 -38 29 -40 5 -48 9 -39 20 6 7 27 15 47 17 20 3 7 3
-30 2 -86 -3 -99 16 -27 40 28 10 48 19 46 21 -5 5 -80 -10 -113 -22 -36 -13
13 33 60 55 38 19 39 21 14 21 -15 0 -47 -6 -70 -14 -24 -8 -61 -16 -83 -20
l-40 -5 30 13 30 14 -35 4 c-32 3 -29 6 45 30 76 26 78 27 30 22 -27 -3 -66
-10 -85 -15 -56 -14 -68 -9 -25 11 l40 19 -60 1 c-46 2 -53 4 -30 9 27 6 28 7
10 15 -18 7 -18 9 10 20 27 12 25 12 -32 8 -40 -3 -63 -1 -63 6 0 6 -8 13 -17
15 -10 3 5 6 32 7 62 2 51 6 -40 16 l-70 7 40 12 c22 7 33 14 25 15 -8 1 -1 6
15 10 19 5 -3 7 -55 4 -68 -3 -79 -2 -52 6 17 6 32 12 32 14 0 1 -25 1 -55 -2
-35 -3 -55 -1 -55 6 0 6 10 13 23 15 12 2 3 5 -21 6 -24 0 -41 5 -38 10 6 10
-65 21 -132 21 -54 0 -48 11 16 26 l47 12 -40 1 -40 2 30 14 c30 15 23 14 -37
-1 -19 -4 -15 2 17 33 22 21 39 41 38 45 -2 4 24 21 57 38 33 17 60 32 60 35
0 9 -55 -17 -150 -70 -94 -54 -135 -70 -95 -39 19 16 19 16 -5 9 -22 -7 -23
-6 -11 9 13 15 12 16 -13 6 -32 -12 -39 -13 -33 -2 3 4 -18 6 -46 5 l-52 -3
40 19 c43 21 37 27 -11 12 -16 -5 -47 -12 -69 -15 -37 -5 -39 -4 -20 10 19 14
17 15 -25 9 l-45 -5 60 29 c61 30 64 40 7 20 -36 -12 -166 4 -210 27 -26 13
-25 14 33 16 l60 2 -55 3 c-51 4 -98 23 -56 23 9 0 14 5 11 10 -4 6 6 11 22
11 15 1 -1 6 -37 12 l-65 11 65 11 65 11 -49 7 c-27 4 -72 7 -99 7 -52 0 -56
14 -7 23 20 3 18 5 -10 6 -30 2 -32 4 -15 12 15 7 6 8 -30 5 -43 -4 -47 -2
-31 9 9 7 41 17 69 21 l52 8 -74 7 c-40 4 -78 12 -84 18 -6 6 -22 11 -36 11
-21 0 -23 2 -11 10 12 8 10 10 -8 10 -13 0 -21 4 -17 9 3 6 -12 11 -32 13
l-38 4 37 17 c21 9 50 17 65 18 19 1 10 6 -29 16 -32 8 -55 19 -52 24 3 5 -10
10 -28 10 l-33 2 35 6 35 7 -50 9 c-43 7 -47 10 -25 16 20 6 16 7 -20 9 -35 1
-40 3 -25 10 11 5 34 9 50 10 18 2 23 4 13 7 -10 2 -18 8 -18 13 0 5 8 11 18
13 9 3 1 6 -18 7 l-35 2 34 9 c45 14 37 18 -38 20 l-63 2 37 34 36 33 -53 0
c-65 0 -137 18 -118 30 9 6 7 10 -9 15 -11 3 -21 11 -21 16 0 5 -12 9 -27 9
-33 0 -24 10 19 20 l33 8 -33 1 c-19 1 -31 5 -27 11 4 6 -8 10 -27 11 -18 0
-49 6 -68 13 -34 12 -34 13 -11 21 18 5 21 9 10 16 -10 6 -11 9 -1 9 27 0 9
18 -25 25 -34 6 -36 8 -20 20 15 11 7 12 -55 9 l-73 -4 24 20 c13 11 19 20 15
20 -5 0 -2 5 6 10 12 8 10 10 -10 10 -19 0 -22 2 -10 10 10 6 0 10 -35 12 -46
3 -48 4 -25 15 24 11 24 11 -18 18 -25 5 -39 11 -32 15 8 5 2 10 -14 14 -40
10 -31 26 17 27 39 1 37 2 -30 17 -79 19 -102 31 -57 33 27 1 26 2 -11 13
l-40 13 30 10 c31 11 32 11 -35 32 l-35 11 42 -4 c34 -3 42 0 46 15 4 15 -5
21 -49 34 -30 9 -54 17 -54 18 0 1 35 1 78 0 l77 -3 -53 14 c-60 15 -76 26
-41 27 16 1 10 5 -21 14 -25 7 -40 14 -35 15 6 1 -8 10 -30 21 -22 11 -32 17
-22 14 10 -3 44 -7 75 -10 l57 -5 -40 14 c-22 8 -36 14 -32 15 19 2 -25 32
-77 51 -66 25 -75 36 -38 45 l27 7 -25 13 c-24 14 -24 14 20 15 l45 1 -64 20
c-45 15 -60 23 -50 29 10 7 1 15 -34 30 -27 12 -47 28 -47 36 0 9 -9 18 -20
21 -27 7 -15 23 18 23 26 1 26 1 -7 15 -18 8 -47 15 -63 15 -17 0 -27 4 -23
10 3 6 18 10 33 10 l27 1 -30 14 c-16 7 -23 14 -15 15 8 1 2 6 -15 12 -25 10
-27 12 -11 18 13 4 -1 12 -48 24 -36 10 -69 22 -72 27 -3 5 32 10 78 10 l83 2
-85 11 c-78 11 -82 12 -50 20 24 6 29 10 17 13 -9 3 -15 8 -12 13 2 4 -10 11
-28 15 -28 6 -30 8 -12 15 75 30 73 29 38 29 -18 1 -33 6 -33 11 0 6 -5 10
-11 10 -6 0 -24 11 -41 25 -17 14 -42 25 -59 25 -16 0 -29 5 -29 10 0 6 11 10
25 10 38 0 30 18 -11 26 l-37 7 29 13 29 12 -35 2 c-34 1 -75 22 -64 32 3 4
-14 9 -38 14 -39 7 -40 8 -18 15 l25 7 -26 1 c-43 2 -44 28 -1 40 33 9 28 10
-37 7 -43 -2 -68 0 -60 5 8 5 22 9 32 9 9 0 17 4 17 9 0 5 10 12 23 16 18 7
14 9 -23 14 l-45 7 33 8 c42 10 37 15 -25 25 l-48 8 35 16 c28 13 30 16 13 17
-12 0 -29 3 -38 7 -14 5 -12 8 11 19 22 10 23 12 6 8 -13 -3 -40 -3 -60 1
l-37 7 25 14 c14 7 21 14 15 14 -5 0 -3 5 5 10 11 7 -1 10 -40 11 -30 0 -49 3
-42 6 19 7 4 23 -22 23 -25 0 -98 27 -106 40 -3 4 -14 10 -25 13 -18 4 -18 5
3 6 29 1 28 14 -3 31 -19 10 -22 17 -14 31 5 11 20 20 32 20 17 1 18 2 5 6
-10 2 -18 11 -18 19 0 8 -4 12 -10 9 -5 -3 -10 -1 -10 4 0 6 3 11 8 11 4 0 18
9 32 20 l25 20 -33 -11 c-39 -13 -51 -6 -31 17 13 16 12 16 -7 6 -28 -15 -38
-4 -21 22 19 29 31 80 17 71 -5 -3 -10 -1 -10 5 0 6 -5 8 -12 4 -12 -8 -7 4
24 49 19 27 19 27 -1 27 -15 0 -19 4 -14 18 4 9 14 23 22 30 14 11 14 11 -1 6
-26 -9 -40 4 -28 27 6 11 7 19 2 19 -14 0 -21 49 -12 81 8 27 7 29 -21 29 -24
0 -32 7 -48 43 -11 23 -25 69 -30 101 -6 33 -14 62 -19 65 -4 3 -8 17 -10 31
-3 31 -20 67 -49 103 -13 16 -23 34 -23 41 0 7 -9 23 -20 36 -11 13 -20 30
-20 37 0 8 -9 28 -20 44 -12 15 -28 52 -37 81 -8 29 -28 72 -44 96 -16 24 -29
45 -29 48 0 11 -55 84 -63 84 -5 0 -21 8 -35 18 -15 10 -36 16 -47 14z m-830
-912 c-3 -6 -17 -10 -31 -10 -33 0 -24 15 11 18 15 1 24 -2 20 -8z m-80 -10
c-3 -5 -14 -8 -25 -7 -24 2 -18 12 9 14 12 1 19 -2 16 -7z m80 -942 c13 -43
50 -51 67 -14 12 28 24 32 48 16 17 -10 17 -9 -34 -44 -44 -30 -100 -35 -110
-10 -3 9 -6 31 -6 50 0 44 23 45 35 2z m-753 -30 c5 -34 34 -34 46 -1 7 18 11
22 11 10 1 -19 -41 -67 -59 -67 -15 0 -34 46 -27 64 9 23 25 19 29 -6z m-393
-888 c26 -69 26 -76 -1 -26 -32 61 -58 145 -57 185 0 30 3 24 19 -34 10 -38
27 -95 39 -125z m1069 84 c116 -34 228 -94 299 -160 56 -54 56 -54 8 -16 -150
119 -272 171 -470 198 l-100 13 88 -5 c50 -3 127 -16 175 -30z m-971 -14 c17
0 21 4 17 18 -4 10 -3 13 3 6 14 -18 42 -24 69 -14 16 7 23 7 19 0 -3 -5 -25
-15 -48 -21 -50 -13 -104 0 -133 32 l-19 21 35 -21 c19 -11 45 -21 57 -21z
m-181 -8 c-15 -15 -15 -15 -4 10 7 15 15 23 17 17 2 -6 -4 -18 -13 -27z m1146
-66 c32 -13 80 -38 108 -56 30 -19 57 -30 66 -26 21 8 50 -14 34 -24 -8 -5 -1
-20 21 -46 l33 -39 -31 28 c-20 19 -44 29 -72 32 -36 3 -41 2 -30 -11 10 -12
9 -13 -6 -8 -20 8 -19 5 18 -51 l20 -30 -32 33 c-31 30 -60 44 -45 21 4 -8 -1
-9 -16 -4 -16 5 -20 4 -15 -5 4 -7 -5 -4 -19 5 l-27 18 22 11 c12 6 24 16 26
23 5 14 -67 57 -131 79 -26 9 -45 18 -43 20 8 8 112 -36 157 -66 50 -33 65
-37 56 -15 -5 13 -2 13 25 -1 17 -8 33 -13 36 -10 16 16 -107 95 -207 132 -19
7 -28 13 -20 13 8 0 41 -10 72 -23z m12 -188 c18 -25 15 -32 -11 -24 -10 3
-19 15 -20 26 -2 26 12 25 31 -2z m-14 -43 c0 -2 -11 0 -25 5 -18 7 -24 6 -22
-3 1 -8 -14 -12 -45 -13 -32 -1 -45 2 -42 11 5 12 39 14 50 2 11 -11 26 -8 19
3 -13 22 6 30 36 15 16 -9 29 -18 29 -20z m285 15 c10 -11 16 -20 13 -20 -3 0
-13 9 -23 20 -10 11 -16 20 -13 20 3 0 13 -9 23 -20z m-546 -76 c19 2 30 -1
28 -7 -4 -14 -37 -18 -58 -6 -12 6 -19 5 -22 -4 -4 -9 -7 -9 -18 1 -12 11 -12
14 1 22 9 5 19 5 26 -1 6 -5 25 -7 43 -5z m91 -3 c0 -5 -9 -11 -20 -14 -13 -3
-20 0 -20 9 0 8 9 14 20 14 11 0 20 -4 20 -9z m4530 -906 c-19 -14 -36 -25
-39 -25 -10 1 53 50 63 50 6 0 -5 -11 -24 -25z m-3950 -1509 c-4 -4 -16 -4
-26 2 -16 9 -14 10 8 9 15 -1 23 -6 18 -11z m195 -486 c-3 -5 -12 -10 -18 -10
-7 0 -6 4 3 10 19 12 23 12 15 0z m307 -400 c-23 -16 -44 -30 -48 -30 -12 0
10 23 40 41 48 30 54 22 8 -11z m78 -33 c0 -1 -21 -21 -47 -42 -36 -30 -43
-33 -28 -13 20 27 75 67 75 55z m10 -30 c0 -2 -13 -16 -30 -32 -16 -16 -30
-25 -30 -21 0 4 12 18 26 31 25 24 34 29 34 22z m40 -37 c-8 -6 -24 -16 -35
-22 -20 -11 -20 -11 -1 11 11 11 26 21 35 21 14 0 14 -2 1 -10z m-9 -38 c-5
-10 -18 -25 -27 -33 -16 -12 -17 -12 -9 1 10 18 37 50 42 50 2 0 -1 -8 -6 -18z
m56 -17 c0 -8 -10 -23 -21 -32 l-21 -18 19 23 c19 22 19 22 0 19 -10 -1 -26
-7 -34 -12 -13 -8 -13 -7 -1 8 7 9 17 15 21 12 5 -3 11 -1 15 5 9 15 22 12 22
-5z m3 -40 c-8 -9 -9 -15 -2 -15 6 0 14 5 17 10 3 6 11 10 18 10 6 0 1 -7 -11
-16 -26 -18 -49 -10 -31 12 6 8 14 14 16 14 3 0 0 -7 -7 -15z m120 -199 c0 -2
-8 -10 -17 -17 -16 -13 -17 -12 -4 4 13 16 21 21 21 13z m60 -19 c0 -2 -10
-12 -22 -23 l-23 -19 19 23 c18 21 26 27 26 19z m40 -52 c-7 -8 -17 -15 -22
-15 -6 0 -5 7 2 15 7 8 17 15 22 15 6 0 5 -7 -2 -15z m31 -35 c-10 -22 -21
-43 -25 -47 -8 -9 9 38 24 68 19 34 19 20 1 -21z m59 -46 c-8 -8 -23 -20 -34
-26 -19 -10 -18 -8 3 16 26 27 53 37 31 10z m60 3 c0 -2 -14 -16 -32 -33 l-31
-29 23 33 c20 27 40 42 40 29z m70 -101 c0 -2 -7 -7 -16 -10 -8 -3 -12 -2 -9
4 6 10 25 14 25 6z m5 -36 c-21 -16 -41 -30 -44 -30 -11 1 59 60 71 60 6 0 -6
-13 -27 -30z m56 -60 c-13 -11 -32 -20 -44 -20 -26 0 -15 12 26 27 44 16 45
15 18 -7z m-426 -20 c-3 -5 -12 -10 -18 -10 -7 0 -6 4 3 10 19 12 23 12 15 0z
m1880 -42 c21 -18 -22 -6 -45 12 l-25 21 30 -13 c17 -6 34 -15 40 -20z m-1435
8 c0 -2 -8 -10 -17 -17 -16 -13 -17 -12 -4 4 13 16 21 21 21 13z m1387 -32
c-3 -3 -12 -4 -19 -1 -8 3 -5 6 6 6 11 1 17 -2 13 -5z m-1357 -34 c-33 -26
-52 -25 -21 0 13 11 28 20 35 20 6 0 0 -9 -14 -20z m1360 -4 c0 -7 -102 -27
-108 -22 -2 3 11 9 29 15 36 10 79 14 79 7z m-1314 -57 c-8 -19 -38 -56 -67
-84 -29 -27 -45 -39 -36 -25 10 14 34 50 55 80 53 78 74 91 48 29z m1291 0
c-36 -21 -89 -40 -82 -29 8 13 64 38 85 39 11 0 11 -2 -3 -10z m-37 -70 c-39
-26 -114 -60 -102 -46 7 8 32 25 55 36 44 22 73 28 47 10z m-1277 -36 l-17
-28 29 25 29 25 -24 -34 c-13 -19 -26 -29 -28 -23 -2 7 -9 9 -14 6 -13 -8 -2
13 20 39 22 25 25 21 5 -10z m1301 16 c-4 -8 1 -9 16 -4 15 5 20 4 16 -4 -4
-6 -26 -11 -49 -11 -41 1 -42 1 -17 15 30 17 44 19 34 4z m2565 -66 c7 -27 14
-57 17 -68 5 -19 5 -19 -7 -1 -6 11 -15 33 -19 50 -4 17 -10 42 -15 55 -4 15
-3 21 3 17 5 -3 15 -27 21 -53z m68 -93 l4 -35 -17 30 c-16 29 -44 120 -43
140 1 20 51 -101 56 -135z m22 20 c0 -16 -9 -2 -24 39 -14 35 -25 69 -24 75 1
21 48 -89 48 -114z m-208 35 c20 -75 20 -80 1 -45 -21 38 -41 126 -22 100 5
-8 15 -33 21 -55z m-3747 20 c-16 -25 -44 -45 -61 -45 -7 1 67 69 75 70 1 0
-5 -11 -14 -25z m3796 -10 c1 12 9 -1 20 -30 26 -71 24 -87 -6 -40 -19 29 -24
33 -21 16 4 -13 2 -20 -3 -15 -4 5 -11 32 -15 59 -6 49 -5 50 9 20 12 -25 15
-26 16 -10z m177 -17 c-2 -13 -4 -5 -4 17 -1 22 1 32 4 23 2 -10 2 -28 0 -40z
m80 -65 c-6 -5 -37 86 -37 106 1 9 10 -10 21 -43 11 -32 18 -60 16 -63z m-399
14 c23 -48 36 -84 29 -80 -7 4 -16 8 -20 8 -8 0 -57 137 -57 159 0 15 5 5 48
-87z m188 58 c17 -40 18 -53 4 -39 -11 11 -31 74 -24 74 3 0 12 -16 20 -35z
m242 -42 c7 -12 12 -30 12 -40 -1 -12 -7 -6 -20 17 -11 19 -19 51 -19 70 l1
35 7 -30 c4 -16 13 -40 19 -52z m-69 2 c1 -23 -2 -26 -9 -15 -5 8 -9 31 -9 50
0 29 2 31 9 15 5 -11 9 -33 9 -50z m-2745 43 c-5 -8 -2 -9 12 -4 43 17 48 17
19 -2 -16 -11 -52 -23 -80 -27 -50 -7 -50 -7 -31 13 10 12 30 23 45 25 14 2
30 5 34 6 5 0 5 -4 1 -11z m2475 -108 c0 -8 -11 8 -25 35 -13 28 -23 57 -23
65 0 8 11 -7 25 -35 13 -27 23 -57 23 -65z m371 53 c11 -25 18 -48 15 -51 -4
-4 -45 81 -45 94 0 15 12 -2 30 -43z m43 -30 c10 -18 17 -40 16 -50 0 -10 -11
6 -25 36 -13 29 -24 63 -23 75 1 19 2 18 8 -4 5 -14 15 -40 24 -57z m17 19 c0
-7 -4 -10 -10 -7 -5 3 -10 16 -10 28 0 18 2 19 10 7 5 -8 10 -21 10 -28z
m-4153 4 c-2 -5 -19 -21 -38 -35 l-34 -25 23 25 c12 14 22 29 22 34 0 4 -10 0
-22 -11 -23 -19 -23 -19 -6 1 17 21 61 29 55 11z m3404 -90 c14 -9 33 -14 40
-11 14 5 102 -45 94 -53 -2 -3 -25 8 -50 22 -55 32 -59 27 -7 -10 27 -19 30
-24 13 -19 -16 5 -21 4 -17 -4 4 -6 2 -11 -5 -11 -7 0 -55 43 -108 97 -69 69
-80 83 -41 51 30 -24 67 -52 81 -62z m276 38 c-3 -3 -13 8 -21 25 -23 43 -19
52 5 13 12 -18 19 -35 16 -38z m513 45 c0 21 9 8 20 -28 5 -19 5 -29 -1 -26
-5 4 -9 0 -9 -7 -1 -21 -29 35 -29 57 -1 17 1 17 9 5 8 -12 10 -12 10 -1z
m-629 -62 c18 -14 52 -87 45 -95 -5 -4 -126 68 -126 75 0 2 9 -1 21 -7 31 -17
35 -4 5 15 -14 10 -26 22 -26 27 0 5 15 -2 33 -15 58 -43 63 -41 17 8 -43 46
-33 43 31 -8z m717 -27 l16 -25 -22 19 c-13 11 -22 30 -21 45 1 20 2 22 6 6 3
-10 12 -31 21 -45z m99 -45 c20 -42 21 -46 4 -25 -11 14 -32 48 -46 75 -23 44
-24 47 -5 25 12 -14 33 -47 47 -75z m-4369 55 c-7 -11 -17 -19 -23 -18 -5 1
-21 -4 -35 -11 l-25 -14 20 23 c18 20 48 38 68 39 4 1 2 -8 -5 -19z m4323 -35
c6 -11 -1 -6 -15 10 -14 17 -26 35 -26 40 1 11 27 -20 41 -50z m-3113 20 c5
-4 -95 -25 -118 -25 -27 0 -25 14 3 28 18 9 104 7 115 -3z m-1215 -71 c-17
-27 -25 -31 -17 -9 8 20 -5 19 -28 -2 -10 -9 -18 -13 -18 -9 0 15 52 54 65 49
12 -4 12 -9 -2 -29z m3412 10 c11 -8 14 -14 7 -14 -16 0 -72 28 -72 36 0 8 42
-7 65 -22z m-2235 -3 c0 -6 15 -12 33 -14 25 -3 22 -4 -15 -5 -26 -1 -48 -7
-50 -14 -3 -9 -12 -9 -37 1 -37 16 -31 28 19 34 19 2 38 5 43 5 4 1 7 -2 7 -7z
m2207 -31 c14 -11 24 -20 21 -20 -2 0 -21 9 -43 20 -22 11 -32 20 -21 20 10 0
29 -9 43 -20z m-3378 -29 c-5 -15 -24 -41 -41 -57 -29 -27 -30 -27 -15 -4 10
14 27 40 38 58 26 40 31 41 18 3z m1220 -22 l36 -1 -47 -16 c-50 -16 -60 -27
-30 -35 9 -3 -5 -2 -33 0 -50 6 -97 22 -65 23 13 0 13 1 0 10 -12 8 -10 10 10
10 20 0 22 2 10 11 -11 8 -2 9 34 5 27 -3 65 -6 85 -7z m2111 -9 c8 -5 11 -10
5 -10 -5 0 -17 5 -25 10 -8 5 -10 10 -5 10 6 0 17 -5 25 -10z m-75 -9 c-6 -5
-35 -11 -65 -14 l-55 -6 40 14 c46 16 94 19 80 6z m-3261 -26 c-9 -14 -18 -25
-21 -25 -5 0 5 18 20 38 17 22 18 13 1 -13z m3361 0 l30 -13 -38 -1 c-21 -1
-36 3 -32 8 3 5 -9 12 -27 14 l-33 4 35 1 c19 1 49 -5 65 -13z m-185 -39 c0
-9 -39 -13 -51 -5 -10 6 -4 9 19 9 17 0 32 -2 32 -4z m90 -6 c-14 -4 -38 -8
-55 -8 l-30 0 30 8 c17 4 41 8 55 8 l25 0 -25 -8z m-2110 -10 c-19 -13 -30
-13 -30 0 0 6 10 10 23 10 18 0 19 -2 7 -10z m2143 -7 c-7 -2 -19 -2 -25 0 -7
3 -2 5 12 5 14 0 19 -2 13 -5z m-3284 -40 c-8 -9 -14 -29 -15 -45 -1 -17 -10
-37 -19 -47 -16 -15 -16 -14 -1 16 22 45 20 50 -10 22 l-26 -24 18 37 c9 20
20 35 24 33 4 -2 13 7 21 21 7 14 15 21 17 15 2 -7 -2 -19 -9 -28z m1161 -1
c-8 -3 -17 -9 -20 -13 -3 -4 -32 -5 -63 -2 -63 6 -64 18 -2 31 40 8 116 -6 85
-16z m2055 -17 c-26 -11 -27 -13 -10 -19 11 -3 0 -4 -25 -1 -28 2 -65 -4 -99
-16 -70 -24 -76 -24 -26 3 48 26 119 47 160 47 l30 -1 -30 -13z m-2138 -11
c-3 -3 -12 -4 -19 -1 -8 3 -5 6 6 6 11 1 17 -2 13 -5z m-1071 -61 c-8 -15 -15
-22 -16 -15 0 14 22 53 28 47 2 -2 -3 -16 -12 -32z m1111 1 c-3 -3 -12 -4 -19
-1 -8 3 -5 6 6 6 11 1 17 -2 13 -5z m2073 -9 c-14 -8 -29 -14 -35 -14 -5 0 1
6 15 14 14 8 30 14 35 14 6 0 -1 -6 -15 -14z m-2120 -10 c-1 -16 -51 -25 -74
-13 -21 12 -21 12 4 19 33 10 71 7 70 -6z m-1055 -36 c-5 -22 -4 -29 4 -25 14
9 14 7 -4 -44 -8 -23 -15 -45 -15 -47 0 -3 7 0 15 7 19 16 19 10 -5 -70 -11
-38 -27 -70 -34 -73 -12 -5 -12 -2 0 21 16 32 20 67 4 42 -17 -26 -19 -6 -3
30 9 19 15 39 14 43 -1 5 3 25 8 45 l10 37 -19 -22 c-30 -38 -31 -26 -3 32 15
30 29 55 31 55 2 0 1 -14 -3 -31z m3185 27 c0 -7 -133 -67 -138 -62 -3 3 24
19 59 36 61 29 79 35 79 26z m-2118 -59 c29 -12 29 -12 -15 -12 -25 0 -40 3
-34 7 7 4 2 11 -13 18 -24 10 -24 10 4 5 16 -3 42 -11 58 -18z m2114 -28 c-23
-14 -137 -41 -143 -35 -3 3 12 9 34 15 21 5 54 14 73 19 48 13 59 13 36 1z
m-76 -63 c0 -2 -17 -14 -37 -26 -28 -16 -33 -17 -23 -5 8 10 23 21 35 25 25
11 25 11 25 6z m-32 -78 c-24 -24 -66 -65 -93 -93 -50 -51 -49 -50 26 54 23
32 85 81 102 81 5 0 -11 -19 -35 -42z m-2010 20 c-6 -18 -28 -21 -28 -4 0 9 7
16 16 16 9 0 14 -5 12 -12z m2057 -80 c-44 -40 -142 -105 -120 -80 20 22 150
122 159 122 5 0 -13 -19 -39 -42z m-3125 3 c-6 -12 -8 -21 -4 -21 4 0 -3 -12
-17 -27 -22 -25 -22 -26 -1 -9 28 24 36 17 21 -20 -6 -16 -12 -38 -14 -49 -8
-44 -11 -54 -24 -69 -8 -9 -9 -16 -3 -16 5 0 8 -10 5 -21 l-6 -21 -12 22 c-12
22 -13 22 -24 4 -11 -17 -12 -16 -7 8 3 14 9 34 13 44 5 13 3 15 -8 9 -8 -5
-6 1 4 12 10 12 19 27 21 35 1 7 5 19 10 26 4 7 6 16 3 18 -6 6 11 48 33 81
18 27 26 22 10 -6z m3090 25 c0 -2 -8 -10 -17 -17 -16 -13 -17 -12 -4 4 13 16
21 21 21 13z m-44 -131 c-22 -19 -42 -33 -45 -30 -2 3 4 12 15 19 10 8 28 21
39 30 37 28 31 16 -9 -19z m64 12 c0 -2 -10 -12 -21 -23 -22 -19 -22 -19 -8 4
12 19 29 30 29 19z m33 -9 c-3 -7 -33 -38 -66 -68 -33 -30 -55 -45 -49 -33 10
17 110 113 119 113 1 0 0 -6 -4 -12z m-17 -92 c-20 -36 -41 -68 -47 -72 -6 -3
-3 5 6 20 14 20 14 26 4 26 -8 0 -2 10 13 23 15 12 32 35 38 51 6 16 13 26 16
23 4 -3 -10 -35 -30 -71z m1987 43 c-12 -12 -93 -32 -100 -25 -3 2 8 11 24 19
34 18 93 23 76 6z m-1952 -56 c-5 -10 -31 -38 -57 -63 l-47 -45 53 63 c54 63
68 76 51 45z m1970 -16 c-13 -12 -20 -16 -16 -8 6 10 2 12 -14 6 -33 -10 -25
3 12 19 41 17 47 11 18 -17z m-2021 -80 l-43 -42 38 48 c21 26 40 45 43 42 4
-3 -14 -25 -38 -48z m2055 43 c-3 -5 -12 -10 -18 -10 -7 0 -6 4 3 10 19 12 23
12 15 0z m-2044 -78 c-23 -33 -51 -58 -51 -46 0 8 60 74 68 74 2 0 -6 -13 -17
-28z m2124 8 c15 -6 7 -9 -30 -9 -36 -1 -46 2 -35 9 18 12 38 12 65 0z m-2092
-46 c13 -5 11 -12 -9 -42 -32 -46 -37 -51 -28 -27 4 11 14 28 23 38 13 16 13
19 1 27 -17 11 -9 13 13 4z m2150 -21 c3 -5 -18 -7 -46 -5 -92 5 -104 9 -30
11 39 0 74 -2 76 -6z m-2128 -40 c0 -37 -48 -122 -69 -123 -4 0 8 20 28 44 41
50 47 68 14 40 -23 -19 -23 -19 -5 2 19 23 23 39 5 28 -11 -7 -5 8 15 34 13
16 13 17 12 -25z m2068 10 c-18 -2 -48 -2 -65 0 -18 2 -4 4 32 4 36 0 50 -2
33 -4z m25 -50 c-10 -2 -28 -2 -40 0 -13 2 -5 4 17 4 22 1 32 -1 23 -4z m65
-30 c-7 -2 -19 -2 -25 0 -7 3 -2 5 12 5 14 0 19 -2 13 -5z m-2143 -17 c0 -3
-15 -15 -32 -27 l-33 -23 24 27 c22 24 41 35 41 23z m5 -36 c-10 -11 -23 -20
-29 -20 -6 0 0 9 14 20 32 25 38 25 15 0z m2125 5 c-19 -7 -48 -13 -65 -13
-26 0 -24 2 15 13 60 17 95 17 50 0z m-2145 -60 c-33 -30 -64 -54 -69 -55 -5
0 17 25 50 55 32 30 64 54 69 55 6 0 -17 -25 -50 -55z m2170 26 c-14 -12 -93
-25 -80 -13 11 11 38 19 70 21 11 1 15 -3 10 -8z m-2115 -35 c0 -3 -15 -15
-32 -27 l-33 -23 24 27 c22 24 41 35 41 23z m6 -53 c-15 -27 -38 -62 -51 -78
-23 -29 -24 -29 -18 -5 3 14 12 29 20 33 7 4 25 31 39 59 14 27 28 48 31 45 3
-3 -7 -28 -21 -54z m2103 41 c10 -9 -75 -3 -89 6 -10 7 1 8 35 4 28 -4 52 -8
54 -10z m-2080 -89 c-13 -19 -28 -35 -32 -35 -9 0 -3 11 27 52 29 40 33 25 5
-17z m22 -11 c-24 -40 -26 -48 -10 -38 13 8 -20 -53 -36 -66 -25 -21 -6 49 25
93 40 56 51 62 21 11z m2066 -43 c-5 -2 -3 -8 4 -13 11 -8 11 -9 1 -6 -8 2
-12 6 -10 10 2 3 -8 19 -22 34 l-25 28 31 -25 c17 -13 27 -26 21 -28z m-2053
-38 c-4 -16 -11 -36 -15 -45 -16 -30 -9 -34 12 -8 l20 25 -15 -30 c-29 -57
-34 -60 -31 -19 4 56 16 104 26 104 5 0 6 -12 3 -27z m2101 -1 c-3 -3 -11 0
-18 7 -9 10 -8 11 6 5 10 -3 15 -9 12 -12z m-2050 -69 c-4 -21 -16 -53 -26
-73 -11 -19 -18 -28 -16 -20 27 95 38 130 43 130 4 0 3 -17 -1 -37z m2095 5
c0 -5 -9 -4 -20 2 -11 6 -20 12 -20 14 0 2 9 2 20 -1 11 -3 20 -9 20 -15z
m-2087 -111 c-4 -40 -1 -72 7 -86 15 -29 3 -42 -16 -17 -17 24 -18 91 -3 135
6 17 12 31 14 31 1 0 0 -29 -2 -63z m-2668 15 c-3 -3 -11 0 -18 7 -9 10 -8 11
6 5 10 -3 15 -9 12 -12z m2723 -144 c0 -29 -2 -47 -5 -40 -3 6 -9 9 -15 6 -6
-4 -8 1 -5 12 4 11 9 31 13 47 9 40 12 34 12 -25z m22 12 c0 -5 -5 -10 -11
-10 -5 0 -7 5 -4 10 3 6 8 10 11 10 2 0 4 -4 4 -10z m21 -13 c-10 -9 -11 -8
-5 6 3 10 9 15 12 12 3 -3 0 -11 -7 -18z m24 -40 c-8 -39 -35 -60 -35 -26 0
19 31 71 38 64 2 -2 0 -19 -3 -38z m40 -10 c13 16 13 13 9 -22 -3 -22 -11 -51
-17 -64 -11 -23 -12 -21 -18 25 -6 49 1 99 9 61 4 -18 4 -18 17 0z m128 -87
c-2 -71 2 -80 26 -57 11 10 12 7 6 -13 -4 -14 -17 -33 -29 -42 -23 -19 -47
-25 -29 -7 6 6 9 33 6 64 -4 43 10 125 21 125 1 0 1 -31 -1 -70z m-64 -2 c-14
-60 -29 -84 -29 -48 0 25 32 112 38 105 2 -2 -2 -28 -9 -57z m-22 30 c-3 -8
-6 -5 -6 6 -1 11 2 17 5 13 3 -3 4 -12 1 -19z m39 -76 c-12 -11 -18 7 -10 30
l8 23 4 -23 c2 -13 1 -26 -2 -30z m-2725 -19 c-12 -20 -14 -14 -5 12 4 9 9 14
11 11 3 -2 0 -13 -6 -23z m113 -24 c-10 -11 -28 -25 -39 -31 -12 -5 -7 3 13
21 37 35 55 42 26 10z m2692 -25 c-10 -14 -20 -23 -23 -21 -6 6 30 57 36 51 2
-2 -4 -15 -13 -30z m34 -19 c-7 -8 -20 -15 -29 -15 -12 0 -10 5 9 20 28 21 39
18 20 -5z m-2830 8 c0 -13 -41 -75 -46 -70 -3 2 5 21 17 41 21 35 29 44 29 29z
m2854 -27 c-4 -11 0 -13 18 -9 18 4 20 2 8 -6 -15 -11 -15 -11 30 -24 31 -9
-228 -47 -318 -47 -29 0 -52 5 -52 10 0 6 26 10 58 10 51 0 140 11 215 26 15
3 27 10 27 16 0 6 -6 8 -14 5 -25 -10 -28 6 -4 20 30 16 39 16 32 -1z m-2892
-78 c-7 -7 -12 -8 -12 -2 0 14 12 26 19 19 2 -3 -1 -11 -7 -17z m2143 12 c3
-5 -1 -10 -10 -10 -9 0 -13 5 -10 10 3 6 8 10 10 10 2 0 7 -4 10 -10z m-70
-10 c3 -6 -1 -7 -9 -4 -18 7 -21 14 -7 14 6 0 13 -4 16 -10z m305 0 c0 -5 -7
-7 -15 -4 -8 4 -15 8 -15 10 0 2 7 4 15 4 8 0 15 -4 15 -10z m100 -6 c0 -2
-15 -4 -32 -3 -27 0 -29 2 -13 8 18 8 45 4 45 -5z m50 6 c0 -5 -9 -10 -20 -10
-11 0 -20 5 -20 10 0 6 9 10 20 10 11 0 20 -4 20 -10z m-515 -10 c3 -5 -1 -10
-9 -10 -8 0 -18 5 -21 10 -3 6 1 10 9 10 8 0 18 -4 21 -10z m-145 -30 c13 -8
13 -10 -2 -10 -9 0 -20 5 -23 10 -8 13 5 13 25 0z m-3070 -155 c-7 -9 -15 -13
-17 -11 -7 7 7 26 19 26 6 0 6 -6 -2 -15z m286 -11 c-22 -8 -41 -12 -44 -9 -7
6 39 24 63 24 11 0 3 -7 -19 -15z m-282 -19 c-12 -9 -14 -14 -6 -15 7 0 10 -4
7 -10 -9 -14 -24 -12 -21 3 3 19 16 37 29 37 6 0 2 -7 -9 -15z m260 -40 c-10
-8 -26 -14 -34 -14 -11 0 -10 3 4 14 11 8 27 15 35 15 11 0 10 -4 -5 -15z
m7775 1 c-2 -2 -15 -9 -29 -15 -24 -11 -24 -11 -6 3 16 13 49 24 35 12z
m-8048 -30 c-12 -13 -21 -29 -19 -36 2 -6 -8 -16 -21 -21 -24 -9 -24 -9 -8 9
9 10 17 22 17 27 0 12 31 45 43 45 6 0 0 -11 -12 -24z m265 -5 c-3 -5 -20 -14
-38 -20 -31 -11 -31 -11 -13 9 18 19 62 29 51 11z m3 -35 c-2 -2 -15 -7 -29
-10 l-25 -7 25 15 c21 12 42 14 29 2z m11 -21 c0 -10 -62 -36 -78 -32 -12 3
-7 9 18 20 35 16 60 21 60 12z m-310 -20 c-7 -8 -20 -15 -29 -15 -13 1 -13 3
3 15 26 19 42 19 26 0z m10047 -27 c-3 -8 -6 -5 -6 6 -1 11 2 17 5 13 3 -3 4
-12 1 -19z m-10047 -6 c0 -12 -39 -46 -45 -41 -6 7 24 49 36 49 5 0 9 -4 9 -8z
m280 -2 c-8 -5 -24 -10 -35 -10 -17 0 -17 2 -5 10 8 5 24 10 35 10 17 0 17 -2
5 -10z m-19 -46 c-30 -25 -43 -52 -18 -38 9 5 9 4 0 -6 -7 -8 -22 -10 -38 -6
-23 6 -25 9 -13 23 17 21 69 53 86 53 8 0 0 -12 -17 -26z"/>
<path d="M6229 1393 c-13 -16 -12 -17 4 -4 16 13 21 21 13 21 -2 0 -10 -8 -17
-17z"/>
<path d="M690 9496 c0 -2 8 -10 18 -17 15 -13 16 -12 3 4 -13 16 -21 21 -21
13z"/>
<path d="M1555 5590 c-3 -6 1 -7 9 -4 18 7 21 14 7 14 -6 0 -13 -4 -16 -10z"/>
<path d="M7158 5293 c7 -3 16 -2 19 1 4 3 -2 6 -13 5 -11 0 -14 -3 -6 -6z"/>
<path d="M11588 1673 c7 -3 16 -2 19 1 4 3 -2 6 -13 5 -11 0 -14 -3 -6 -6z"/>
<path d="M3873 515 c-3 -9 -3 -18 -1 -21 3 -3 8 4 11 16 6 23 -1 27 -10 5z"/>
</g>
</svg>
