<?xml version="1.0" standalone="no"?>
<!DOCTYPE svg PUBLIC "-//W3C//DTD SVG 20010904//EN"
 "http://www.w3.org/TR/2001/REC-SVG-20010904/DTD/svg10.dtd">
<svg version="1.0" xmlns="http://www.w3.org/2000/svg"
 width="787.000000pt" height="1280.000000pt" viewBox="0 0 787.000000 1280.000000"
 preserveAspectRatio="xMidYMid meet">
<metadata>
Created by potrace 1.15, written by Peter Selinger 2001-2017
</metadata>
<g transform="translate(0.000000,1280.000000) scale(0.100000,-0.100000)"
fill="#000000" stroke="none">
<path d="M2716 12762 c-2 -4 -7 -29 -10 -55 -9 -58 6 -130 40 -193 26 -50 30
-64 12 -46 -7 7 -17 12 -22 12 -6 0 5 -13 24 -30 29 -24 32 -29 15 -30 -16 0
-14 -4 12 -22 29 -20 49 -49 23 -33 -17 10 -11 -4 10 -25 11 -11 24 -20 29
-20 5 0 14 -6 20 -14 9 -11 5 -16 -19 -26 -16 -7 -34 -18 -41 -26 -9 -11 -5
-11 23 -4 18 6 46 10 62 10 28 0 29 -1 10 -15 -10 -8 -15 -15 -10 -15 5 0 4
-6 -2 -13 -9 -10 -4 -12 24 -9 33 4 35 3 25 -16 -9 -17 -7 -20 19 -26 22 -4
30 -11 30 -26 0 -26 22 -50 47 -50 13 0 15 -3 5 -8 -18 -12 2 -62 28 -69 20
-5 28 -23 10 -23 -19 0 -10 -19 12 -26 21 -6 21 -7 -6 -18 l-29 -11 36 -20
c39 -21 47 -55 12 -55 -19 -1 -19 -1 -2 -14 17 -13 17 -15 -5 -30 -21 -15 -21
-16 -3 -16 16 0 17 -2 6 -9 -12 -8 -10 -12 12 -22 15 -7 27 -16 27 -21 0 -5
17 -24 37 -43 37 -34 54 -71 27 -61 -19 7 -18 -4 3 -33 16 -24 16 -24 -16 -19
-22 3 -28 1 -21 -6 13 -13 13 -29 0 -21 -5 3 -10 -3 -10 -14 0 -15 -4 -19 -17
-14 -11 4 -14 3 -9 -5 4 -7 2 -12 -5 -12 -7 0 -5 -8 7 -21 19 -22 19 -22 -3
-10 -23 12 -30 5 -15 -14 4 -6 23 -18 42 -27 l35 -18 -52 3 c-51 3 -52 3 -36
-15 15 -17 15 -18 1 -13 -13 5 -15 2 -11 -14 4 -17 1 -21 -19 -21 -13 0 -29 5
-36 12 -8 8 -12 8 -12 1 0 -6 7 -16 15 -23 23 -19 18 -30 -16 -30 -24 0 -29
-3 -22 -12 15 -19 22 -58 11 -58 -5 0 -7 -4 -3 -9 3 -6 -2 -14 -11 -19 -16 -9
-15 -11 5 -21 12 -7 19 -16 16 -21 -3 -5 -1 -11 5 -15 5 -3 10 -11 10 -17 0
-6 -7 -5 -17 3 -15 13 -15 12 -5 -8 18 -34 15 -49 -6 -30 -29 26 -30 21 -16
-40 11 -51 11 -56 -2 -39 -7 11 -14 25 -15 30 0 6 -4 1 -9 -12 -5 -12 -7 -29
-3 -38 4 -12 1 -15 -15 -12 -26 4 -27 -3 -6 -43 12 -24 12 -30 2 -27 -7 3 -27
33 -45 69 -293 581 -455 885 -485 914 -6 6 3 -15 19 -45 17 -30 53 -95 81
-145 136 -248 412 -818 412 -852 0 -3 -7 0 -15 7 -23 19 -31 3 -10 -20 37 -41
5 -30 -36 12 -40 41 -41 41 -25 11 9 -18 16 -42 16 -54 0 -19 -2 -20 -17 -8
-17 13 -17 13 -3 -6 8 -11 20 -23 25 -27 15 -12 -13 -10 -35 2 -11 6 -68 59
-127 118 -203 203 -450 391 -613 465 -120 55 -135 53 -21 -3 129 -62 264 -152
396 -261 103 -87 375 -354 375 -370 0 -19 -53 14 -157 96 -123 98 -270 198
-358 244 -71 38 -57 28 76 -56 117 -73 191 -128 316 -236 93 -80 115 -107 87
-107 -8 0 -13 -4 -9 -10 3 -5 -14 -1 -37 9 -24 11 -59 22 -78 25 -33 5 -33 5
8 -10 23 -9 42 -20 42 -25 0 -4 6 -7 13 -5 6 1 9 1 4 -1 -4 -3 -4 -9 -1 -14 3
-6 -43 14 -103 44 -211 106 -460 206 -553 221 -19 3 3 -7 50 -22 90 -30 481
-194 475 -200 -2 -2 -27 4 -56 12 -29 9 -60 16 -68 15 -9 0 20 -11 64 -23 104
-30 190 -67 175 -76 -7 -4 -12 -11 -13 -16 -1 -5 -9 -8 -17 -7 -11 1 -9 -3 4
-13 20 -14 20 -14 0 -14 -16 -1 -16 -3 6 -16 25 -15 25 -15 -10 -9 l-35 6 40
-20 c48 -23 65 -22 -235 -23 l-245 -1 235 -7 c129 -4 250 -11 268 -15 37 -9
43 -25 10 -26 -22 0 -22 -1 -3 -9 15 -6 8 -9 -30 -12 l-50 -4 50 -3 c38 -2 45
-4 30 -11 -14 -6 -3 -9 39 -9 l59 -1 -19 -22 c-10 -12 -13 -18 -6 -14 29 17
69 -17 87 -74 6 -20 5 -23 -6 -12 -21 20 -29 14 -15 -12 7 -14 12 -45 11 -70
0 -25 4 -46 9 -46 5 0 6 -3 3 -6 -3 -4 -1 -16 5 -28 10 -18 9 -19 -4 -8 -23
19 -29 -5 -11 -42 11 -22 12 -30 3 -36 -9 -5 -8 -15 5 -40 16 -31 16 -32 -5
-25 -16 5 -23 2 -27 -14 -3 -12 -9 -21 -14 -21 -5 0 -2 -11 7 -25 8 -13 13
-29 9 -35 -3 -6 3 -26 15 -46 21 -32 21 -40 11 -87 -7 -29 -16 -70 -20 -92 -4
-22 -23 -85 -42 -140 -38 -109 -39 -129 -6 -140 l22 -8 -22 -4 c-13 -2 -23
-10 -23 -16 0 -15 36 -75 61 -103 l19 -21 -65 -28 c-85 -36 -79 -43 8 -8 l67
26 21 -21 c11 -12 25 -22 32 -22 7 0 1 -10 -13 -21 -25 -20 -25 -20 -1 -9 21
11 27 9 52 -18 16 -17 29 -34 29 -38 0 -4 -15 -21 -32 -37 l-33 -29 37 26 c47
33 54 33 30 -1 -36 -53 -74 -119 -53 -95 22 25 61 30 61 7 0 -8 -8 -15 -17
-16 -13 0 -14 -2 -4 -6 10 -4 8 -9 -10 -19 -19 -11 -21 -13 -6 -14 11 0 15 -5
11 -11 -4 -7 -23 -9 -53 -5 -32 4 -41 3 -31 -4 8 -5 24 -10 35 -11 12 0 15 -3
7 -6 -10 -4 -9 -9 5 -20 17 -13 17 -14 -2 -9 -11 2 -36 7 -55 10 l-35 6 30
-14 30 -14 -45 -3 -45 -2 40 -7 40 -7 -45 -3 -45 -3 35 -7 35 -7 -34 -2 c-25
-1 -32 -5 -27 -16 4 -12 -3 -15 -35 -15 -36 0 -39 -2 -25 -15 19 -19 10 -45
-14 -45 -11 0 -22 -5 -26 -12 -5 -7 -3 -8 6 -3 8 5 11 4 7 -2 -4 -6 -21 -14
-39 -18 -29 -6 -31 -8 -13 -15 15 -7 16 -9 4 -9 -9 -1 -19 -10 -22 -21 -3 -11
-12 -20 -21 -20 -9 0 -33 -11 -54 -23 -20 -13 -55 -27 -77 -31 -39 -8 -39 -8
-16 -21 24 -12 24 -12 -15 -25 -54 -17 -61 -27 -16 -22 34 4 36 3 17 -11 -11
-8 -30 -17 -42 -21 -13 -4 -23 -11 -23 -16 0 -5 -17 -12 -37 -16 -30 -6 -34
-8 -18 -14 19 -7 19 -7 -4 -15 -18 -5 -20 -9 -10 -16 10 -6 5 -10 -18 -15 -18
-3 -38 -13 -44 -20 -6 -8 -23 -14 -38 -15 l-26 -1 25 -8 c23 -6 22 -8 -15 -14
-64 -12 -64 -17 0 -11 l60 5 -35 -21 c-24 -14 -28 -19 -12 -15 45 9 10 -12
-40 -25 -51 -12 -52 -13 -23 -20 17 -4 24 -7 17 -8 -7 0 -11 -5 -8 -10 4 -5
-10 -19 -29 -31 -19 -12 -35 -23 -35 -26 0 -2 15 -1 33 2 l32 5 -32 -18 c-18
-10 -32 -22 -33 -28 0 -5 -15 -16 -33 -23 -30 -11 -30 -12 -4 -8 15 2 27 2 27
1 0 -2 -25 -15 -56 -30 -61 -30 -69 -44 -11 -20 54 23 58 17 7 -10 -39 -21
-42 -24 -20 -25 23 -1 22 -3 -15 -25 l-40 -25 30 -1 30 -1 -35 -13 c-25 -9
-29 -14 -15 -15 13 -1 5 -8 -25 -21 -44 -19 -45 -20 -10 -15 l35 5 -30 -14
c-20 -10 -24 -14 -12 -15 10 0 15 -4 12 -10 -3 -5 2 -10 12 -11 11 0 5 -6 -17
-16 -19 -8 -47 -12 -65 -9 -25 5 -27 4 -11 -5 23 -14 5 -28 -39 -30 -25 -1
-21 -4 20 -14 28 -7 43 -14 35 -14 -13 -1 -13 -2 0 -11 11 -7 6 -10 -20 -11
-19 0 -44 -4 -55 -9 -18 -8 -17 -9 7 -9 37 -1 47 -21 11 -22 -17 -1 -21 -3
-10 -6 24 -6 21 -22 -5 -33 -14 -5 -17 -9 -8 -10 11 0 10 -3 -4 -12 -10 -6
-30 -20 -43 -32 l-25 -21 24 -6 c22 -6 21 -7 -10 -19 -24 -9 -30 -15 -21 -21
10 -6 5 -11 -16 -20 l-30 -12 30 -6 c25 -5 27 -8 12 -14 -10 -4 -28 -7 -40 -8
-12 0 -16 -3 -9 -6 10 -4 10 -8 1 -19 -9 -11 -8 -14 7 -15 11 0 14 -3 7 -6 -7
-2 -13 -11 -13 -19 0 -8 -7 -14 -15 -14 -9 0 -18 -7 -21 -15 -4 -8 -15 -15
-26 -15 -10 0 -17 -4 -14 -9 4 -5 0 -12 -6 -14 -7 -3 -1 -6 15 -6 38 -1 34
-21 -5 -22 -24 -1 -27 -3 -10 -6 26 -5 30 -23 5 -24 -11 0 -13 -3 -5 -6 17 -7
5 -23 -18 -23 -13 0 -17 -5 -14 -15 4 -9 0 -15 -10 -15 -14 0 -21 -18 -17 -42
0 -5 -6 -8 -14 -8 -11 0 -14 -7 -11 -23 3 -18 -3 -26 -26 -36 -23 -10 -27 -16
-17 -22 11 -8 11 -12 -4 -23 -14 -11 -15 -15 -5 -19 10 -4 8 -10 -7 -23 -20
-16 -20 -16 2 -11 19 4 21 2 13 -13 -5 -10 -15 -20 -20 -22 -6 -2 -12 -12 -14
-21 -1 -10 -9 -22 -16 -27 -8 -5 -11 -12 -7 -16 4 -4 2 -13 -5 -21 -6 -7 -8
-16 -4 -20 3 -3 -1 -15 -11 -25 -13 -14 -13 -18 -2 -18 9 -1 5 -8 -10 -20 -16
-14 -19 -20 -8 -20 24 0 29 -29 7 -42 -13 -9 -16 -16 -9 -24 7 -8 0 -20 -23
-38 -20 -16 -25 -24 -13 -19 18 6 18 5 6 -10 -11 -14 -11 -17 0 -17 7 0 3 -10
-12 -26 -19 -20 -20 -24 -5 -18 18 7 18 6 0 -22 -13 -19 -14 -25 -5 -19 8 5 4
-7 -9 -25 -13 -18 -18 -30 -10 -25 15 9 74 15 65 7 -3 -3 -22 -16 -42 -29 -30
-19 -33 -23 -13 -18 24 6 24 5 -2 -10 -34 -19 -35 -25 -5 -18 22 4 22 4 -2
-10 -21 -12 -22 -16 -8 -28 14 -13 13 -16 -1 -33 -10 -11 -11 -16 -4 -12 6 4
12 2 12 -3 0 -6 -4 -11 -10 -11 -15 0 -12 -30 3 -30 7 0 4 -7 -7 -15 -11 -8
-16 -15 -11 -15 5 0 -6 -16 -25 -35 -21 -22 -28 -35 -19 -35 12 0 12 -2 -1
-10 -10 -6 -11 -10 -2 -10 6 0 12 -4 12 -10 0 -5 -6 -10 -14 -10 -8 0 -23 -16
-35 -36 -25 -42 -26 -51 -6 -34 13 11 14 10 9 -5 -6 -15 -4 -16 16 -5 18 10
21 10 14 -2 -4 -7 -18 -21 -31 -31 -13 -10 -20 -23 -17 -28 3 -6 -8 -15 -25
-22 -19 -7 -29 -17 -27 -24 3 -7 0 -13 -7 -13 -8 0 -8 -3 2 -9 9 -6 10 -11 2
-15 -6 -4 -9 -11 -6 -16 3 -5 1 -11 -5 -15 -6 -4 -8 -10 -5 -14 2 -5 -2 -23
-11 -40 -9 -18 -13 -39 -10 -47 3 -9 1 -25 -6 -37 -11 -21 -10 -21 7 -7 17 14
18 13 12 -2 -3 -9 -1 -18 5 -20 7 -3 6 -9 -3 -18 -20 -21 -21 -53 -2 -45 13 4
14 3 4 -9 -7 -8 -10 -19 -7 -25 4 -5 0 -15 -7 -23 -7 -7 -14 -16 -15 -20 -1
-5 -2 -9 -3 -10 -6 -21 -5 -38 1 -38 11 0 9 -42 -3 -57 -6 -9 -6 -13 1 -13 9
0 9 -20 2 -40 -1 -3 -2 -9 -1 -13 1 -4 -6 -10 -14 -13 -8 -3 -13 -10 -10 -14
3 -5 -6 -29 -19 -54 -14 -26 -21 -44 -16 -41 17 11 21 -17 6 -40 -9 -14 -12
-25 -6 -25 6 0 3 -11 -6 -25 -9 -14 -14 -28 -10 -32 3 -4 -1 -15 -11 -25 -9
-10 -12 -18 -8 -18 5 0 2 -6 -7 -13 -8 -6 -20 -31 -26 -55 -9 -38 -8 -43 6
-37 13 5 12 2 -3 -15 -17 -19 -17 -20 -1 -14 15 6 15 3 -3 -30 -11 -20 -17
-36 -13 -36 4 0 1 -4 -7 -9 -8 -5 -16 -20 -18 -32 -2 -13 -14 -34 -26 -48 -12
-13 -15 -20 -7 -16 13 8 13 7 1 -8 -11 -14 -11 -17 0 -17 8 -1 1 -12 -16 -25
-16 -14 -26 -25 -21 -25 5 0 3 -7 -4 -15 -7 -8 -9 -15 -5 -15 5 0 0 -9 -11
-21 -10 -11 -14 -20 -9 -19 32 7 39 -2 16 -20 -13 -11 -19 -20 -13 -20 15 0 8
-26 -14 -51 -10 -12 -13 -19 -7 -15 18 10 16 -5 -3 -33 -16 -23 -16 -23 7 -11
l24 11 -21 -18 c-12 -10 -30 -24 -40 -30 -11 -8 -3 -7 20 2 l39 15 -19 -21
c-14 -16 -16 -23 -6 -26 10 -4 8 -9 -5 -19 -17 -13 -17 -14 2 -8 15 5 12 -2
-15 -32 -19 -21 -26 -31 -15 -23 11 9 26 14 33 12 10 -4 4 -16 -20 -40 l-33
-36 30 19 c23 14 27 15 18 3 -7 -9 -9 -20 -5 -24 4 -5 1 -5 -5 -1 -7 4 -13 3
-13 -2 0 -5 -10 -14 -22 -20 -13 -6 -17 -11 -10 -11 7 -1 23 4 35 10 12 5 4
-6 -18 -26 -28 -26 -33 -33 -15 -24 24 12 24 11 10 -6 -14 -17 -13 -18 5 -12
17 6 17 4 -4 -13 -14 -12 -18 -20 -10 -20 8 -1 3 -7 -10 -14 -23 -13 -23 -14
-5 -19 10 -3 39 -9 64 -13 44 -7 44 -8 15 -15 l-30 -7 35 -2 c19 -1 28 -4 20
-7 -41 -12 -62 -103 -23 -103 13 0 13 -3 -1 -24 -13 -21 -13 -27 -2 -38 16
-17 14 -51 -5 -74 -9 -11 -9 -15 -1 -10 26 15 32 -5 12 -44 -22 -44 -25 -54
-10 -45 5 3 10 2 10 -4 0 -5 -4 -13 -10 -16 -6 -3 -10 -11 -10 -17 0 -7 6 -6
15 2 22 18 20 -8 -2 -32 -9 -10 -11 -18 -5 -18 6 0 13 4 17 10 3 5 13 6 22 3
13 -5 11 -10 -13 -31 -27 -22 -22 -23 23 -5 11 4 7 -7 -14 -38 -45 -67 -49
-76 -23 -54 l24 20 -17 -27 c-14 -23 -15 -28 -3 -28 19 0 27 -39 14 -64 -10
-19 -10 -20 7 -6 17 14 17 13 10 -10 -4 -14 -10 -31 -13 -39 -4 -10 -1 -12 7
-6 10 6 11 3 1 -15 -8 -15 -8 -20 -1 -16 6 4 11 3 11 -3 0 -5 -5 -13 -10 -16
-6 -3 -10 -11 -10 -16 0 -6 4 -7 10 -4 14 8 1 -23 -24 -60 l-20 -30 20 18 c20
16 21 16 19 0 -1 -10 -7 -29 -14 -43 l-14 -25 28 25 c29 26 27 17 -8 -34 l-20
-28 24 12 c13 6 0 -11 -30 -39 -57 -54 -59 -61 -10 -35 54 28 42 7 -20 -35
-67 -46 -79 -61 -28 -35 l32 16 -35 -38 c-19 -22 -28 -33 -20 -26 24 20 34 13
14 -10 -10 -12 -13 -18 -5 -13 11 6 13 4 7 -10 -5 -15 -4 -16 9 -5 24 20 18
-2 -19 -63 l-35 -58 29 21 28 20 -5 -20 c-3 -11 -24 -37 -47 -57 -26 -22 -32
-31 -16 -23 24 13 25 12 7 -7 -9 -11 -15 -22 -12 -25 3 -3 -6 -13 -19 -22 -32
-20 -57 -62 -32 -53 36 14 13 -6 -29 -24 -42 -19 -64 -36 -28 -22 11 4 14 3 9
-5 -4 -7 -14 -12 -22 -12 -8 0 -12 -5 -9 -11 4 -6 -3 -21 -16 -35 -12 -13 -19
-24 -16 -24 4 0 0 -11 -8 -24 -21 -32 -96 -53 -131 -37 -33 15 -39 14 -25 -3
9 -11 8 -15 -5 -20 -10 -4 -14 -13 -11 -26 3 -14 -1 -20 -17 -22 -11 -2 -21
-10 -21 -18 0 -8 -11 -17 -25 -19 -23 -3 -23 -4 -5 -11 19 -7 18 -9 -7 -19
-16 -6 -28 -13 -28 -16 0 -4 5 -3 11 0 5 4 22 4 37 0 24 -6 25 -7 8 -17 -14
-8 -15 -12 -6 -18 9 -5 -4 -15 -38 -30 -28 -12 -57 -29 -64 -38 -11 -13 -11
-14 2 -7 8 4 -5 -11 -30 -34 -25 -24 -36 -37 -25 -30 12 8 8 -1 -11 -21 -16
-19 -36 -43 -43 -53 -12 -15 -12 -17 5 -10 12 4 3 -13 -26 -48 -25 -29 -37
-48 -27 -40 19 15 24 2 5 -17 -6 -6 -13 -19 -14 -27 -2 -12 2 -13 19 -3 20 10
21 10 8 -5 -7 -10 -11 -17 -7 -17 4 0 -1 -15 -10 -32 -16 -32 -16 -32 1 -18
17 14 17 14 6 -8 -6 -12 -9 -22 -5 -22 4 0 -1 -8 -10 -19 -16 -17 -15 -19 12
-24 26 -5 28 -9 24 -38 -3 -21 -1 -30 6 -25 7 4 9 -5 5 -30 -4 -25 -3 -35 5
-30 10 6 60 -53 54 -64 -2 -3 -13 -10 -25 -17 -12 -7 -17 -13 -12 -13 6 0 -1
-9 -14 -19 l-24 -18 46 -7 c42 -6 45 -9 44 -34 -1 -17 3 -26 10 -25 8 2 10 -4
6 -14 -5 -11 -3 -14 6 -8 10 6 11 3 2 -13 -14 -27 -14 -45 1 -36 8 5 9 0 5
-15 -4 -18 -3 -20 9 -10 19 16 19 -10 -1 -57 -10 -24 -11 -33 -2 -27 7 4 7 0
-2 -10 -12 -15 -11 -17 4 -17 15 0 16 -2 4 -17 -12 -15 -12 -16 5 -10 15 6 17
4 13 -13 -3 -11 -1 -20 4 -20 5 0 9 -16 9 -35 0 -19 3 -35 8 -35 4 0 16 -14
27 -30 11 -17 26 -28 33 -25 6 2 12 -2 12 -10 0 -8 9 -19 20 -25 11 -6 20 -18
20 -26 0 -8 4 -13 9 -10 4 3 16 -20 26 -51 26 -82 39 -105 53 -91 9 9 12 0 12
-37 0 -43 1 -47 13 -30 13 16 15 14 21 -26 5 -31 9 -40 16 -29 8 12 10 12 16
-3 3 -9 10 -14 16 -11 5 3 12 -3 15 -15 4 -16 9 -19 23 -11 23 12 34 -2 26
-33 -3 -12 1 -40 9 -62 8 -22 14 -35 15 -30 0 6 5 3 10 -5 9 -13 10 -13 10 0
0 10 7 7 21 -10 17 -20 20 -21 14 -5 -4 11 -9 29 -12 40 -4 20 -4 20 11 1 16
-19 16 -19 16 5 1 22 2 22 18 -9 10 -18 21 -30 24 -26 4 3 10 -6 14 -20 7 -28
30 -30 28 -2 -3 25 10 19 55 -25 24 -25 39 -34 35 -23 -4 11 6 5 25 -16 18
-19 29 -28 25 -20 -5 10 0 9 14 -4 17 -14 22 -16 22 -5 0 8 12 -4 25 -26 14
-22 25 -33 25 -25 1 8 14 -10 30 -40 16 -30 29 -51 30 -46 0 4 9 -2 20 -15 14
-17 19 -20 20 -9 0 13 1 13 10 0 5 -8 10 -10 10 -5 0 6 8 -1 16 -15 14 -24 15
-23 9 25 l-6 50 66 -66 c36 -37 65 -65 65 -62 0 2 -5 14 -11 26 -5 12 8 2 30
-22 23 -24 41 -38 41 -32 0 7 25 -9 55 -35 31 -26 58 -44 62 -41 3 4 22 -7 41
-23 19 -16 39 -27 43 -24 5 3 23 -3 41 -12 18 -10 58 -19 88 -20 30 -2 64 -4
75 -6 14 -2 20 2 19 14 -2 24 5 23 34 -4 14 -13 22 -18 19 -12 -4 7 0 15 9 18
10 4 13 2 8 -7 -5 -9 -4 -9 5 -1 10 10 10 17 0 35 -12 24 -12 24 10 5 12 -11
21 -14 21 -7 0 8 5 9 19 1 29 -15 48 -12 26 4 -18 13 -17 14 13 10 30 -3 33
-2 26 19 l-7 22 23 -20 23 -20 -7 22 c-9 29 8 37 39 17 25 -17 35 -8 13 14 -9
9 -6 11 10 7 12 -2 27 -7 32 -10 6 -3 10 -2 10 4 0 5 -4 13 -10 16 -5 3 -10
11 -10 16 0 6 5 7 10 4 16 -10 12 6 -17 54 -23 41 -24 44 -5 27 26 -23 29 -10
5 23 -9 14 -11 21 -5 17 15 -9 15 -1 2 24 -8 16 -6 18 15 15 24 -2 24 -2 -11
46 -20 27 -31 49 -26 49 5 0 15 -7 22 -16 8 -8 23 -20 34 -26 12 -6 5 7 -18
31 -22 22 -41 48 -42 57 -2 9 -15 30 -31 46 -23 24 -24 28 -8 23 20 -7 20 -7
0 10 -20 17 -20 17 2 10 34 -10 27 4 -10 20 -17 8 -25 14 -17 15 10 0 7 7 -10
21 l-25 20 25 -6 c25 -6 24 -5 -5 21 -18 16 -23 24 -12 20 29 -10 11 10 -58
60 -36 26 -63 49 -61 51 2 2 24 -5 49 -16 46 -20 77 -12 37 9 -11 6 -18 15
-15 20 3 5 -29 27 -72 50 -49 25 -67 38 -48 34 25 -4 27 -3 12 6 -9 6 -15 15
-12 21 4 5 -6 9 -22 10 l-28 1 25 8 c20 6 16 8 -23 9 -27 1 -46 5 -43 10 3 5
-4 11 -15 14 -12 3 -18 10 -15 15 3 6 -13 14 -36 18 -43 8 -43 8 -13 15 l30 7
-27 1 c-16 0 -28 5 -28 9 0 5 -18 14 -40 21 -40 12 -116 69 -105 79 3 3 19 -8
36 -24 24 -22 29 -24 21 -8 -6 11 -18 26 -26 34 -19 15 -21 34 -3 24 6 -4 -6
10 -28 31 -22 20 -31 31 -21 24 18 -13 19 -12 13 5 -6 16 -5 17 8 6 9 -7 19
-10 23 -5 4 4 -10 22 -30 40 -43 36 -47 45 -18 38 25 -7 26 12 2 27 -14 9 -13
10 8 6 72 -13 119 -16 141 -7 20 8 14 10 -36 11 -33 1 -71 5 -85 9 -22 6 -23
8 -7 14 11 4 24 4 30 1 7 -4 -4 10 -23 31 -24 26 -29 36 -16 31 15 -5 16 -4 8
7 -21 25 3 40 52 35 57 -7 52 7 -5 15 -23 3 -46 10 -51 15 -5 5 3 7 22 4 37
-5 38 3 3 22 l-28 15 40 1 c38 2 39 2 13 11 -36 13 -42 35 -17 60 23 23 29 21
32 -9 1 -21 8 -20 42 7 19 15 19 15 5 -3 -14 -18 -14 -19 9 -7 15 8 21 9 17 2
-10 -16 24 -14 57 3 15 8 27 10 27 5 0 -5 -7 -12 -15 -15 -8 -4 -15 -10 -15
-15 0 -6 8 -5 19 1 26 13 34 13 25 -2 -5 -8 0 -9 17 -4 42 13 54 12 53 -6 -1
-11 4 -14 14 -11 10 4 13 2 8 -5 -9 -15 17 -16 64 -2 22 6 36 6 38 1 2 -6 13
-7 28 -1 17 7 23 7 19 0 -4 -7 3 -8 21 -4 16 4 34 6 41 5 7 -1 25 -2 41 -1 15
0 49 1 77 1 27 0 55 5 62 11 9 7 13 7 13 -1 0 -8 12 -4 30 9 27 19 29 19 23 3
-7 -17 -6 -17 22 1 24 16 27 16 22 2 -5 -13 -3 -15 11 -8 9 5 23 7 30 5 7 -3
20 1 28 8 13 10 17 10 24 0 6 -10 9 -10 15 -1 6 9 9 9 15 0 5 -9 17 -7 46 5
81 34 274 58 274 34 0 -4 21 -2 46 6 37 11 45 11 41 1 -4 -10 10 -9 54 5 44
14 87 18 171 17 62 -1 135 2 162 7 35 6 47 5 42 -4 -5 -7 3 -9 26 -3 18 4 65
6 103 5 233 -5 388 -12 445 -22 78 -13 190 -14 190 -3 0 5 33 8 73 6 39 -2
207 -9 372 -16 165 -7 314 -12 330 -11 39 4 43 4 93 0 23 -2 42 1 42 6 0 5 6
4 14 -2 10 -8 16 -9 21 -1 3 6 11 8 16 5 5 -4 13 4 18 17 6 13 10 19 10 14 2
-19 41 34 41 55 0 15 5 19 15 15 18 -7 30 32 20 65 -6 17 -4 21 7 17 11 -5 14
5 12 49 -2 43 0 52 11 43 10 -8 12 -4 10 22 -2 32 -33 64 -101 104 -10 7 -16
15 -12 19 5 5 16 1 25 -7 10 -9 41 -27 70 -42 56 -28 65 -38 69 -74 2 -18 0
-21 -10 -13 -9 8 -11 4 -10 -17 2 -15 6 -37 10 -50 3 -12 2 -22 -4 -22 -5 0
-7 -19 -4 -45 4 -41 3 -45 -13 -39 -16 6 -17 3 -12 -25 6 -27 4 -32 -8 -27
-10 4 -15 -1 -15 -14 0 -13 -5 -18 -15 -14 -10 4 -15 0 -15 -11 0 -11 -5 -15
-15 -11 -9 3 -15 0 -15 -9 0 -12 13 -15 58 -15 31 1 74 -1 95 -4 20 -2 37 0
37 6 0 5 6 8 12 6 7 -3 19 1 26 9 10 10 18 10 34 2 17 -9 25 -6 49 17 16 15
29 24 29 18 0 -5 11 3 25 18 14 15 25 32 25 38 0 6 7 13 15 16 8 3 17 14 20
24 3 11 14 21 23 24 10 4 18 14 19 23 1 10 4 29 7 43 20 98 19 131 -3 161 -13
17 -21 36 -18 42 3 7 -21 25 -57 42 -57 28 -59 30 -32 33 16 2 39 -1 50 -7 12
-6 33 -15 48 -20 17 -6 26 -16 23 -24 -5 -12 39 -60 47 -52 10 10 -5 -155 -16
-173 -7 -12 2 -42 14 -42 13 0 33 59 28 84 -3 15 0 27 8 30 8 3 12 26 13 67 0
66 -6 89 -19 69 -5 -8 -10 2 -14 26 -6 34 -13 42 -57 63 -27 14 -49 28 -49 32
0 4 -13 12 -30 19 -16 7 -28 17 -27 23 2 12 -75 53 -115 62 -19 4 -26 10 -21
21 4 10 -2 17 -16 21 -11 3 -21 10 -21 15 0 6 -14 8 -32 6 -29 -5 -30 -4 -12
10 18 13 17 14 -10 8 -23 -6 -27 -4 -23 8 5 12 -4 16 -36 18 l-42 3 35 18 c35
18 96 15 84 -4 -3 -5 7 -9 23 -9 19 0 24 -3 15 -9 -9 -5 0 -10 28 -14 44 -6
78 -36 57 -49 -8 -5 -7 -8 3 -8 10 0 23 23 37 66 20 62 20 64 2 48 -19 -17
-19 -16 0 38 26 74 47 114 66 122 13 5 14 2 5 -15 -13 -24 -40 -109 -34 -109
2 0 15 21 28 48 13 26 32 56 40 67 15 19 16 19 6 -9 -6 -16 -9 -31 -6 -33 2
-3 -2 -21 -10 -41 -14 -37 -8 -32 23 15 8 11 7 1 -2 -26 -19 -57 -19 -61 6
-31 18 21 20 22 15 5 -4 -16 -2 -15 12 5 9 13 27 36 39 50 l23 25 -24 -55
c-13 -30 -27 -66 -31 -80 -8 -25 -7 -25 13 -6 l21 18 -20 -51 c-27 -73 -23
-94 8 -38 15 26 30 44 35 39 5 -5 -2 -45 -15 -90 -13 -45 -22 -84 -19 -87 14
-13 22 -2 22 30 0 33 24 110 41 129 4 5 2 -15 -6 -45 -22 -81 -16 -102 8 -34
22 59 22 59 25 25 l4 -35 13 25 c13 23 14 19 15 -55 l1 -80 20 50 c26 64 33
70 26 20 l-6 -40 12 32 c22 56 27 48 28 -43 1 -108 13 -152 23 -84 14 91 21
64 19 -71 0 -76 0 -139 2 -139 2 0 17 25 35 56 36 64 50 68 20 6 -28 -57 -25
-62 10 -22 l30 35 -20 -45 c-28 -63 -25 -82 6 -35 l25 40 -5 -31 c-3 -18 -8
-45 -11 -60 l-6 -29 15 25 c10 16 15 19 16 10 0 -13 1 -13 10 0 6 10 8 3 4
-25 l-5 -40 15 30 15 30 -5 -27 c-5 -24 -3 -28 16 -28 11 0 18 -5 15 -10 -3
-6 -1 -10 6 -10 8 0 10 -13 6 -42 -4 -35 -3 -40 6 -24 7 10 20 28 30 40 17 21
17 21 7 -8 -9 -24 -8 -27 5 -22 10 3 15 -1 15 -12 0 -9 8 -27 18 -39 14 -18
40 -26 137 -43 141 -25 235 -33 235 -19 0 5 9 4 20 -3 16 -11 22 -9 34 7 15
19 15 19 16 1 0 -15 3 -16 14 -7 11 9 15 9 19 -1 3 -9 7 -8 12 5 7 17 8 17 20
0 13 -17 14 -16 24 7 6 16 10 19 10 8 1 -20 31 -17 45 5 10 15 2 64 -20 122
-7 17 -6 18 8 7 14 -12 15 -9 1 30 -8 24 -24 54 -36 67 -17 19 -18 23 -5 18
12 -4 15 -2 11 9 -3 7 -1 14 4 14 13 0 54 -45 57 -61 1 -8 8 -25 15 -39 l14
-25 -22 19 c-26 23 -27 16 -2 -32 26 -53 36 -103 21 -112 -9 -6 -9 -12 0 -30
11 -21 12 -21 25 -3 13 16 14 16 15 1 0 -17 33 -20 58 -4 7 4 18 4 25 -1 15
-9 77 -12 77 -3 0 3 14 5 30 4 21 -1 36 5 49 22 22 28 31 30 31 7 0 -9 3 -13
7 -10 3 4 12 2 19 -4 8 -6 23 -7 36 -3 13 4 29 7 37 5 7 -1 10 2 6 9 -4 7 1 9
18 5 20 -5 27 -2 32 15 4 12 9 19 12 16 14 -14 33 17 26 43 -6 23 -5 25 10 12
15 -12 17 -10 17 25 0 22 -9 53 -19 70 -19 31 -19 32 0 27 10 -3 24 -20 31
-39 16 -46 29 -43 22 6 -5 32 -3 40 9 40 9 0 17 -10 19 -23 3 -22 48 -39 48
-18 0 6 14 11 30 11 19 0 33 6 37 16 3 8 12 13 19 10 14 -5 18 5 15 33 -2 8 2
10 11 5 10 -6 10 -4 -1 9 -7 9 -10 17 -5 17 16 0 33 47 21 59 -8 8 -5 11 8 11
16 0 20 8 22 37 1 21 6 39 12 41 7 2 6 10 -2 23 -10 16 -9 21 3 29 8 5 10 10
4 10 -16 0 -25 38 -12 47 7 4 4 11 -7 20 -18 12 -18 13 -1 13 15 0 16 3 6 15
-7 8 -10 15 -7 15 3 0 -5 12 -18 26 -14 15 -23 30 -20 34 2 4 -14 28 -37 53
-40 45 -87 77 -115 77 -7 0 -13 4 -13 9 0 5 -22 12 -50 16 -27 4 -50 10 -50
13 0 11 -52 32 -77 32 -13 0 -23 3 -24 8 -3 40 -9 66 -16 71 -4 3 -9 17 -10
31 -2 32 -7 52 -16 67 -5 7 -5 13 -1 13 3 0 1 7 -7 16 -7 9 -13 31 -12 50 0
19 -5 34 -11 34 -6 0 -4 5 4 10 10 6 11 10 3 10 -7 0 -13 8 -13 18 0 10 -5 23
-12 30 -7 7 -8 12 -2 12 11 0 11 40 0 58 -5 8 -1 10 11 6 16 -5 16 -4 -1 10
-11 9 -16 16 -12 16 5 0 2 8 -5 17 -12 15 -12 16 1 8 12 -7 13 -6 4 6 -7 8
-11 25 -10 39 1 14 -1 35 -6 47 -5 15 -4 23 4 23 6 0 3 9 -7 20 -14 15 -15 20
-4 20 10 1 8 5 -5 15 -19 15 -19 15 4 15 23 0 23 0 4 15 -14 11 -15 14 -4 15
13 0 13 1 0 10 -8 5 -10 10 -3 10 12 0 12 17 0 38 -6 8 -2 12 10 12 15 0 16 2
3 10 -12 8 -12 10 -1 10 9 0 10 4 4 12 -5 7 -8 23 -7 35 0 13 -4 23 -10 23 -6
0 -4 6 4 13 9 7 15 19 15 27 -1 8 3 21 9 28 7 10 5 16 -5 23 -10 6 -11 9 -1 9
7 0 11 4 8 9 -4 5 0 12 6 14 8 3 6 6 -4 6 -22 1 -23 24 -2 45 14 15 14 17 -1
22 -14 6 -14 8 1 25 13 15 14 19 3 19 -12 0 -12 2 1 10 12 7 12 11 -3 28 -17
19 -17 20 10 27 27 6 27 7 9 21 -14 10 -16 14 -5 14 12 0 12 2 -1 10 -12 8
-12 10 5 10 15 0 17 2 6 9 -7 5 -11 13 -7 19 3 6 -1 15 -10 20 -14 8 -12 10
12 16 l29 8 -25 13 c-22 13 -23 14 -5 15 17 0 17 2 5 10 -12 7 -8 10 15 10 29
1 29 1 11 15 -19 15 -19 15 5 16 15 1 18 3 7 6 -9 2 -19 11 -22 19 -4 10 3 14
27 14 l32 1 -31 17 c-35 19 -34 42 2 42 30 0 32 17 2 23 -14 3 -7 5 17 6 33 2
36 4 20 11 -13 6 6 8 55 5 l75 -4 -85 22 -85 22 65 6 c36 3 52 6 37 7 -29 2
-71 32 -45 32 10 0 10 2 -1 9 -10 7 -1 11 32 16 26 4 58 17 73 30 l28 24 -40
-9 c-21 -5 -50 -10 -64 -10 -20 0 -15 5 25 25 l50 25 -45 -5 -45 -5 60 25 60
26 -55 -6 c-35 -3 -50 -2 -41 4 20 13 4 31 -27 31 -23 1 -25 2 -9 11 9 6 15
14 12 20 -4 5 13 9 37 10 l43 1 -40 13 -40 13 45 1 45 2 -32 14 c-34 15 -46
32 -15 21 9 -3 0 10 -20 29 l-38 35 43 7 c38 6 39 7 17 14 -21 6 -19 7 15 9
l40 2 -37 12 c-39 12 -62 27 -31 21 56 -11 97 -14 83 -5 -10 7 8 10 60 11 l75
1 -57 9 c-31 4 -83 16 -115 26 -48 15 -53 18 -30 21 37 5 34 20 -5 24 -31 3
-29 5 31 27 51 20 60 26 45 32 -15 6 -11 8 16 10 30 2 28 3 -15 8 l-50 7 60 8
c33 4 78 11 100 16 l40 8 -40 2 c-39 2 -39 3 -10 10 22 6 9 8 -47 9 -45 0 -78
5 -78 11 0 6 10 11 23 11 15 1 10 4 -13 9 l-35 7 32 2 c60 2 72 16 18 21 l-50
5 65 17 c62 15 63 16 25 17 -60 2 -25 18 59 27 71 7 71 7 31 16 -22 5 -55 7
-74 5 -29 -3 -31 -1 -17 7 10 6 28 19 40 29 20 17 20 17 -19 2 l-40 -15 27 20
c70 54 75 62 20 35 -29 -14 -65 -30 -80 -35 -24 -9 -22 -6 13 26 37 34 38 36
13 30 -14 -3 -34 -9 -45 -12 -13 -5 -15 -4 -8 4 6 6 28 18 50 26 27 10 34 15
20 17 -11 1 -5 5 15 9 l35 7 -25 11 -25 11 25 1 c25 2 25 2 -5 15 l-30 14 35
2 35 1 -45 13 -45 12 40 8 c36 8 38 9 15 15 -15 4 13 9 74 13 59 5 107 13 119
22 24 17 25 16 -78 40 -82 19 -114 34 -75 36 22 1 21 2 -7 10 -18 5 -33 12
-33 16 0 3 15 3 33 0 26 -5 28 -4 10 4 -69 28 -69 29 -28 24 39 -5 39 -5 -10
11 -76 24 -77 34 -5 35 46 0 59 3 45 9 -17 7 -14 9 15 10 29 1 32 3 15 10 -11
5 -33 9 -50 10 -30 2 -30 2 -5 10 17 5 19 8 8 9 -30 2 -20 18 15 25 17 4 46
13 62 21 29 14 27 14 -35 9 -45 -3 -59 -1 -45 5 17 8 13 10 -20 11 l-40 2 60
18 c57 17 59 22 10 33 -11 3 3 6 30 7 45 2 47 3 20 10 l-30 8 30 2 c26 2 23 4
-20 14 l-50 13 60 8 60 9 -45 6 -45 6 40 8 c116 22 188 40 171 44 -15 3 -16 6
-5 13 9 6 -15 8 -66 5 -53 -4 -70 -2 -50 3 l30 9 -30 2 c-16 1 13 8 65 15 52
8 115 21 140 29 l45 15 -85 -5 c-57 -3 -78 -1 -65 5 11 5 35 10 54 10 62 2 26
11 -77 21 -55 5 -116 16 -134 25 -33 15 -33 15 35 10 37 -2 67 -2 67 0 0 2
-15 9 -32 14 -28 9 -24 10 27 6 l60 -4 -70 18 c-53 14 -62 19 -38 20 17 0 34
5 37 10 3 4 -6 6 -19 3 -15 -2 -25 0 -25 7 0 6 17 11 38 12 74 1 81 17 7 19
l-70 2 93 13 c51 7 96 15 99 19 4 3 -27 7 -68 7 -55 1 -65 3 -39 8 35 7 35 7
-17 14 -28 4 -69 14 -90 21 -35 13 -26 14 103 9 90 -4 143 -2 147 4 4 6 -21
13 -66 16 -108 10 -153 27 -51 20 47 -3 84 -2 87 4 3 5 -8 8 -26 6 -26 -2 -27
-1 -9 5 19 6 4 12 -70 32 l-93 25 95 5 c54 3 84 8 70 11 -23 6 -22 6 7 8 60 2
43 18 -26 25 -38 3 -80 10 -93 15 l-23 10 25 0 c14 0 56 -4 94 -9 38 -6 71 -9
73 -7 2 2 -32 19 -74 37 -43 19 -82 37 -87 41 -10 8 57 -5 100 -21 26 -9 27
-9 11 4 -10 8 -17 18 -15 22 2 4 -27 20 -64 34 -36 14 -70 28 -74 33 -4 4 22
8 57 8 35 1 78 5 94 8 26 6 22 8 -31 15 -93 12 -101 26 -16 26 83 0 88 14 10
25 -29 4 -46 10 -38 12 8 2 48 -3 88 -10 40 -8 70 -11 66 -8 -3 3 -47 20 -97
38 l-92 32 65 -5 c72 -6 68 10 -5 22 -22 3 -47 11 -55 16 -11 7 -6 8 15 4 17
-2 71 -7 120 -10 94 -5 93 -5 -50 22 -38 8 -37 8 33 16 66 7 72 9 55 21 -10 8
-29 15 -43 15 -18 0 -21 3 -11 9 11 7 11 9 0 14 -11 4 -11 6 1 7 8 1 -3 8 -25
15 l-40 13 70 2 70 2 -48 8 c-53 9 -72 19 -41 21 10 1 1 5 -21 9 -38 7 -37 7
20 9 82 3 118 19 50 22 l-50 2 40 6 c49 8 25 21 -38 21 -30 0 -38 3 -27 10 13
8 13 9 0 14 -76 24 -76 24 45 27 88 1 108 4 75 9 -25 4 -36 8 -25 9 30 3 0 17
-55 26 -24 4 -60 13 -80 21 l-35 13 55 0 c39 1 51 4 40 11 -12 8 -10 10 10 11
20 0 17 3 -15 14 l-40 13 45 2 c43 2 43 3 15 11 -23 6 -15 7 33 5 74 -3 70 4
-20 34 -38 12 -68 24 -68 26 0 2 19 2 43 -1 31 -4 37 -3 22 4 -19 9 -19 10 4
10 31 1 21 11 -21 21 -32 8 -32 8 13 9 25 1 49 5 55 10 5 5 18 11 29 13 11 2
-14 8 -55 13 -70 9 -72 10 -30 13 l45 4 -70 19 -70 18 55 -5 c30 -3 73 -7 95
-11 59 -8 39 4 -61 37 -70 23 -79 28 -44 24 25 -3 76 -17 114 -30 39 -13 71
-22 73 -20 4 4 -73 54 -122 79 l-30 16 45 2 45 2 -40 7 -40 7 50 2 c38 2 45 4
30 11 -17 7 -14 9 15 11 l35 2 -40 7 c-22 4 -31 8 -20 10 11 2 2 6 -20 10 -37
7 -35 7 25 10 53 2 59 4 35 10 l-30 8 30 2 c19 2 7 6 -35 13 -36 5 -58 12 -50
15 8 2 21 10 29 16 11 9 9 12 -10 17 -21 6 -19 7 11 9 l35 3 -35 7 c-35 7 -35
7 -5 9 17 1 36 5 44 10 11 7 7 13 -20 24 -31 14 -32 15 -9 16 20 1 22 3 10 11
-8 5 -26 10 -40 11 -14 1 -6 5 20 9 42 7 43 7 10 9 -24 1 -31 4 -22 10 10 6 6
10 -15 16 l-28 8 25 7 c14 5 39 8 57 9 45 1 50 18 11 36 -18 8 -24 13 -13 9
11 -3 34 -8 50 -10 27 -5 27 -4 -10 15 -22 10 -33 20 -25 21 10 0 6 6 -10 15
l-25 14 30 1 c28 2 27 3 -15 18 l-45 16 43 9 c50 10 50 12 -4 31 l-39 15 35 0
c26 1 31 4 20 11 -8 5 -10 10 -5 11 6 0 1 4 -10 9 -18 8 -18 9 5 10 23 1 23 2
5 10 -13 6 -15 9 -5 9 13 1 13 2 0 11 -12 8 -11 10 8 10 26 0 30 19 5 21 -10
1 -4 5 12 9 l30 8 -27 1 c-49 2 -42 21 9 22 l48 1 -40 13 c-25 8 -32 13 -20
14 16 2 13 6 -15 21 -46 25 -24 25 42 0 63 -24 74 -25 35 -4 -51 27 -21 26 33
-1 29 -14 54 -24 57 -21 3 2 -44 30 -103 60 -61 31 -100 56 -89 56 11 1 14 4
8 7 -7 2 -13 13 -13 24 0 10 -6 19 -12 19 -9 0 -9 3 1 9 11 7 10 10 -5 14 -13
3 -9 5 11 7 l30 2 -35 13 -35 13 40 3 40 2 -40 7 c-31 6 -34 7 -12 9 29 1 33
21 7 33 -24 12 69 -3 140 -23 35 -9 66 -16 68 -14 2 1 -43 19 -100 38 -73 25
-94 36 -73 37 l30 1 -24 20 -25 20 30 -5 c26 -6 26 -5 -6 8 -29 12 -31 15 -12
15 13 1 20 5 17 11 -6 9 111 -30 136 -45 5 -4 9 -4 9 0 0 3 -37 23 -81 45 -94
45 -106 54 -64 46 18 -4 10 2 -20 14 -46 18 -38 20 30 5 11 -3 2 4 -20 14
l-40 20 50 1 50 2 -39 12 c-25 8 -35 15 -28 20 7 4 20 5 30 2 9 -3 24 -1 32 4
12 7 8 10 -15 11 -29 1 -30 1 -5 9 l25 8 -24 1 c-13 1 -21 4 -18 8 4 3 -10 14
-30 24 l-38 17 30 2 c30 2 30 2 5 10 -25 8 -25 8 5 10 26 1 23 4 -25 20 -62
20 -55 25 17 10 30 -6 59 -7 78 -1 22 7 24 10 9 10 -11 1 -29 8 -40 16 -17 14
-15 15 26 10 l45 -6 -50 21 c-61 26 -70 34 -30 27 17 -3 55 -8 85 -11 l55 -6
-65 24 c-103 37 -172 77 -104 60 21 -5 25 -4 19 6 -6 10 -3 12 13 8 15 -4 19
-2 15 8 -3 8 -10 11 -16 7 -6 -4 -7 -1 -3 6 5 7 15 10 23 7 29 -11 3 12 -28
25 -28 11 -30 14 -13 20 18 7 18 8 -1 8 -11 1 -27 6 -35 11 -11 7 -5 9 20 5
26 -4 30 -3 15 4 -14 6 -2 8 40 6 48 -3 53 -2 25 4 -19 5 -30 9 -25 11 6 1
-15 10 -45 20 l-55 19 45 1 c33 0 41 3 30 10 -8 5 -10 10 -5 10 20 1 -21 20
-45 21 -14 1 -6 5 20 9 30 5 36 7 18 8 -16 1 -28 6 -28 11 0 5 -10 12 -22 14
-17 3 -13 5 12 7 l35 2 -30 8 c-26 7 -22 8 25 10 47 2 51 3 25 10 -25 6 -20 8
30 10 33 2 49 5 36 7 -19 4 -21 7 -10 14 10 6 5 9 -17 9 -17 0 -46 3 -65 7
-27 5 -30 8 -14 13 16 6 10 10 -25 18 l-45 10 40 2 40 3 -35 7 -35 7 45 3 c38
2 41 3 20 10 -19 6 -11 8 35 10 l60 2 -60 13 -60 12 45 3 c49 2 46 4 -15 16
l-40 7 50 12 50 12 -70 8 c-79 9 -129 23 -84 24 34 1 59 28 35 37 -9 4 -31 4
-49 0 -23 -4 -28 -3 -17 4 8 5 23 10 33 10 10 0 20 7 23 15 4 8 14 16 23 17 9
0 -6 4 -34 8 -47 6 -47 7 -12 8 23 1 36 6 32 12 -4 6 9 10 32 11 21 1 52 5 68
9 21 5 4 8 -57 9 -79 1 -109 11 -75 24 6 3 1 6 -13 6 -20 1 -22 3 -10 11 13 8
12 10 -2 10 -10 0 -17 6 -15 13 1 7 -7 11 -23 10 -24 -3 -24 -2 -5 9 11 6 26
18 33 25 11 11 7 13 -25 14 l-38 1 40 13 c29 9 34 13 17 14 -13 1 -21 5 -17
11 3 5 -9 13 -27 18 -33 9 -32 9 32 25 47 11 57 16 35 17 -16 1 -39 5 -50 9
-18 7 -17 9 10 19 29 12 29 12 -10 6 -47 -7 -42 2 12 21 l38 14 -35 2 c-33 1
-34 2 -10 10 19 7 15 7 -18 4 -28 -4 -41 -2 -37 5 3 5 14 10 24 10 10 0 24 7
31 15 11 13 8 14 -21 10 l-34 -5 35 13 34 14 -34 7 -35 7 35 20 c33 19 20 21
-25 4 l-20 -8 20 16 c11 9 16 17 12 17 -4 0 -3 9 3 20 10 19 9 20 -17 14 -38
-9 -25 3 23 20 22 8 31 15 20 15 -11 1 -16 4 -12 8 4 5 -12 13 -36 19 l-43 12
40 1 c54 2 83 20 35 22 l-35 2 40 7 c28 5 32 8 15 9 -15 0 -30 5 -35 10 -6 6
-32 11 -60 13 l-50 3 45 12 c25 6 36 12 25 13 l-20 1 20 9 c16 7 13 9 -17 9
-29 1 -36 4 -32 16 4 10 0 15 -12 16 -18 0 -17 1 1 9 17 7 14 9 -15 10 l-35 2
40 13 c32 11 35 14 15 14 -20 1 -22 3 -10 11 11 7 2 9 -30 5 l-45 -5 35 14
c32 13 33 15 10 16 -24 2 -24 3 5 11 22 6 15 7 -29 4 -76 -5 -65 4 32 26 l77
17 -55 2 c-47 2 -51 3 -25 10 28 7 28 8 5 9 -20 1 -22 3 -10 11 22 14 4 12
-38 -5 l-37 -15 35 32 c27 24 29 28 8 15 -37 -23 -48 -21 -19 3 26 22 21 26
-12 10 -14 -7 -9 1 13 20 40 35 35 38 -23 10 l-42 -21 26 23 c14 13 35 29 45
35 16 11 6 12 -56 8 l-75 -5 45 14 45 14 -35 8 -35 8 40 13 40 13 -62 -3 c-78
-3 -69 9 17 21 44 7 54 10 30 11 -27 1 -31 4 -20 11 11 7 3 10 -30 11 -39 1
-42 2 -20 10 18 6 7 7 -35 4 l-60 -4 40 15 40 14 -40 -6 -40 -5 38 26 c46 32
49 42 5 15 -46 -28 -59 -25 -23 5 32 26 24 35 -9 10 -36 -27 -41 -15 -6 15 41
35 35 38 -15 9 -20 -12 -39 -19 -42 -15 -4 3 -2 6 4 6 6 0 19 12 28 27 l18 26
-39 -23 -39 -23 45 48 45 49 -40 -31 c-64 -48 -73 -49 -30 -3 l40 43 -47 -32
c-61 -41 -70 -39 -28 4 39 41 36 43 -17 13 l-38 -21 40 43 c37 40 38 42 8 22
-54 -38 -47 -24 16 28 99 82 96 94 -6 23 -56 -39 -64 -42 -43 -18 26 31 12 23
-39 -20 l-25 -20 23 33 c12 18 42 49 67 69 24 20 41 39 39 41 -5 6 -65 -38
-114 -82 l-34 -31 21 38 c12 20 19 37 16 37 -3 0 -21 -11 -41 -25 -20 -13 -39
-22 -41 -20 -3 2 7 20 22 39 35 47 33 56 -6 20 l-32 -29 17 28 c21 33 12 35
-22 5 l-25 -23 17 25 c37 55 40 65 8 36 -33 -32 -36 -31 -21 8 12 32 4 33 -27
4 -29 -27 -30 -10 -2 26 21 27 14 36 -11 14 -8 -7 -1 2 15 21 l30 34 -40 -27
c-46 -30 -72 -35 -35 -6 l25 20 -37 -15 c-41 -16 -91 -21 -53 -5 17 7 16 9
-10 10 -26 1 -27 3 -10 10 l20 9 -20 1 -20 1 20 9 c14 6 -3 9 -55 10 l-75 2
50 13 50 13 -45 2 -45 2 45 12 c71 20 79 26 25 21 l-50 -4 35 13 c28 12 31 15
13 15 -13 1 -23 6 -23 11 0 6 -19 11 -42 11 l-43 2 40 7 c22 4 31 8 20 9 -17
1 -18 3 -5 11 11 7 5 10 -25 11 -32 0 -36 2 -20 9 15 6 8 9 -30 10 -46 2 -48
3 -23 13 38 15 44 37 10 38 -20 1 -14 5 23 14 49 13 49 13 15 15 -33 2 -33 3
-10 10 23 7 23 8 -10 10 l-35 2 30 8 c22 6 25 8 10 10 -15 2 -12 4 10 10 24 6
19 8 -30 9 -77 1 -63 16 36 36 107 22 106 24 -16 20 -91 -2 -105 -1 -78 9 47
17 50 26 7 21 l-39 -5 40 14 39 13 -39 6 c-22 4 -62 7 -90 8 -37 0 -45 3 -30
9 14 6 15 9 5 10 -10 1 -9 4 5 10 16 7 14 9 -14 9 -52 1 -33 9 55 23 43 6 71
14 61 16 -9 2 -14 8 -11 14 5 8 -11 9 -52 5 -41 -4 -53 -3 -39 4 14 7 4 8 -37
4 -32 -3 -58 -3 -58 -1 0 2 29 14 65 26 69 23 85 33 35 24 -16 -4 -51 -3 -77
1 -38 6 -44 9 -28 16 11 4 16 8 10 9 -5 1 -1 5 10 10 17 7 16 9 -10 10 -29 1
-29 1 -10 17 19 15 19 15 -8 9 -26 -6 -27 -5 -15 14 7 11 16 20 20 20 5 0 8 5
8 10 0 6 -29 10 -66 10 -43 0 -70 5 -80 14 -12 13 -9 15 19 22 l32 8 -40 12
-40 12 33 7 c38 9 43 25 8 25 -29 0 -46 20 -19 21 31 1 -15 15 -77 24 -46 7
-51 10 -30 16 l25 7 -27 1 c-32 1 -39 21 -8 21 11 0 20 4 20 9 0 10 -34 21
-67 21 -13 0 -23 5 -23 10 0 6 7 10 15 10 24 0 17 20 -7 21 -22 0 -22 1 -3 9
15 7 10 9 -22 9 -24 1 -43 5 -43 10 0 5 -21 12 -47 16 l-48 7 54 14 c73 19 74
24 5 18 l-59 -4 35 14 35 15 -60 -5 -60 -5 40 19 40 20 -40 -5 c-22 -2 -48 -6
-58 -8 -9 -2 -15 1 -11 6 3 5 11 9 18 9 7 0 21 7 32 15 17 13 15 14 -26 10
l-45 -5 30 15 30 15 -35 -7 c-54 -10 -100 -11 -93 0 3 5 -4 6 -18 3 -21 -6
-21 -5 4 9 39 22 33 26 -14 10 -51 -18 -48 -18 -45 1 1 9 13 23 27 30 24 14
24 14 -6 8 -16 -3 -43 -10 -58 -14 -17 -6 -25 -6 -22 0 9 15 -1 12 -45 -10
-57 -29 -49 -17 13 20 28 17 41 28 29 25 -13 -4 -35 -8 -48 -10 l-25 -2 23 25
c20 22 16 21 -27 -8 -41 -27 -46 -29 -30 -10 l20 24 -25 -17 c-13 -9 -31 -17
-38 -17 -12 0 -12 3 -1 17 9 11 10 14 2 9 -7 -4 -28 -9 -46 -11 -25 -3 -34 -1
-34 10 0 8 3 12 7 10 4 -2 20 10 36 28 29 31 29 32 2 8 -16 -14 -28 -22 -28
-18 0 3 -14 2 -31 -3 -28 -8 -29 -7 -17 7 12 15 11 15 -11 4 -13 -7 -37 -14
-52 -15 l-29 -2 27 29 28 29 -37 -22 c-23 -13 -38 -17 -38 -10 0 6 -4 9 -9 5
-11 -6 -10 -45 0 -45 11 0 49 -69 49 -89 0 -21 22 -71 32 -71 4 0 5 -9 3 -20
-2 -11 1 -20 7 -20 5 0 7 -7 4 -16 -3 -8 -2 -12 4 -9 6 3 10 2 10 -3 0 -6 -7
-13 -16 -16 -14 -5 -14 -9 -2 -29 15 -24 13 -67 -3 -67 -6 0 -7 -4 -4 -10 3
-5 0 -10 -9 -10 -8 0 -16 -6 -19 -12 -4 -10 -7 -10 -18 0 -10 9 -10 12 -1 12
19 0 43 62 30 78 -6 6 -7 12 -2 12 5 0 3 4 -5 9 -12 8 -12 12 -2 25 10 12 10
16 2 16 -7 0 -9 5 -6 10 3 6 1 10 -6 10 -6 0 -9 8 -6 19 2 10 -4 29 -14 42
-10 13 -19 32 -19 42 0 17 -29 64 -57 95 -7 7 -13 17 -13 22 0 5 -14 25 -31
45 -19 21 -26 35 -18 35 8 1 0 7 -16 14 -17 7 -36 20 -44 29 -7 10 -20 17 -28
17 -8 0 -12 4 -9 8 3 5 -5 14 -17 20 -62 31 -157 72 -167 72 -5 0 -10 5 -10
10 0 6 -10 10 -22 10 -13 1 -41 8 -63 16 -22 8 -47 16 -55 19 -8 2 -28 9 -45
15 -38 15 -185 21 -225 10 -16 -5 -37 -15 -45 -22 -32 -29 -45 -38 -52 -38
-10 0 -37 -31 -53 -60 -11 -21 -20 -88 -22 -170 -1 -35 6 -72 17 -89 3 -5 1
-13 -5 -16 -7 -4 -7 -12 -2 -18 12 -17 9 -40 -5 -44 -7 -3 -10 5 -9 21 2 14
-1 26 -7 26 -5 0 -4 7 3 15 7 9 8 15 2 15 -5 0 -12 12 -14 28 -8 43 -12 57
-23 64 -6 5 -6 8 1 8 18 0 9 81 -10 92 -9 5 -16 16 -16 25 0 11 -4 13 -12 6
-24 -19 -96 -12 -121 11 -13 12 -39 23 -57 24 -19 1 -39 7 -44 12 -6 6 -17 10
-26 10 -9 0 -25 9 -35 20 -10 11 -24 20 -32 20 -7 0 -16 7 -20 16 -5 13 -7 13
-15 2 -7 -10 -15 -6 -36 19 -22 25 -31 30 -40 21 -9 -9 -12 -9 -12 1 0 7 -4 9
-10 6 -5 -3 -10 -2 -10 3 0 6 -7 13 -16 16 -10 4 -13 2 -9 -7 4 -6 -4 0 -17
15 -21 25 -24 26 -34 11 -10 -16 -12 -16 -37 0 -15 10 -27 22 -27 27 0 6 -4
10 -9 10 -5 0 -7 -10 -3 -22 5 -22 4 -22 -15 -5 -11 9 -22 14 -26 11 -11 -12
-82 18 -105 44 -13 16 -20 20 -16 10 7 -20 -6 -23 -34 -9 -18 9 -63 28 -97 41
-46 18 -141 44 -152 42 -6 -1 -20 9 -31 23 -16 20 -21 22 -24 10 -3 -13 -6
-13 -30 -1 -15 8 -29 12 -32 8z m1278 -707 c-4 -8 -1 -22 6 -30 15 -18 -1 -20
-18 -3 -7 7 -8 17 -1 30 12 22 21 24 13 3z m26 -105 c0 -5 -7 -7 -15 -4 -8 4
-15 8 -15 10 0 2 7 4 15 4 8 0 15 -4 15 -10z m0 -48 c0 -15 -2 -15 -10 -2 -13
20 -13 33 0 25 6 -3 10 -14 10 -23z m-10 -32 c8 -5 11 -10 5 -10 -5 0 -17 5
-25 10 -8 5 -10 10 -5 10 6 0 17 -5 25 -10z m6 -35 c10 -8 14 -15 8 -15 -5 0
-19 7 -30 15 -10 8 -14 15 -8 15 5 0 19 -7 30 -15z m1009 -35 c-3 -5 -13 -10
-21 -10 -21 0 -17 -28 6 -42 26 -16 25 -34 0 -48 -19 -10 -20 -10 -8 10 11 19
10 24 -9 37 -13 9 -23 21 -23 28 0 6 10 17 23 23 29 14 40 15 32 2z m-1060
-88 c-3 -3 -11 0 -18 7 -9 10 -8 11 6 5 10 -3 15 -9 12 -12z m929 -27 c-9 -14
-14 -36 -12 -50 3 -13 1 -22 -3 -19 -13 8 -11 68 3 82 21 21 29 13 12 -13z
m40 -104 c-2 -3 -12 3 -22 13 -16 17 -16 18 5 5 12 -7 20 -15 17 -18z m21 -41
c9 -16 13 -30 11 -30 -3 0 -14 14 -26 30 -12 17 -17 30 -11 30 6 0 17 -13 26
-30z m-1422 -1164 c-10 -81 43 -188 108 -222 28 -14 32 -14 64 6 35 22 92 99
125 172 11 24 17 32 14 18 -19 -73 -100 -189 -174 -248 l-47 -38 -106 2 c-59
0 -110 3 -113 7 -4 3 3 22 15 42 11 20 15 33 9 29 -7 -4 -4 2 6 14 11 12 15
22 10 22 -5 0 0 7 10 15 26 20 13 19 -25 -1 -36 -18 -51 -12 -20 8 23 14 28
38 9 38 -8 1 -6 6 5 14 18 14 19 36 2 48 -6 4 -1 8 9 8 20 0 20 0 0 15 -17 13
-17 14 -1 15 9 0 16 4 15 9 -2 8 39 40 88 70 1 1 -1 -19 -3 -43z m292 -8 c-16
-57 -62 -136 -103 -176 l-44 -44 -35 33 c-19 19 -39 43 -45 54 -11 20 -11 20
11 1 21 -19 21 -18 -3 35 -35 74 -34 78 20 76 45 -2 47 -4 63 -44 22 -57 30
-62 25 -16 -5 45 8 65 56 86 51 22 63 21 55 -5z m776 -979 c54 -10 142 -34
196 -53 101 -36 376 -155 448 -195 53 -29 41 -25 -165 58 -281 115 -493 177
-725 215 -16 2 11 2 60 0 50 -3 133 -14 186 -25z m-1591 -14 c14 -8 41 -15 60
-15 73 -1 75 -40 3 -77 -21 -11 -40 -29 -43 -41 l-5 -22 -33 20 c-28 17 -32
23 -22 35 7 8 27 15 46 15 31 0 64 21 64 40 0 11 -57 27 -124 36 -31 5 -43 10
-34 15 20 13 60 10 88 -6z m1071 -130 c125 -25 274 -65 339 -89 19 -7 52 -16
73 -20 31 -6 37 -5 31 6 -6 11 -5 11 8 0 13 -10 17 -10 20 0 3 8 6 7 11 -4 4
-13 1 -16 -15 -13 -38 8 -7 -11 138 -84 149 -75 326 -187 458 -289 75 -58 356
-311 356 -320 0 -6 -15 6 -140 113 -222 190 -490 374 -686 471 -127 63 -164
74 -259 75 l-40 1 30 13 29 13 -68 21 c-78 24 -94 26 -51 5 35 -18 35 -17
-130 25 -61 16 -166 36 -235 46 -174 24 -224 35 -135 29 39 -3 105 -9 148 -15
98 -13 111 -6 22 12 -36 7 -65 16 -65 21 0 13 29 10 161 -17z m181 6 c441 -76
905 -244 1193 -432 148 -96 444 -315 330 -244 -435 272 -521 322 -678 392
-273 122 -673 238 -1017 296 -16 3 -10 5 17 6 22 0 92 -8 155 -18z m3275 3
c-3 -3 -12 -4 -19 -1 -8 3 -5 6 6 6 11 1 17 -2 13 -5z m-2807 -49 c0 -2 -9 -3
-19 -2 -11 0 -18 5 -15 9 4 6 34 0 34 -7z m-924 -69 c78 -41 185 -102 238
-135 101 -64 117 -72 95 -43 -13 16 -12 16 4 3 16 -13 20 -13 27 -1 14 22 -2
34 -115 86 -104 48 -141 73 -50 34 27 -12 55 -18 62 -16 13 5 267 -92 417
-158 122 -54 63 -21 -139 80 -115 57 -207 104 -204 104 3 0 34 -12 69 -26 34
-14 68 -23 75 -20 7 2 21 -4 30 -14 9 -10 56 -35 103 -55 128 -55 327 -156
449 -229 109 -64 326 -176 308 -158 -16 15 -180 123 -298 196 -164 101 -443
238 -512 250 -14 3 -33 10 -40 16 -7 6 -78 35 -157 65 -174 66 -162 72 22 10
74 -25 149 -45 168 -45 18 0 31 -4 28 -9 -3 -5 49 -32 117 -61 260 -111 449
-223 700 -412 78 -59 169 -117 250 -157 69 -36 125 -67 122 -69 -2 -3 -45 17
-95 43 -51 26 -93 45 -96 43 -2 -2 19 -21 46 -42 28 -21 53 -43 56 -48 4 -6
-36 21 -87 60 -52 38 -132 89 -179 112 -47 23 -83 40 -80 37 3 -2 52 -40 110
-83 58 -44 168 -142 245 -218 77 -76 97 -99 45 -49 -52 49 -131 117 -175 152
-163 130 -466 320 -632 397 -176 82 -445 196 -450 191 -6 -6 10 -16 152 -97
214 -121 337 -211 563 -412 121 -109 170 -162 69 -75 -138 118 -392 315 -492
382 -115 77 -287 174 -317 178 -9 2 -26 12 -38 22 -17 15 -23 16 -33 5 -9 -10
-9 -11 0 -6 7 4 17 -2 22 -13 17 -30 13 -36 -10 -15 -17 16 -22 16 -29 4 -7
-11 5 -28 48 -67 31 -29 60 -52 63 -53 3 0 34 -33 69 -72 l63 -73 -84 81
c-112 108 -158 146 -169 139 -5 -3 -12 0 -16 6 -5 8 -3 9 6 4 9 -5 11 -4 6 4
-4 6 -13 8 -19 4 -7 -4 -25 -8 -42 -9 -16 -1 -34 -2 -39 -3 -5 -1 -2 -8 5 -18
13 -15 12 -15 -9 -4 -22 12 -23 11 -12 -8 6 -12 14 -21 18 -21 4 -1 25 -17 47
-36 34 -31 30 -29 -27 10 -65 46 -67 46 -62 21 3 -20 1 -25 -8 -19 -7 5 -21 9
-30 9 -21 2 -19 -1 51 -87 36 -44 33 -42 -17 12 -48 52 -63 62 -73 53 -9 -9
-16 -9 -25 -2 -10 8 -15 4 -20 -15 -5 -20 -9 -24 -19 -16 -9 7 -15 7 -19 1 -4
-5 -15 -8 -26 -6 -38 7 -31 -30 25 -131 75 -136 69 -144 -9 -11 -39 68 -73
114 -90 122 -20 11 -26 11 -26 1 0 -15 -92 -13 -132 3 -23 8 -29 7 -37 -7 -13
-22 -17 -22 -37 6 -13 19 -23 23 -47 19 -23 -3 -31 0 -34 14 -3 11 -9 17 -13
14 -4 -3 -13 2 -20 10 -7 8 -21 15 -31 15 -11 0 -19 7 -19 15 0 9 -6 12 -15 9
-9 -4 -15 0 -15 9 0 36 -90 63 -128 38 -14 -9 18 -102 87 -255 17 -38 30 -71
28 -73 -4 -4 -81 159 -92 195 -20 65 -10 -14 35 -302 28 -175 50 -325 49 -334
-3 -50 -111 555 -125 697 -4 47 -10 68 -15 59 -5 -9 -18 -130 -29 -269 -11
-140 -22 -261 -24 -269 -14 -60 15 389 33 500 9 54 7 77 -4 48 -3 -7 -18 -99
-34 -203 -31 -205 -39 -218 -17 -28 7 65 13 134 12 153 0 19 3 49 7 65 7 28 4
33 -32 55 -45 28 -45 28 -31 64 12 32 27 33 57 4 28 -26 37 -28 130 -32 73 -3
103 -16 103 -43 0 -9 6 -13 15 -9 9 3 15 0 15 -8 0 -8 10 -16 23 -20 12 -3 33
-15 47 -28 13 -12 31 -23 39 -25 42 -6 61 -15 61 -29 0 -12 4 -13 21 -3 12 6
33 8 48 5 62 -15 121 -16 121 -2 0 7 -23 45 -50 84 -28 40 -48 72 -45 72 2 0
30 -35 62 -77 66 -88 77 -99 81 -77 3 12 7 13 18 3 10 -8 14 -8 14 0 0 7 10
10 25 7 14 -3 25 0 25 5 0 6 4 8 9 5 13 -8 41 4 41 17 0 6 -10 22 -22 35 -25
28 -5 20 29 -11 20 -18 23 -18 29 -4 5 13 10 14 25 6 13 -7 19 -6 19 1 0 14
-140 105 -262 170 -141 75 -125 79 21 6 39 -20 114 -65 167 -101 65 -44 102
-64 115 -60 12 4 16 12 12 23 -6 15 -5 16 12 2 11 -9 16 -10 11 -2 -12 21 3
33 26 21 15 -8 19 -8 13 1 -14 23 -153 105 -314 187 -90 46 -156 83 -146 83
10 0 82 -33 161 -74z m829 54 c8 -13 -5 -13 -25 0 -13 8 -13 10 2 10 9 0 20
-4 23 -10z m54 -4 c10 -12 9 -14 -6 -11 -10 2 -22 4 -28 4 -5 1 -3 6 5 11 19
12 15 12 29 -4z m-1626 -55 c11 -9 24 -25 30 -36 6 -13 -4 -8 -30 15 -21 19
-53 45 -69 58 l-29 23 40 -22 c22 -12 48 -29 58 -38z m-10 -77 c12 -12 -23
-64 -43 -64 -25 0 -25 4 2 40 22 31 30 35 41 24z m44 -286 c-3 -8 -6 -5 -6 6
-1 11 2 17 5 13 3 -3 4 -12 1 -19z m10 -470 c-3 -8 -6 -5 -6 6 -1 11 2 17 5
13 3 -3 4 -12 1 -19z m4540 -784 c-3 -3 -12 -4 -19 -1 -8 3 -5 6 6 6 11 1 17
-2 13 -5z m-1609 -1129 c-3 -3 -9 2 -12 12 -6 14 -5 15 5 6 7 -7 10 -15 7 -18z
m1472 -165 c13 -9 13 -10 0 -10 -8 0 -22 5 -30 10 -13 9 -13 10 0 10 8 0 22
-5 30 -10z m-3266 -51 c-10 -11 -28 -25 -39 -31 -12 -5 -7 3 13 21 37 35 55
42 26 10z m-830 -42 c-4 30 -2 33 5 17 14 -31 28 -37 40 -17 9 15 10 12 11
-16 l0 -33 20 23 c17 21 19 21 13 4 l-6 -20 23 20 23 20 -12 -22 c-16 -32 -14
-38 9 -18 19 18 26 11 21 -19 -1 -5 9 -2 23 8 37 24 43 20 15 -11 -23 -27 -23
-27 -1 -8 20 16 25 17 32 5 6 -8 10 -24 11 -35 0 -14 6 -8 20 20 13 28 19 34
19 20 1 -19 2 -19 9 -1 7 18 8 18 14 2 4 -10 7 -30 8 -44 l0 -27 10 25 c8 20
12 22 19 10 8 -13 10 -12 10 3 0 35 20 5 20 -31 l1 -37 14 25 c14 24 14 24 8
-14 -6 -36 -5 -38 15 -27 16 8 21 7 26 -5 3 -9 3 -20 0 -26 -4 -6 2 -6 14 1
33 18 37 13 11 -16 -13 -14 -18 -23 -11 -19 6 4 12 2 12 -4 0 -7 6 -8 19 0 28
15 35 12 20 -7 -13 -14 -11 -14 19 1 19 10 41 15 49 11 9 -3 25 2 37 12 12 10
1 -4 -24 -30 -24 -26 -39 -47 -33 -47 7 0 15 4 18 10 3 5 16 15 28 21 34 17
-47 -64 -102 -102 l-46 -32 30 33 c30 33 29 34 -24 12 -9 -3 -12 -1 -7 6 9 14
-3 15 -24 2 -25 -16 -31 13 -7 39 l22 24 -32 -16 c-28 -15 -32 -15 -37 -1 -3
8 -2 13 2 10 4 -2 8 4 8 14 0 15 -4 17 -19 8 -26 -13 -31 -4 -19 31 14 38 7
40 -12 4 l-15 -28 -1 43 c0 39 -19 62 -21 25 0 -15 -2 -15 -9 2 -7 17 -9 17
-9 3 -2 -31 -21 -19 -21 12 0 35 -19 41 -21 8 -2 -22 -2 -21 -6 2 -5 23 -6 23
-20 -10 -15 -34 -15 -35 -24 -12 -5 13 -7 28 -3 33 9 15 -13 10 -26 -6 -7 -9
-15 -13 -18 -10 -3 3 3 15 14 27 l19 22 -27 -17 c-27 -17 -34 -12 -28 18 1 5
-9 1 -21 -10 l-22 -20 7 30 7 30 -22 -25 c-18 -21 -20 -22 -15 -5 5 17 3 16
-15 -5 l-22 -25 5 37 c3 25 1 35 -6 28 -15 -15 -36 -12 -36 4 0 8 -4 18 -10
21 -6 4 -7 -6 -3 -27 l6 -33 -37 40 -37 40 7 -33 c6 -32 5 -33 -15 -20 -18 11
-23 11 -31 -2 -7 -12 -11 -10 -19 10 -9 24 -10 23 -11 -10 l-1 -35 -14 30
c-11 24 -14 26 -14 10 -1 -17 -3 -17 -11 -5 -8 12 -10 12 -11 -5 0 -15 -3 -13
-11 9 -8 20 -13 25 -19 15 -8 -14 -16 1 -34 61 -7 24 -7 24 9 5 12 -15 15 -16
16 -5 0 13 1 13 11 0 8 -11 9 -6 5 20 -5 35 -5 35 9 10 13 -22 14 -23 15 -5 0
17 2 17 10 5 8 -12 10 -12 11 5 0 14 5 10 16 -15 l15 -35 18 23 c17 20 19 21
23 5 3 -11 5 -6 6 12 l2 30 14 -25 c9 -15 14 -19 15 -10 0 13 1 13 10 0 8 -12
10 -12 10 -1 0 11 5 10 20 -4 23 -21 23 -21 10 25 l-9 35 39 -43 39 -43 -5 38z
m866 -3 c-8 -8 -23 -20 -34 -26 -19 -10 -18 -8 3 16 26 27 53 37 31 10z
m-1210 -39 c30 -15 50 -43 50 -67 -1 -7 -7 -2 -16 12 -15 25 -15 25 -9 -10 4
-24 3 -31 -4 -21 -13 20 -44 24 -37 5 3 -8 9 -21 13 -30 4 -12 -4 -10 -33 10
-46 31 -64 34 -39 6 19 -21 15 -23 -33 -14 -17 4 -38 17 -46 30 -15 21 -14 23
4 19 23 -4 26 5 8 24 -9 9 -2 8 25 -3 38 -15 49 -8 22 14 -21 18 -13 22 19 10
15 -5 38 -12 53 -14 l26 -5 -23 24 c-27 29 -21 31 20 10z m-149 -112 c15 -16
18 -24 9 -21 -60 21 -65 21 -51 4 12 -14 11 -16 -4 -16 -11 0 -15 -5 -11 -16
4 -10 0 -15 -12 -13 -9 1 -30 1 -46 0 -25 -1 -27 -3 -15 -18 12 -15 12 -16 -3
-10 -10 3 -18 2 -18 -4 0 -6 -4 -7 -10 -4 -5 3 -10 1 -10 -5 0 -7 -7 -9 -16
-6 -12 4 -15 2 -10 -9 6 -17 -9 -21 -19 -5 -10 17 -25 11 -18 -7 5 -15 3 -16
-8 -5 -17 16 -37 16 -21 0 7 -7 12 -17 12 -22 -1 -6 -10 0 -21 13 l-20 24 -6
-21 c-3 -12 -7 -22 -10 -22 -18 0 -83 50 -83 64 0 3 12 1 26 -4 33 -13 47 -13
38 1 -4 8 1 9 17 4 20 -6 22 -5 12 6 -19 20 -15 31 6 19 30 -15 41 -12 41 12
l0 21 25 -23 c25 -24 36 -16 13 9 -11 11 -9 11 11 1 21 -11 23 -10 18 4 -7 19
4 21 21 4 9 -9 12 -8 12 6 0 12 5 16 15 12 8 -3 15 -1 15 5 0 6 5 7 10 4 6 -3
10 -1 10 5 0 7 7 9 18 5 14 -5 15 -4 5 6 -20 20 -16 24 21 26 25 1 40 -5 57
-24z m2988 -145 c19 -36 19 -39 3 -19 -31 38 -59 88 -41 74 8 -6 25 -31 38
-55z m-3371 16 c12 -8 27 -24 33 -35 9 -19 9 -19 -10 -10 -29 16 -39 13 -16
-6 18 -14 18 -15 2 -9 -11 3 -31 9 -45 12 l-27 7 25 -28 25 -28 -26 17 c-15 9
-29 26 -32 38 -5 17 -2 19 19 15 24 -4 33 6 14 18 -11 7 -4 25 8 25 4 0 18 -7
30 -16z m3353 -36 c16 -29 2 -21 -22 15 -17 23 -18 28 -6 18 10 -8 23 -23 28
-33z m-3465 -18 c3 0 2 4 -1 10 -3 6 1 7 10 3 11 -4 13 -8 5 -13 -8 -5 -6 -11
5 -20 8 -7 15 -17 15 -23 0 -8 -3 -8 -11 0 -15 15 -39 5 -32 -13 6 -17 -9 -18
-26 -1 -10 10 -11 8 -5 -7 6 -15 4 -17 -12 -9 -27 13 -148 17 -140 4 4 -6 -7
-8 -30 -4 -24 4 -35 3 -31 -4 7 -11 -49 -27 -64 -17 -5 3 -6 -2 -3 -10 7 -19
-17 -21 -47 -6 -13 7 -19 7 -19 0 0 -5 5 -10 10 -10 6 0 10 -4 10 -9 0 -5 -6
-8 -12 -8 -29 1 -78 -16 -78 -28 0 -7 -13 -17 -28 -23 -23 -8 -29 -7 -29 4 0
8 6 14 14 14 7 0 13 4 13 10 0 5 16 12 36 16 25 5 32 9 22 15 -10 7 -9 9 5 9
9 0 17 4 17 10 0 15 60 42 77 35 14 -5 14 -3 2 11 -12 15 -11 16 19 10 26 -6
32 -4 32 9 0 9 5 13 10 10 6 -3 16 -3 23 2 6 4 19 8 27 8 8 0 14 5 13 10 -1 7
13 9 35 7 29 -3 34 -1 22 8 -12 9 -2 10 43 7 34 -4 55 -2 52 4 -4 5 5 5 20 -1
15 -6 29 -10 31 -10z m1579 -10 l-50 -19 40 5 c30 4 36 3 25 -5 -12 -9 -10
-11 10 -11 20 0 22 -2 10 -10 -12 -8 -11 -10 7 -10 12 0 51 15 87 34 36 19 66
33 66 31 0 -2 -24 -20 -52 -41 -71 -51 -78 -57 -45 -45 45 17 52 13 21 -11
-16 -12 -33 -28 -37 -35 -7 -12 -98 -43 -121 -43 -6 1 0 7 14 15 l25 15 -30
-5 -30 -5 30 15 30 15 -45 -6 -45 -5 40 15 c22 9 42 16 44 16 2 0 2 2 0 5 -3
2 -29 -2 -59 -10 -30 -8 -56 -13 -58 -10 -2 2 14 20 35 40 l38 37 -40 -23 -40
-22 33 35 c21 22 49 39 75 46 67 16 76 12 22 -8z m415 -4 c0 -2 -8 -10 -17
-17 -16 -13 -17 -12 -4 4 13 16 21 21 21 13z m1460 -57 c0 -18 -10 -8 -25 24
l-16 32 21 -24 c11 -13 20 -27 20 -32z m-1720 -75 c-25 -14 -24 -15 15 -10
147 18 147 18 56 -14 -46 -16 -85 -31 -87 -33 -2 -1 27 -2 64 0 48 2 60 0 42
-6 -14 -5 -18 -9 -10 -10 37 -3 -52 -39 -105 -43 -48 -4 -55 -3 -36 6 22 10
21 11 -25 21 l-49 10 35 23 35 24 -32 -6 c-18 -3 -33 -4 -33 -2 0 11 61 41 95
47 60 10 62 10 35 -7z m340 -19 c-7 -8 -17 -15 -22 -15 -6 0 -5 7 2 15 7 8 17
15 22 15 6 0 5 -7 -2 -15z m-55 -24 c-3 -6 -14 -11 -23 -11 -15 1 -15 2 2 15
21 16 32 13 21 -4z m1406 -23 l22 -33 -31 29 c-34 32 -37 36 -23 36 5 0 20
-15 32 -32z m-1375 -3 c-11 -8 -25 -15 -30 -15 -6 0 -2 7 8 15 11 8 25 15 30
15 6 0 2 -7 -8 -15z m1450 -33 l17 -25 -30 21 c-16 12 -36 28 -43 37 -12 15
-11 15 13 4 15 -7 34 -23 43 -37z m-4076 -2 c0 -5 -2 -10 -4 -10 -3 0 -8 5
-11 10 -3 6 -1 10 4 10 6 0 11 -4 11 -10z m2373 -27 c-7 -3 -13 -9 -13 -13 0
-5 16 -2 36 6 23 9 33 11 29 4 -4 -7 -21 -18 -39 -26 -36 -15 -20 -19 21 -4
l28 10 -25 -20 c-28 -22 -21 -26 13 -9 l22 12 -20 -23 -20 -23 35 6 c37 7 36
6 -17 -31 -16 -11 -13 -12 17 -6 19 3 46 8 60 10 14 2 4 -4 -22 -13 -85 -32
-67 -39 42 -17 35 8 21 -3 -26 -20 -34 -13 -35 -15 -13 -15 14 -1 48 6 74 14
27 8 51 12 53 10 9 -9 -79 -44 -150 -60 -89 -19 -117 -16 -73 9 l30 17 -40 -6
-39 -7 24 21 25 20 -25 -6 c-22 -6 -23 -5 -12 9 11 14 10 16 -10 12 -21 -5
-20 -3 5 11 27 16 37 31 15 22 -7 -2 -24 -8 -38 -12 -25 -8 -25 -8 -6 14 21
23 16 27 -15 11 -10 -6 -19 -7 -19 -2 0 5 13 15 29 22 16 6 32 18 35 26 4 11
-7 14 -52 15 l-57 1 70 23 c39 13 72 21 75 18 3 -3 -1 -8 -7 -10z m1652 -63
c4 0 0 10 -11 22 -10 12 6 1 37 -23 31 -24 55 -45 54 -47 -1 -1 -23 6 -50 15
-28 11 -55 30 -68 48 l-21 30 25 -22 c14 -13 29 -23 34 -23z m-1226 1 c-13
-11 -28 -20 -34 -21 -5 0 4 11 20 24 36 29 49 25 14 -3z m1287 8 c19 -22 19
-22 -3 -10 -24 12 -39 31 -25 31 5 0 17 -10 28 -21z m-1220 -4 c-11 -8 -25
-15 -30 -15 -6 1 0 7 14 15 32 19 40 18 16 0z m-150 -10 c-11 -8 -22 -12 -25
-9 -6 6 19 24 34 24 6 -1 1 -7 -9 -15z m169 -20 c-16 -14 -37 -25 -45 -25 -8
0 3 11 25 24 52 31 57 31 20 1z m70 -1 c-11 -9 -54 -33 -95 -53 -64 -31 -83
-36 -125 -32 -47 4 -48 5 -20 12 17 5 49 11 73 14 24 3 73 21 110 40 74 38 87
42 57 19z m-2992 -1 c-7 -2 -21 -2 -30 0 -10 3 -4 5 12 5 17 0 24 -2 18 -5z
m2843 -8 c-11 -8 -40 -15 -65 -15 -55 0 -48 9 16 20 69 11 70 11 49 -5z m1241
-52 c-9 -8 -37 10 -53 34 l-16 26 36 -28 c20 -15 35 -30 33 -32z m-4114 40
c-7 -2 -19 -2 -25 0 -7 3 -2 5 12 5 14 0 19 -2 13 -5z m4214 -47 c8 -8 -26 -7
-54 0 -38 10 -26 23 13 14 19 -5 38 -11 41 -14z m-1412 -41 c-16 -8 -46 -14
-65 -13 -31 0 -28 2 20 13 71 17 82 16 45 0z m135 6 c-8 -5 -43 -17 -78 -25
-34 -9 -71 -25 -82 -36 -10 -10 -54 -30 -97 -44 -43 -14 -69 -26 -58 -26 15
-1 16 -3 5 -7 -8 -3 -22 -11 -30 -18 -14 -12 -90 -28 -90 -20 0 3 12 12 28 20
15 9 19 14 9 11 -11 -4 -31 -9 -45 -12 l-27 -5 25 16 c25 15 25 15 -15 10 -39
-5 -39 -5 -10 6 17 6 60 24 97 40 67 29 118 39 63 13 l-30 -15 40 6 c62 10
118 26 111 32 -8 8 51 30 124 48 67 16 80 17 60 6z m1194 -17 c62 -28 72 -37
27 -24 -17 4 -31 5 -33 0 -2 -5 -16 -2 -33 6 l-30 14 28 -5 c37 -7 34 2 -5 19
-18 8 -28 15 -22 15 7 1 37 -11 68 -25z m-4249 -24 c3 -6 -4 -10 -17 -10 -18
0 -20 2 -8 10 19 12 18 12 25 0z m2673 0 c-18 -11 -146 -26 -137 -17 5 7 98
24 134 26 18 0 18 -1 3 -9z m57 0 c-9 -14 -61 -35 -108 -44 -59 -11 -36 9 25
23 29 6 60 16 68 21 19 12 23 12 15 0z m270 -20 c-3 -5 -23 -10 -43 -10 -28 0
-33 3 -22 10 20 13 73 13 65 0z m58 3 c-7 -2 -19 -2 -25 0 -7 3 -2 5 12 5 14
0 19 -2 13 -5z m1282 -41 c17 -9 17 -11 3 -12 -9 0 -29 5 -44 10 -24 9 -25 9
-14 -5 7 -8 9 -15 6 -15 -9 0 -106 49 -106 54 0 7 136 -21 155 -32z m-1412 11
c-7 -2 -21 -2 -30 0 -10 3 -4 5 12 5 17 0 24 -2 18 -5z m152 -8 c-30 -13 -51
-18 -135 -30 l-45 -6 30 18 c17 9 55 20 85 24 89 10 99 9 65 -6z m-75 -55
c-38 -12 -99 -12 -80 0 8 5 35 9 60 9 37 -1 41 -2 20 -9z m1315 0 c3 -5 2 -10
-4 -10 -5 0 -13 5 -16 10 -3 6 -2 10 4 10 5 0 13 -4 16 -10z m-1560 -10 c-27
-12 -43 -12 -25 0 8 5 22 9 30 9 10 0 8 -3 -5 -9z m1555 -25 c30 -32 10 -33
-27 0 -20 17 -23 24 -12 25 8 0 26 -11 39 -25z m31 -2 c13 -16 12 -17 -3 -4
-10 7 -18 15 -18 17 0 8 8 3 21 -13z m-1623 0 c-10 -2 -28 -2 -40 0 -13 2 -5
4 17 4 22 1 32 -1 23 -4z m3065 -10 c-7 -2 -19 -2 -25 0 -7 3 -2 5 12 5 14 0
19 -2 13 -5z m-2767 -18 c-11 -8 -31 -15 -45 -14 -21 0 -19 3 14 14 52 17 53
17 31 0z m-241 -4 c3 -6 -3 -15 -12 -21 -17 -10 -16 -11 2 -6 11 2 34 7 50 11
17 3 39 8 50 10 11 3 2 -4 -20 -16 l-40 -20 35 5 35 6 -30 -15 -30 -14 45 -2
45 -1 -40 -13 c-22 -8 -53 -14 -70 -14 -21 -1 -26 -4 -17 -10 10 -6 6 -10 -15
-15 -15 -4 -37 -9 -48 -12 -11 -3 -16 -2 -10 3 22 18 14 33 -17 34 l-33 1 33
14 c42 18 41 24 -5 18 l-38 -4 33 10 c17 6 32 13 32 17 0 3 -15 3 -32 0 l-33
-6 30 14 c24 11 26 14 10 16 -17 1 -16 2 5 9 35 11 78 12 85 1z m280 -21 c-16
-11 -46 -20 -65 -19 -33 0 -32 1 20 19 73 24 81 24 45 0z m1180 -28 c-3 -3
-16 5 -28 17 l-22 23 28 -17 c15 -10 25 -20 22 -23z m152 -9 c60 -78 56 -86
-6 -13 -23 28 -38 50 -32 50 5 0 22 -17 38 -37z m-1317 3 c0 -2 -7 -7 -16 -10
-8 -3 -12 -2 -9 4 6 10 25 14 25 6z m1215 -40 c16 -12 17 -15 4 -16 -8 0 -26
12 -40 26 -20 22 -21 25 -4 16 11 -6 29 -17 40 -26z m-45 -12 c8 -7 29 -20 45
-29 l30 -17 -32 4 c-18 3 -33 3 -33 2 0 -1 20 -14 45 -28 47 -28 57 -39 28
-30 -10 3 2 -6 27 -20 l45 -26 -40 6 c-37 6 -125 48 -125 60 0 3 6 2 13 -2 6
-4 -10 17 -38 46 -46 48 -47 51 -18 36 46 -23 52 -20 18 10 -27 22 -27 24 -5
13 14 -6 32 -17 40 -25z m-1205 6 c-3 -5 -21 -9 -38 -9 l-32 2 35 7 c19 4 36
8 38 9 2 0 0 -3 -3 -9z m72 -6 c-3 -3 -12 -4 -19 -1 -8 3 -5 6 6 6 11 1 17 -2
13 -5z m-202 -14 c24 -6 16 -8 -35 -9 -36 -1 -76 -4 -90 -6 -22 -5 -21 -3 5 9
32 16 72 18 120 6z m190 -20 c-3 -5 -21 -9 -38 -9 l-32 1 30 8 c43 11 47 11
40 0z m-205 -10 c10 -7 -8 -9 -60 -9 -53 1 -68 3 -50 9 36 11 92 11 110 0z
m256 -7 c-3 -4 -32 -13 -64 -20 l-57 -13 74 4 c52 2 69 1 57 -6 -27 -15 -125
-20 -176 -10 l-45 10 40 2 40 3 -35 7 c-32 7 -31 8 20 9 30 1 73 6 95 10 54
12 59 12 51 4z m-272 -34 c-3 -6 0 -15 7 -20 20 -13 -18 -11 -104 3 -70 12
-71 13 -32 19 71 11 137 10 129 -2z m246 -37 c-23 -4 -23 -5 -5 -12 13 -4 -4
-9 -49 -14 -38 -4 -71 -4 -74 -1 -3 3 9 5 26 5 57 0 44 19 -15 23 -32 2 -13 3
42 4 55 0 89 -2 75 -5z m1238 -33 c27 -2 27 -2 2 -7 -23 -5 -22 -6 15 -18 l40
-12 -43 -1 c-40 -1 -42 -2 -27 -17 27 -28 8 -28 -40 0 -25 15 -45 29 -45 31 0
3 15 2 33 -1 l32 -5 -36 20 c-19 11 -41 26 -48 35 -10 11 -1 10 38 -5 28 -10
64 -20 79 -20z m-1478 11 c12 -8 10 -10 -11 -10 -41 0 -42 -12 -2 -31 l38 -17
-30 -1 c-46 -1 -80 10 -63 20 9 6 2 9 -19 9 -17 0 -35 5 -38 10 -4 6 10 10 34
10 23 0 41 5 41 10 0 13 30 13 50 0z m276 -19 c-10 -16 -86 -23 -155 -15 l-66
9 80 6 c135 9 146 9 141 0z m-16 -42 c-16 -6 -59 -6 -110 0 l-85 8 110 1 c79
0 103 -2 85 -9z m-263 -27 c-20 -2 -35 -7 -32 -13 7 -11 49 -12 96 -2 l34 7
-30 7 c-18 4 3 7 55 7 62 -1 75 -3 50 -8 -31 -7 -29 -8 23 -9 71 -1 75 -19 5
-24 l-53 -3 58 -2 c58 -2 73 -20 19 -24 -17 0 -11 -4 18 -8 l45 -7 -60 -3 -60
-3 65 -6 65 -6 -65 -11 -65 -11 55 -3 55 -2 -50 -9 c-40 -7 -62 -4 -112 12
-49 16 -69 18 -100 10 -21 -5 -56 -6 -78 -2 -35 6 -28 8 55 15 72 7 88 11 67
17 -15 4 -42 3 -60 -2 -22 -6 -47 -4 -82 6 l-50 15 55 -5 55 -5 -45 24 -45 24
35 4 c36 4 30 10 -25 24 l-30 8 35 5 c19 4 58 2 85 -4 l50 -10 -38 -3z m1483
-52 c11 -7 5 -8 -20 -4 -43 8 -51 14 -19 14 13 0 31 -5 39 -10z m60 -75 l25
-15 -30 5 -30 5 30 -12 c27 -10 28 -12 10 -19 -17 -6 -15 -8 9 -8 16 -1 27 -4
23 -7 -10 -10 -98 6 -92 17 4 5 -2 9 -12 9 -17 1 -16 2 2 12 19 11 19 11 0 19
-16 6 -14 8 10 8 17 0 41 -6 55 -14z m-1510 -15 c11 -7 -1 -10 -40 -10 -39 0
-51 3 -40 10 8 5 26 10 40 10 14 0 32 -5 40 -10z m141 -18 c-30 -5 -91 7 -91
16 0 4 26 3 58 -3 35 -6 48 -11 33 -13z m-141 -12 c12 -8 12 -10 -5 -10 -11 0
-45 -2 -75 -5 l-55 -5 40 14 c48 17 75 19 95 6z m1510 -20 c20 -6 21 -8 5 -8
-11 0 -29 3 -40 8 -25 11 1 11 35 0z m-1511 -15 c27 -9 39 -10 35 -3 -5 8 -1
9 12 4 10 -5 27 -11 36 -13 10 -3 16 -9 13 -13 -2 -4 24 -15 58 -25 l62 -19
-40 -5 -40 -6 40 -12 c22 -7 49 -19 60 -27 18 -13 15 -14 -30 -10 -50 5 -50 5
-22 -11 15 -9 27 -18 27 -20 0 -7 -112 34 -127 47 -8 6 -33 11 -56 10 -23 -1
-64 6 -92 17 l-50 19 35 4 35 4 -35 11 -35 11 35 2 35 2 -35 12 -35 13 30 11
c40 14 37 14 84 -3z m139 -2 c-10 -2 -26 -2 -35 0 -10 3 -2 5 17 5 19 0 27 -2
18 -5z m1335 -30 c-7 -2 -19 -2 -25 0 -7 3 -2 5 12 5 14 0 19 -2 13 -5z m67
-33 c46 -25 25 -26 -26 0 -21 10 -32 19 -24 19 8 0 31 -8 50 -19z m59 -56 c10
-9 -65 -3 -78 5 -10 6 1 8 30 4 24 -3 46 -7 48 -9z m-1537 -25 c49 -25 62 -24
21 1 -18 11 -33 22 -33 24 0 7 119 -54 125 -65 9 -14 -7 -10 -29 6 -34 26 -43
16 -11 -11 27 -23 24 -22 -29 7 -33 18 -56 27 -52 21 4 -7 21 -19 38 -28 16
-8 28 -18 25 -21 -3 -2 -16 2 -29 11 -36 24 -98 47 -98 37 0 -9 104 -55 130
-57 19 -2 122 -65 116 -72 -3 -2 -25 7 -50 21 -56 31 -60 27 -9 -8 44 -30 33
-34 -15 -5 -45 27 -53 25 -17 -5 30 -25 30 -25 4 -16 -15 5 -56 12 -92 14 -60
5 -136 32 -123 44 3 3 19 0 37 -6 47 -16 47 -7 -2 28 l-42 31 34 1 34 1 -26
11 c-32 15 -37 29 -12 38 16 7 15 8 -4 8 -13 1 -23 5 -23 11 0 14 89 0 132
-21z m1485 5 c-3 -3 -12 -4 -19 -1 -8 3 -5 6 6 6 11 1 17 -2 13 -5z m58 -14
c-3 -5 -25 -10 -48 -11 -36 -1 -38 -2 -17 -9 14 -4 21 -8 16 -9 -5 -1 -3 -8 5
-17 11 -14 9 -15 -27 -9 -43 8 -79 24 -55 25 7 0 11 6 8 14 -5 12 5 16 41 19
26 2 55 4 65 5 10 1 15 -2 12 -8z m-55 -90 l25 -8 -25 -1 c-14 0 -32 4 -40 9
-13 9 -13 10 0 9 8 -1 26 -5 40 -9z m-1438 -80 c15 -13 11 -15 -35 -13 -71 2
-69 1 -55 17 17 18 70 16 90 -4z m73 -11 c15 -14 -7 -10 -35 7 l-25 15 25 -7
c14 -3 29 -10 35 -15z m-93 -18 c-11 -7 -10 -10 3 -15 9 -3 27 -6 40 -6 30 0
41 -16 18 -24 -14 -6 -15 -9 -4 -16 8 -4 20 -6 28 -3 7 3 13 0 13 -7 0 -9 -14
-10 -51 -5 -37 5 -50 4 -45 -4 4 -6 13 -11 19 -11 7 0 30 -16 52 -35 22 -19
49 -36 60 -38 11 -3 -2 -3 -30 -1 -43 4 -47 2 -30 -8 11 -7 49 -12 85 -11 53
1 58 0 30 -7 -33 -7 -32 -8 20 -10 l55 -3 -50 -9 c-27 -5 -68 -9 -90 -9 -40 0
-40 0 -15 -14 14 -8 22 -14 19 -15 -20 -1 -91 33 -139 65 l-55 38 42 -7 c23
-3 50 -9 60 -12 16 -5 16 -4 -2 7 -10 7 -37 18 -60 25 l-40 13 40 1 40 2 -40
13 c-25 9 -32 14 -20 15 16 1 15 4 -10 16 l-30 14 35 -6 c50 -9 27 11 -35 29
-50 16 -50 16 -14 16 20 1 53 -6 72 -14 42 -17 47 -18 47 -7 0 4 -21 14 -47
22 -44 13 -46 15 -23 21 37 11 68 11 52 0z m1475 -47 c-3 -3 -12 -4 -19 -1 -8
3 -5 6 6 6 11 1 17 -2 13 -5z m-1374 -51 c-7 -2 -21 -2 -30 0 -10 3 -4 5 12 5
17 0 24 -2 18 -5z m1394 -9 c-3 -3 -12 -4 -19 -1 -8 3 -5 6 6 6 11 1 17 -2 13
-5z m-1354 -11 c-13 -2 -33 -2 -45 0 -13 2 -3 4 22 4 25 0 35 -2 23 -4z m1355
-10 c-10 -2 -26 -2 -35 0 -10 3 -2 5 17 5 19 0 27 -2 18 -5z m-1325 -10 c-7
-2 -19 -2 -25 0 -7 3 -2 5 12 5 14 0 19 -2 13 -5z m1332 -13 c13 -5 14 -9 5
-9 -8 0 -24 4 -35 9 -13 5 -14 9 -5 9 8 0 24 -4 35 -9z m9 -21 l38 -11 -33
-28 -34 -28 45 -20 c25 -11 52 -22 60 -25 11 -4 10 -6 -4 -6 -25 -1 -133 52
-116 57 10 4 9 6 -1 13 -11 7 -9 9 6 10 16 0 14 4 -10 15 l-30 15 40 -5 40 -5
-35 14 c-42 16 -21 19 34 4z m-1425 -88 l34 -18 -30 1 c-17 0 -29 4 -26 9 2 4
-4 7 -14 7 -10 0 -25 5 -33 10 -28 18 33 10 69 -9z m186 10 c-11 -5 -47 -11
-80 -14 -54 -5 -58 -4 -41 9 13 9 42 14 80 13 41 0 54 -3 41 -8z m-20 -32
c-16 -7 -14 -9 12 -6 41 4 33 -9 -9 -16 -18 -3 -46 -8 -63 -12 -23 -5 -26 -4
-15 4 13 9 12 11 -5 12 -24 1 51 27 80 28 l20 0 -20 -10z m1290 -8 c17 -6 50
-16 74 -22 66 -16 45 -18 -34 -4 -38 7 -65 14 -60 15 6 1 -8 8 -30 16 -33 12
-35 13 -10 10 17 -2 44 -9 60 -15z m-1465 -21 c13 -9 13 -10 0 -10 -8 0 -22 5
-30 10 -13 9 -13 10 0 10 8 0 22 -5 30 -10z m-60 -45 c5 3 34 -9 65 -25 68
-36 67 -36 -31 -10 -70 19 -154 54 -154 65 0 2 25 -5 56 -15 31 -11 60 -18 64
-15z m78 5 c3 0 3 -3 0 -6 -7 -6 -78 22 -78 31 0 3 16 -2 36 -10 20 -8 39 -15
42 -15z m-83 2 c-3 -3 -11 0 -18 7 -9 10 -8 11 6 5 10 -3 15 -9 12 -12z m300
-2 c-3 -5 -12 -10 -19 -10 -7 0 -20 -6 -30 -13 -16 -12 -9 -13 45 -10 l64 3
-50 -15 c-58 -17 -149 -21 -125 -5 12 8 10 10 -10 11 -27 1 -28 1 65 25 l30 8
-35 6 c-32 7 -30 7 18 9 33 1 51 -3 47 -9z m-280 -46 c22 -4 51 -12 65 -19 30
-15 169 -39 177 -31 4 3 -5 6 -18 6 -19 1 -21 2 -9 10 9 5 46 5 85 1 63 -7 67
-9 37 -16 -47 -11 -52 -28 -5 -19 55 10 33 -6 -29 -22 -43 -10 -47 -13 -23
-14 30 -2 30 -2 5 -10 -19 -6 -11 -9 35 -11 36 -1 48 -4 30 -6 l-30 -5 25 -14
25 -14 -25 4 c-14 3 -47 8 -74 11 -30 4 -44 10 -37 15 9 5 5 9 -13 14 -14 3
-26 11 -26 16 0 6 -12 11 -27 12 -17 0 -11 3 17 7 43 6 40 7 -90 39 -74 19
-146 40 -160 48 l-25 15 25 -5 c14 -2 43 -8 65 -12z m1536 -10 c23 -25 23 -26
2 -15 -12 6 -31 11 -42 11 -14 0 -19 5 -15 15 9 22 27 18 55 -11z m-1497 -40
c19 -7 19 -8 0 -14 -19 -7 -67 11 -78 29 -6 9 42 0 78 -15z m14 -39 c28 -9 54
-19 57 -24 6 -11 -84 12 -111 27 -27 16 -6 15 54 -3z m1487 -7 c-11 -7 -24 -6
-39 1 -19 11 -19 11 7 6 16 -3 27 -1 27 5 0 6 5 8 11 4 8 -5 6 -10 -6 -16z
m-1427 -50 c34 -18 46 -20 61 -11 15 9 34 8 91 -7 88 -23 97 -30 39 -31 l-44
-2 35 -7 c19 -4 28 -9 20 -10 -8 -1 1 -6 20 -9 l35 -7 -39 -17 c-21 -10 -61
-17 -90 -16 l-51 1 44 9 c54 10 64 19 25 20 -25 0 -26 2 -9 9 15 6 8 9 -27 9
-47 1 -69 20 -25 22 12 1 -1 7 -28 14 -28 6 -60 17 -72 23 -36 20 -35 14 5
-24 23 -22 29 -31 15 -25 -32 16 -38 13 -18 -9 26 -29 0 -26 -50 6 -38 25 -39
26 -10 19 l30 -6 -30 19 c-16 10 -39 22 -50 26 -20 8 -20 8 0 15 17 7 17 8 -8
15 -15 3 -27 10 -27 15 0 13 110 -15 158 -41z m1448 -9 c8 -14 -10 -11 -32 6
-18 13 -18 14 4 8 12 -3 25 -9 28 -14z m3 -53 c10 -12 9 -14 -9 -9 -11 3 -25
14 -31 25 -9 17 -8 18 9 9 10 -5 24 -17 31 -25z m-1501 -26 c20 -10 50 -38 67
-60 26 -36 34 -41 60 -36 73 12 200 17 185 7 -12 -9 -9 -11 15 -12 25 -1 21
-4 -20 -14 -36 -9 -43 -14 -25 -15 15 -1 5 -6 -25 -11 -27 -5 -64 -6 -82 -3
-17 3 -40 1 -50 -6 -14 -9 5 -10 86 -6 64 2 99 1 90 -5 -10 -6 -2 -9 26 -10
l40 -1 -40 -9 c-22 -4 -62 -8 -90 -7 -47 1 -48 1 -15 8 29 6 24 8 -32 9 -37 0
-79 6 -94 11 -45 17 -37 5 20 -33 45 -30 69 -38 133 -46 l78 -10 -80 4 c-44 1
-89 6 -100 10 -11 4 -7 -2 10 -14 27 -19 39 -21 130 -15 77 4 97 3 85 -6 -12
-9 -4 -11 35 -6 40 4 45 3 25 -5 -14 -6 -70 -11 -125 -11 -95 -1 -104 0 -175
35 -41 19 -93 52 -115 72 l-40 36 33 -16 c19 -9 35 -15 37 -13 2 2 -14 27 -36
56 -31 40 -36 52 -23 52 16 0 16 2 -1 20 -20 22 -15 25 18 10 12 -6 5 5 -17
25 -45 40 -42 44 12 15z m236 -47 l38 -6 -32 -13 c-38 -16 -74 -18 -65 -4 4 6
-14 10 -47 11 -39 0 -48 3 -33 9 24 10 87 12 139 3z m1276 -13 c8 -5 11 -10 5
-10 -5 0 -17 5 -25 10 -8 5 -10 10 -5 10 6 0 17 -5 25 -10z m0 -43 c45 -20 50
-25 32 -29 -14 -4 -20 -2 -15 4 3 6 2 9 -3 5 -5 -3 -27 6 -49 19 -51 30 -33
31 35 1z m38 -56 c0 -3 1 -9 2 -13 1 -5 3 -17 4 -28 0 -10 10 -26 21 -34 15
-12 16 -16 5 -16 -9 0 -5 -6 10 -15 22 -13 23 -14 5 -14 -24 0 -107 37 -86 38
11 1 10 5 -5 16 -18 14 -17 14 9 5 15 -5 27 -8 27 -6 0 2 -26 21 -57 42 -42
27 -53 39 -40 42 9 2 15 7 12 12 -3 4 17 1 44 -8 28 -8 50 -18 49 -21z m-1228
-51 c-8 -5 -37 -9 -65 -9 -44 1 -46 2 -20 9 46 12 103 12 85 0z m-251 -36 c60
-36 112 -81 63 -55 -30 16 -137 91 -129 91 3 0 33 -16 66 -36z m1526 -64 c3
-5 -4 -6 -15 -3 -11 3 -22 9 -25 13 -3 5 4 6 15 3 11 -3 22 -9 25 -13z m-1574
-29 c56 -19 173 -80 166 -87 -3 -3 -148 36 -194 53 -13 4 -11 0 7 -16 31 -27
-2 -12 -40 18 -28 23 -21 25 30 12 28 -8 32 -8 17 2 -64 42 -62 44 14 18z
m1564 3 c0 -5 16 -25 34 -43 l35 -34 -28 7 c-18 4 -25 3 -21 -3 4 -7 0 -8 -10
-4 -12 4 -13 8 -5 13 9 5 7 11 -6 21 -23 17 -29 39 -11 39 8 0 7 4 -3 11 -13
9 -13 10 0 6 8 -2 15 -8 15 -13z m-1200 -4 c22 -6 12 -8 -40 -8 -48 0 -64 2
-50 8 24 10 50 10 90 0z m94 -46 c-11 -5 -17 -13 -13 -16 3 -4 -9 -11 -27 -17
l-34 -9 40 -2 c22 -1 49 -5 60 -9 15 -6 8 -11 -35 -21 l-55 -13 40 -13 c24 -7
32 -12 20 -13 -12 -1 -25 -5 -30 -10 -6 -6 -30 -13 -55 -16 l-45 -5 48 16 c26
9 45 19 43 22 -3 2 -19 -1 -37 -7 -18 -6 -48 -10 -68 -10 l-36 2 35 7 c29 6
31 8 10 9 -23 2 -23 3 -5 11 16 6 12 9 -20 12 -35 3 -37 5 -15 10 14 4 43 10
65 14 l40 7 -54 9 c-58 9 -77 17 -45 19 15 1 13 3 -6 9 -25 8 -24 8 5 9 17 1
36 5 42 9 7 5 44 8 82 8 55 -1 65 -3 50 -12z m-439 -92 c69 -54 69 -55 10 -29
-31 13 -69 36 -85 51 l-30 28 30 -8 c17 -4 50 -23 75 -42z m1576 27 c3 -5 0
-9 -7 -9 -8 0 -6 -6 4 -18 10 -10 17 -22 17 -26 0 -12 -25 0 -26 12 -1 7 -2
14 -3 17 0 3 0 7 2 10 1 2 -7 11 -18 19 -20 15 -20 15 3 9 12 -3 25 -9 28 -14z
m-1666 -36 l45 -47 -41 32 c-46 35 -71 62 -57 62 5 0 29 -21 53 -47z m101 -93
c9 0 24 -9 35 -21 18 -20 18 -20 -36 1 -69 27 -173 84 -190 105 -7 8 30 -8 81
-35 52 -27 101 -50 110 -50z m479 66 c0 -2 -15 -6 -34 -8 -19 -2 -32 0 -30 4
5 8 64 12 64 4z m-509 -33 c13 -16 12 -17 -3 -4 -17 13 -22 21 -14 21 2 0 10
-8 17 -17z m469 -3 c-13 -8 -12 -10 5 -11 14 -1 11 -4 -10 -10 -23 -6 -17 -7
25 -4 35 2 48 0 35 -5 -151 -62 -216 -87 -200 -74 11 8 19 20 17 26 -2 6 6 17
18 25 11 8 20 20 20 28 0 20 29 34 70 35 26 0 31 -3 20 -10z m-510 -105 c19
-17 34 -20 25 -5 -8 13 23 1 50 -18 l20 -14 -20 7 c-11 4 -27 10 -35 13 -10 4
-9 -2 5 -18 17 -20 8 -17 -54 16 -40 21 -85 54 -99 72 l-25 32 58 -35 c32 -19
65 -41 75 -50z m602 49 c-18 -14 -30 -29 -27 -34 3 -4 -7 -15 -21 -25 -14 -9
-23 -19 -21 -22 3 -3 16 2 29 11 12 9 27 16 32 16 6 0 -14 -16 -44 -36 -60
-39 -60 -39 54 6 85 34 113 34 46 0 -22 -11 -56 -30 -73 -41 -28 -18 -29 -20
-7 -14 19 4 17 1 -10 -14 -40 -23 -75 -28 -64 -8 4 6 -6 1 -22 -14 -56 -49
-69 -54 -31 -11 20 23 37 44 37 47 0 2 -17 -5 -37 -17 -20 -12 -33 -17 -29
-10 5 9 -5 12 -36 14 -42 1 -42 1 -8 6 l35 5 -40 13 c-28 9 -33 13 -17 13 21
1 82 27 82 35 0 2 -10 2 -22 -1 -28 -6 113 75 162 93 56 21 68 16 32 -12z
m1100 -47 c4 -20 23 -60 42 -89 19 -29 39 -77 45 -107 7 -30 17 -61 24 -70 10
-12 9 -13 -5 -5 -28 16 -88 102 -95 136 -3 18 -15 44 -27 57 -11 13 -15 21 -8
17 19 -11 14 9 -8 29 -14 13 -17 21 -9 31 6 8 7 14 0 18 -5 4 -9 15 -8 26 2
33 40 -1 49 -43z m-1857 -8 c11 -17 -1 -21 -15 -4 -8 9 -8 15 -2 15 6 0 14 -5
17 -11z m-16 -111 l24 -43 -23 20 c-13 11 -36 38 -51 59 -33 45 -35 43 -13 -9
8 -20 13 -39 11 -42 -6 -5 -31 63 -33 88 -1 9 -5 23 -9 30 -4 8 10 -3 31 -23
21 -21 50 -57 63 -80z m238 -31 c15 -16 21 -26 13 -21 -32 18 -140 96 -140
100 0 12 101 -51 127 -79z m-333 27 c3 -8 2 -12 -4 -9 -6 3 -10 10 -10 16 0
14 7 11 14 -7z m-30 -99 c31 -38 35 -46 16 -34 -30 20 -90 105 -90 128 1 10 7
4 17 -14 9 -16 34 -52 57 -80z m870 79 c-5 -2 -30 -9 -55 -14 l-44 -9 52 2
c44 2 50 0 40 -13 -7 -8 4 -5 26 8 46 26 47 19 5 -27 -32 -34 -19 -29 32 14
24 19 24 19 10 0 -7 -11 -37 -45 -66 -75 -29 -30 -68 -84 -88 -120 -40 -72
-46 -67 -16 12 11 29 20 54 20 56 0 2 -12 -5 -27 -16 -51 -35 -58 -34 -18 2
22 19 35 35 30 36 -6 0 -17 -6 -25 -12 -7 -7 -3 2 9 19 19 28 20 32 5 26 -15
-6 -15 -2 4 24 12 17 22 33 22 36 0 3 -23 -10 -51 -29 -29 -19 -54 -32 -57
-29 -3 3 17 29 44 59 48 53 50 54 104 54 30 0 50 -2 44 -4z m-849 -51 l18 -28
-21 19 c-12 11 -22 23 -22 28 0 14 7 9 25 -19z m-66 -48 c0 -5 -6 1 -14 15 -8
14 -14 30 -14 35 0 6 6 -1 14 -15 8 -14 14 -29 14 -35z m5 -33 c43 -46 98 -68
218 -88 57 -9 105 -19 108 -22 3 -2 -26 -2 -65 1 -54 4 -61 4 -30 -3 22 -5 63
-9 90 -10 28 0 57 -5 65 -10 24 -16 -103 -12 -204 6 -152 26 -192 52 -226 141
-24 65 -25 75 -3 43 9 -14 30 -40 47 -58z m966 -1 c-19 -27 -19 -30 -3 -24 14
5 13 1 -6 -20 -22 -25 -19 -37 5 -19 6 4 -6 -8 -25 -26 -20 -18 -28 -30 -18
-26 14 5 12 -2 -10 -39 -29 -46 -43 -56 -23 -15 9 18 6 16 -14 -7 l-26 -30 15
44 c18 52 13 64 -10 24 -9 -15 -14 -20 -11 -10 4 11 9 31 12 45 13 60 26 80
65 97 21 10 44 24 50 32 22 26 21 4 -1 -26z m1250 -86 c0 -5 9 -16 21 -23 12
-7 18 -16 15 -19 -3 -3 1 -18 10 -34 14 -29 14 -29 -13 -30 l-28 -1 30 -13
c17 -8 23 -14 15 -14 -18 -1 -45 15 -45 27 0 4 -15 22 -34 38 -19 17 -35 40
-36 50 -3 29 -12 67 -21 89 -5 13 7 7 39 -20 26 -22 47 -44 47 -50z m-2007
-62 c-7 -2 -19 -2 -25 0 -7 3 -2 5 12 5 14 0 19 -2 13 -5z m217 -33 c38 -5 45
-8 23 -9 -18 0 -33 -5 -33 -11 0 -22 -213 0 -237 24 -9 8 179 6 247 -4z m269
-51 c-29 -15 -57 -18 -181 -16 -88 0 -144 5 -139 10 18 18 78 25 215 24 l139
0 -34 -18z m1597 -9 c9 0 12 -4 9 -10 -3 -5 1 -10 10 -10 9 0 14 -4 11 -9 -7
-11 47 -31 81 -31 23 0 23 -1 8 -16 -21 -21 -14 -27 19 -15 19 8 25 7 23 -2
-1 -7 5 -10 13 -8 48 12 79 11 74 -3 -4 -10 1 -12 20 -9 26 5 37 -11 14 -20
-7 -3 -3 -6 10 -6 13 -1 21 -5 18 -10 -3 -5 3 -11 14 -14 13 -3 18 -10 14 -21
-4 -11 0 -16 12 -16 15 0 16 -2 5 -9 -11 -7 -9 -10 9 -16 18 -6 20 -9 9 -16
-12 -7 -11 -9 1 -9 9 0 23 -9 33 -20 9 -11 14 -20 11 -20 -4 0 -2 -6 5 -13 8
-10 7 -17 -1 -25 -9 -9 -4 -12 23 -13 31 0 32 -1 11 -10 -13 -5 -20 -13 -17
-19 3 -5 -3 -10 -14 -10 -14 0 -19 5 -15 15 4 10 0 15 -11 15 -9 0 -13 5 -10
10 3 6 0 10 -8 10 -14 0 -32 27 -29 43 1 4 -6 7 -15 7 -15 0 -16 2 -4 9 12 8
9 11 -13 17 -20 5 -24 9 -14 15 9 6 6 9 -11 9 -20 0 -21 2 -11 15 11 13 8 15
-14 15 -14 0 -26 4 -26 9 0 4 -21 7 -46 5 -29 -3 -43 -1 -39 6 4 7 -2 7 -20 0
-35 -13 -40 -13 -26 4 13 15 -4 26 -40 26 -11 0 -27 9 -37 21 -9 11 -28 25
-41 30 -13 5 -21 12 -18 16 4 3 -1 12 -11 19 -16 13 -16 13 1 14 9 0 17 5 17
12 0 6 -8 20 -17 31 -17 20 -17 20 0 14 10 -4 25 -7 33 -7z m-1582 -166 c16
-6 12 -24 -5 -24 -6 0 -8 4 -5 9 4 5 0 12 -6 14 -7 3 -10 6 -6 6 3 1 13 -2 22
-5z m51 -34 c-3 -5 -11 -10 -16 -10 -6 0 -7 5 -4 10 3 6 11 10 16 10 6 0 7 -4
4 -10z m39 -25 c-4 -8 -10 -15 -16 -15 -5 0 -7 4 -4 9 4 5 0 12 -6 14 -7 3 -3
6 9 6 16 1 21 -3 17 -14z m61 -19 c31 -11 36 -16 23 -21 -18 -7 -78 14 -78 27
0 11 9 10 55 -6z m68 -43 c-13 -2 -35 -2 -50 0 -16 2 -5 4 22 4 28 0 40 -2 28
-4z m-480 -60 c-7 -2 -19 -2 -25 0 -7 3 -2 5 12 5 14 0 19 -2 13 -5z m1538
-30 c13 -16 12 -17 -3 -4 -17 13 -22 21 -14 21 2 0 10 -8 17 -17z m454 7 c-3
-5 -12 -10 -18 -10 -7 0 -6 4 3 10 19 12 23 12 15 0z m359 -37 c15 -14 25 -32
22 -39 -3 -7 2 -18 10 -25 8 -7 12 -19 9 -27 -3 -9 0 -19 7 -24 10 -6 10 -8
-1 -8 -11 0 -11 -3 -1 -15 11 -13 10 -14 -3 -9 -8 3 -23 22 -32 42 -20 42 -52
71 -77 72 -10 0 -18 5 -18 10 0 6 7 10 16 10 8 0 13 4 10 9 -3 5 -15 7 -26 4
-27 -7 -25 5 3 17 37 15 53 11 81 -17z m-741 -50 c-7 -2 -19 -2 -25 0 -7 3 -2
5 12 5 14 0 19 -2 13 -5z m50 -29 c34 -17 77 -53 77 -64 0 -17 -43 -1 -73 27
-17 17 -41 35 -52 41 -34 19 10 15 48 -4z m612 -14 c16 -16 24 -30 19 -30 -6
0 -20 14 -32 30 -13 17 -21 30 -19 30 2 0 16 -13 32 -30z m-130 -24 c16 -12
17 -15 4 -16 -8 0 -26 12 -40 26 -20 22 -21 25 -4 16 11 -6 29 -17 40 -26z m9
-51 c-4 -8 6 -29 20 -46 24 -29 32 -50 26 -74 -2 -5 -2 -18 -2 -27 0 -10 -3
-18 -8 -18 -5 0 -11 -13 -15 -30 -6 -29 -25 -52 -25 -30 0 6 -5 8 -11 4 -12
-7 -2 36 10 46 18 14 15 86 -4 113 -23 33 -18 96 6 81 4 -2 6 -11 3 -19z m166
0 c10 -12 10 -15 -3 -15 -8 0 -20 7 -27 15 -10 12 -10 15 3 15 8 0 20 -7 27
-15z"/>
<path d="M4071 9056 c14 -12 181 -84 169 -72 -8 8 -48 28 -89 45 -68 29 -91
36 -80 27z"/>
<path d="M4070 8936 c0 -2 8 -10 18 -17 15 -13 16 -12 3 4 -13 16 -21 21 -21
13z"/>
<path d="M3112 8820 c0 -14 2 -19 5 -12 2 6 2 18 0 25 -3 6 -5 1 -5 -13z"/>
<path d="M3924 5848 l-29 -31 32 22 c35 23 50 41 35 41 -4 0 -21 -14 -38 -32z"/>
<path d="M4575 4720 c-8 -13 25 -13 45 0 12 8 9 10 -12 10 -15 0 -30 -4 -33
-10z"/>
<path d="M4628 4703 c7 -3 16 -2 19 1 4 3 -2 6 -13 5 -11 0 -14 -3 -6 -6z"/>
<path d="M4590 4523 c1 -9 50 -47 54 -41 2 1 -10 13 -25 26 -16 13 -29 20 -29
15z"/>
<path d="M4640 4510 c20 -13 33 -13 25 0 -3 6 -14 10 -23 10 -15 0 -15 -2 -2
-10z"/>
<path d="M4580 4486 c0 -13 20 -26 41 -26 14 0 1 18 -22 30 -15 8 -19 7 -19
-4z"/>
<path d="M4800 3477 c0 -2 13 -13 29 -24 26 -20 32 -21 82 -8 l54 13 -62 -1
c-37 -1 -68 4 -75 11 -11 11 -28 16 -28 9z"/>
<path d="M5154 2955 c-10 -8 -14 -14 -9 -14 6 0 19 6 29 14 11 8 15 15 10 15
-6 0 -19 -7 -30 -15z"/>
<path d="M5304 12184 c-18 -14 -18 -15 4 -4 12 6 22 13 22 15 0 8 -5 6 -26
-11z"/>
<path d="M6428 11163 c7 -3 16 -2 19 1 4 3 -2 6 -13 5 -11 0 -14 -3 -6 -6z"/>
<path d="M2028 10933 c7 -3 16 -2 19 1 4 3 -2 6 -13 5 -11 0 -14 -3 -6 -6z"/>
<path d="M2433 10733 c9 -2 23 -2 30 0 6 3 -1 5 -18 5 -16 0 -22 -2 -12 -5z"/>
<path d="M7440 9770 c-8 -5 -10 -10 -5 -10 6 0 17 5 25 10 8 5 11 10 5 10 -5
0 -17 -5 -25 -10z"/>
<path d="M2733 8713 c9 -2 23 -2 30 0 6 3 -1 5 -18 5 -16 0 -22 -2 -12 -5z"/>
<path d="M5341 2335 c-22 -37 -21 -55 4 -55 16 0 39 70 26 83 -4 4 -18 -8 -30
-28z"/>
<path d="M5381 2309 c-14 -39 -14 -57 -2 -43 10 10 25 74 18 74 -3 0 -10 -14
-16 -31z"/>
<path d="M5411 2292 c-12 -30 -12 -34 8 -51 11 -10 18 -21 14 -25 -3 -3 -1 -6
5 -6 14 0 25 40 19 71 l-4 24 -9 -25 c-8 -24 -9 -24 -14 10 l-5 35 -14 -33z"/>
<path d="M5491 2222 c-13 -25 -14 -42 -2 -42 8 0 23 52 16 58 -2 2 -8 -5 -14
-16z"/>
</g>
</svg>
